<svg
  xmlns="http://www.w3.org/2000/svg"
  width="24"
  height="24"
  viewBox="0 0 24 24"
><title>error</title>
<path
    d="M11.6 21.2C6.29844 21.2 2 16.9 2 11.6C2 6.29689 6.29844 2 11.6 2C16.9016 2 21.2 6.29689 21.2 11.6C21.2 16.9 16.9016 21.2 11.6 21.2ZM11.6 3.85806C7.32134 3.85806 3.85806 7.31991 3.85806 11.6C3.85806 15.8772 7.3215 19.3419 11.6 19.3419C15.8771 19.3419 19.3419 15.8785 19.3419 11.6C19.3419 7.32142 15.8801 3.85806 11.6 3.85806Z"
  />
<path
    d="M10.4697 11.5303L7.5 8.56066L8.56066 7.5L11.5303 10.4697L14.5 7.5L15.5607 8.56066L12.591 11.5303L15.5607 14.5L14.5 15.5607L11.5303 12.591L8.56066 15.5607L7.5 14.5L10.4697 11.5303Z"
  /></svg>
