<svg xmlns="http://www.w3.org/2000/svg" width="24" height="24" viewBox="0 0 24 24"><title>home</title><path d="M22.6,11.26,20.4,9.317V4.2a.6.6,0,0,0-.6-.6H17.4a.6.6,0,0,0-.6.6V6.139L13,2.788a1.493,1.493,0,0,0-2,0L1.4,11.261a.6.6,0,0,0-.045.848h0l.8.892a.6.6,0,0,0,.847.045h0l8.6-7.584a.6.6,0,0,1,.794,0L21,13.046A.6.6,0,0,0,21.843,13h0l.8-.893A.6.6,0,0,0,22.6,11.26ZM12,6.713,3.806,13.938a1.586,1.586,0,0,1-.205.126V21a.6.6,0,0,0,.6.6H9a.6.6,0,0,0,.6-.6V16.2a.6.6,0,0,1,.6-.6h3.6a.6.6,0,0,1,.6.6V21a.6.6,0,0,0,.6.6h4.8a.6.6,0,0,0,.6-.6V14.066a1.845,1.845,0,0,1-.2-.12Z"/></svg>
