<svg xmlns="http://www.w3.org/2000/svg" width="24" height="24" viewBox="0 0 24 24"><title>linkedin</title><path d="M21.4,1H2.7C1.7,1,1,1.7,1,2.6v18.8c0,0.9,0.7,1.6,1.6,1.6h18.8c0.9,0,1.6-0.7,1.6-1.6V2.6C23,1.7,22.3,1,21.4,1z M7.5,19.8H4.3V9.2h3.3L7.5,19.8L7.5,19.8z M5.9,7.8c-1,0-1.9-0.8-1.9-1.9c0-1,0.8-1.9,1.9-1.9c1,0,1.9,0.8,1.9,1.9S7,7.8,5.9,7.8 z M19.8,19.8h-3.3v-5.1c0-1.2,0-2.7-1.6-2.7c-1.7,0-1.9,1.3-1.9,2.7v5.2H9.6V9.2h3.1v1.5l0,0c0.5-0.8,1.5-1.6,3.1-1.6 c3.3,0,3.9,2.2,3.9,5V19.8z" /></svg>
