<svg xmlns="http://www.w3.org/2000/svg" width="24" height="24" viewBox="0 0 24 24"><title>map</title><path d="M12,2.4A4.724,4.724,0,0,0,7.276,7.126c0,2.109,3.087,5.954,4.27,7.349a.592.592,0,0,0,.908,0c1.183-1.395,4.27-5.24,4.27-7.349A4.724,4.724,0,0,0,12,2.4Zm0,6.3a1.575,1.575,0,1,1,1.575-1.574A1.574,1.574,0,0,1,12,8.7ZM1.956,10.5A1.2,1.2,0,0,0,1.2,11.612V21a.6.6,0,0,0,.822.557L7.2,19.2V10.46a11.278,11.278,0,0,1-.8-1.741ZM12,15.887a1.791,1.791,0,0,1-1.369-.636c-.737-.87-1.521-1.86-2.231-2.876V19.2l7.2,2.4V12.375c-.709,1.016-1.493,2.007-2.23,2.877A1.794,1.794,0,0,1,12,15.887Zm9.976-7.443L16.8,10.8V21.6l5.245-2.1a1.2,1.2,0,0,0,.754-1.114V9a.6.6,0,0,0-.822-.557Z"/></svg>
