<svg xmlns="http://www.w3.org/2000/svg" width="24" height="24" viewBox="0 0 24 24"><title>refresh</title><path d="M18.130957,3.91736297 L18.2637695,6.66558563 C16.7023798,4.82365157 14.4090296,3.76284653 11.9943555,3.76562469 C7.97345703,3.76562469 4.62591797,6.65164031 3.90806641,10.4666794 C3.88656775,10.5830514 3.91791175,10.7029583 3.99360885,10.7939232 C4.06930594,10.884888 4.18152205,10.9374965 4.29986328,10.9374997 L5.92847656,10.9374997 C6.11331876,10.9372995 6.27375148,10.8099981 6.31595703,10.6300388 C6.85866603,8.37771734 8.68131585,6.65907316 10.9616057,6.24948419 C13.2418955,5.83989522 15.5487231,6.81679667 16.8413477,8.73945281 L13.4725586,8.57808563 C13.3636471,8.57290641 13.2573713,8.61258679 13.1785048,8.68787701 C13.0996383,8.76316724 13.0550722,8.86748859 13.0551953,8.97652313 L13.0551953,10.5506833 C13.0551953,10.7707342 13.2335819,10.9491208 13.4536328,10.9491208 L20.1015625,10.9491208 C20.3216135,10.9491208 20.5,10.7707342 20.5,10.5506833 L20.5,3.89843719 C20.5,3.67838623 20.3216135,3.49999969 20.1015625,3.49999969 L18.5287305,3.49999969 C18.4198112,3.49999969 18.3156642,3.54470384 18.2405193,3.62354953 C18.1653744,3.70239523 18.1257834,3.80856668 18.130957,3.91736297 Z M11.9943555,17.8437497 C10.0486857,17.8454167 8.23038411,16.8764861 7.14669922,15.2605466 L10.5267773,15.4222458 C10.6356889,15.427425 10.7419647,15.3877446 10.8208312,15.3124544 C10.8996977,15.2371642 10.9442637,15.1328428 10.9441406,15.0238083 L10.9441406,13.4499802 C10.9441406,13.2299292 10.7657541,13.0515427 10.5457031,13.0515427 L3.8984375,13.0515427 C3.67838654,13.0515427 3.5,13.2299292 3.5,13.4499802 L3.5,20.1015622 C3.5,20.3216131 3.67838654,20.5 3.8984375,20.5 L5.47060547,20.5 C5.57982167,20.5001363 5.68430597,20.4554346 5.75962755,20.376347 C5.83494913,20.2972593 5.87450387,20.19072 5.86904297,20.0816403 L5.73125,17.3400583 C7.29231015,19.1781686 9.58280965,20.236658 11.9943555,20.2343747 C16.0155859,20.2343747 19.363125,17.3483591 20.0809766,13.53332 C20.1024752,13.416948 20.0711312,13.297041 19.9954341,13.2060762 C19.919737,13.1151114 19.8075209,13.0625029 19.6891797,13.0624997 L18.0605664,13.0624997 C17.8757242,13.0626999 17.7152915,13.1900013 17.6730859,13.3699606 C17.0418879,15.9946066 14.6938327,17.8444398 11.9943555,17.8437497 Z"></path></svg>
