<svg xmlns="http://www.w3.org/2000/svg" width="24" height="24" viewBox="0 0 24 24"><title>star-outline</title><path d="M12 1.688a.808.808 0 00-.732.455L8.371 8.011 1.9 8.95a.816.816 0 00-.453 1.393l4.688 4.572-1.106 6.44a.819.819 0 00.805.957c.126 0 .256-.03.381-.096l5.784-3.042 5.794 3.041a.81.81 0 00.38.096.82.82 0 00.805-.956l-1.107-6.447 4.682-4.566A.816.816 0 0022.1 8.95l-6.471-.938-2.897-5.87A.807.807 0 0012 1.689m0 4.394l2.035 4.124 4.545.659-3.287 3.207.777 4.529-4.072-2.137-4.06 2.135.776-4.521-3.294-3.213 4.545-.66L12 6.083" fill-rule="evenodd"/></svg>
