<svg
  xmlns="http://www.w3.org/2000/svg"
  width="24"
  height="24"
  viewBox="0 0 24 24"
><title>succes</title>
<path
    d="M12 21.6C6.69843 21.6 2.39999 17.3 2.39999 12C2.39999 6.69688 6.69843 2.39999 12 2.39999C17.3016 2.39999 21.6 6.69688 21.6 12C21.6 17.3 17.3016 21.6 12 21.6ZM12 4.25806C7.72134 4.25806 4.25806 7.7199 4.25806 12C4.25806 16.2772 7.72149 19.7419 12 19.7419C16.2771 19.7419 19.7419 16.2785 19.7419 12C19.7419 7.72141 16.2801 4.25806 12 4.25806Z"
  />
<path
    d="M11 13.4393L15.5 8.93934L16.5606 10L11 15.5606L7.46967 12.0303L8.53033 10.9697L11 13.4393Z"
  />
  </svg>
