<svg
  xmlns="http://www.w3.org/2000/svg"
  width="24"
  height="24"
  viewBox="0 0 24 24"
><title>warning</title><path
    d="M11.6 21.2C6.29844 21.2 2 16.9 2 11.6C2 6.29689 6.29844 2 11.6 2C16.9016 2 21.2 6.29689 21.2 11.6C21.2 16.9 16.9016 21.2 11.6 21.2ZM11.6 3.85806C7.32134 3.85806 3.85806 7.31991 3.85806 11.6C3.85806 15.8772 7.3215 19.3419 11.6 19.3419C15.8771 19.3419 19.3419 15.8785 19.3419 11.6C19.3419 7.32142 15.8801 3.85806 11.6 3.85806ZM11.6 16.9419C12.4979 16.9419 13.2258 16.214 13.2258 15.3161C13.2258 14.4182 12.4979 13.6903 11.6 13.6903C10.7021 13.6903 9.97419 14.4182 9.97419 15.3161C9.97419 16.214 10.7021 16.9419 11.6 16.9419ZM12.8387 7.10967C12.8387 6.85315 12.6307 6.64516 12.3742 6.64516H10.8258C10.5693 6.64516 10.3613 6.85315 10.3613 7.10967V12.3742C10.3613 12.6307 10.5693 12.8387 10.8258 12.8387H12.3742C12.6307 12.8387 12.8387 12.6307 12.8387 12.3742C12.8387 10.6194 12.8387 8.86451 12.8387 7.10967Z"
  /></svg>
