<svg xmlns="http://www.w3.org/2000/svg" width="24" height="24" viewBox="0 0 24 24"><title>youtube</title><path d="M9.8,14.7l0-5.9l5.7,2.9L9.8,14.7L9.8,14.7z M22.3,7.8c0,0-0.2-1.4-0.8-2.1c-0.8-0.8-1.7-0.8-2.1-0.9 c-3-0.2-7.4-0.2-7.4-0.2h0c0,0-4.4,0-7.4,0.2c-0.4,0-1.3,0.1-2.1,0.9C1.9,6.4,1.7,7.8,1.7,7.8s-0.2,1.7-0.2,3.4v1.6 c0,1.7,0.2,3.4,0.2,3.4s0.2,1.4,0.8,2.1c0.8,0.8,1.9,0.8,2.3,0.9c1.7,0.2,7.2,0.2,7.2,0.2s4.4,0,7.4-0.2c0.4,0,1.3-0.1,2.1-0.9 c0.6-0.6,0.8-2.1,0.8-2.1s0.2-1.7,0.2-3.4v-1.6C22.5,9.5,22.3,7.8,22.3,7.8L22.3,7.8z" /></svg>
