<svg width="538" height="378" viewBox="0 0 538 378" fill="none" xmlns="http://www.w3.org/2000/svg">
<g clip-path="url(#clip0_1132_3597)">
<path d="M439 315.477L421.556 98.3283L288.469 56L48 77.4799L75.0238 355L371.652 345.549L439 315.477Z" fill="#E6EEF0"/>
<path d="M427.415 315.477L411.004 98.3283L285.804 56L59.5852 77.4799L85.0076 355L364.058 345.549L427.415 315.477Z" stroke="#82AAB5" stroke-width="3"/>
<path d="M164 139.657L208.5 42.6571L290 35.1571L312.5 92.6571L293.5 182.157L194 189.657L164 139.657Z" fill="#CDDDE1"/>
<path d="M222.028 34.0288L249.862 19.1122L277.004 41.5368L273.238 76.3393L245.649 88.8734L219.019 66.8719L222.028 34.0288Z" fill="#ECFF00"/>
<path d="M222.028 34.0288L249.862 19.1122L277.004 41.5368L273.238 76.3393L245.649 88.8734L219.019 66.8719L222.028 34.0288Z" fill="black" fill-opacity="0.4"/>
<path d="M219.094 26.8454L246.928 11.9288L274.07 34.3534L270.304 69.1559L242.715 81.69L216.085 59.6885L219.094 26.8454Z" fill="#ECFF00"/>
<path d="M252.185 30.4768L254.43 41.3723L263.05 48.4042L253.381 53.9061L249.357 64.2772L241.137 56.7821L230.03 56.1598L234.618 46.0256L231.777 35.27L242.833 36.5018L252.185 30.4768Z" fill="black" fill-opacity="0.4"/>
<path d="M324.463 147.997L310.462 114.894L280.866 111.598L258.399 141.053L268.53 171.764L302.883 175.375L324.463 147.997Z" fill="#ECFF00"/>
<path d="M324.463 147.997L310.462 114.894L280.866 111.598L258.399 141.053L268.53 171.764L302.883 175.375L324.463 147.997Z" fill="black" fill-opacity="0.4"/>
<path d="M321.529 140.814L307.528 107.71L277.932 104.415L255.465 133.869L265.596 164.581L299.949 168.192L321.529 140.814Z" fill="#ECFF00"/>
<path d="M293.378 119.193L295.623 130.089L304.243 137.12L294.574 142.622L290.55 152.993L282.33 145.498L271.223 144.876L275.811 134.742L272.97 123.986L284.026 125.218L293.378 119.193Z" fill="black" fill-opacity="0.4"/>
<path d="M226.496 155.875L192.358 169.328L168.802 150.109L174.216 112.68L203.844 98.1142L231.03 120.575L226.496 155.875Z" fill="#ECFF00"/>
<path d="M226.496 155.875L192.358 169.328L168.802 150.109L174.216 112.68L203.844 98.1142L231.03 120.575L226.496 155.875Z" fill="black" fill-opacity="0.4"/>
<path d="M223.562 148.691L189.424 162.145L165.868 142.926L171.282 105.497L200.91 90.9308L228.096 113.392L223.562 148.691Z" fill="#ECFF00"/>
<path d="M203.183 109.954L205.427 120.85L214.047 127.882L204.379 133.384L200.355 143.755L192.134 136.26L181.027 135.637L185.615 125.503L182.775 114.747L193.831 115.979L203.183 109.954Z" fill="black" fill-opacity="0.4"/>
<path d="M442.271 217.491L403.358 207.064L343.565 241.862L319.907 330.153L333.552 353.786L408.763 373.939L432.396 360.294L461.661 251.075L442.271 217.491Z" fill="#ECFF00"/>
<path d="M442.271 217.491L403.358 207.064L343.565 241.862L319.907 330.153L333.552 353.786L408.763 373.939L432.396 360.294L461.661 251.075L442.271 217.491Z" fill="black" fill-opacity="0.4"/>
<path d="M436.4 210.641L397.487 200.214L337.694 235.012L314.036 323.303L327.681 346.937L402.891 367.089L426.525 353.444L455.79 244.226L436.4 210.641Z" fill="#ECFF00"/>
<path d="M420.501 201.302L427.041 203.054L466.431 180.313L474.492 150.229L468.507 139.863L416.679 169.786L412.123 186.79L420.501 201.302Z" fill="#06566A"/>
<path d="M406.091 198.841L370.121 189.203L352.43 157.125L365.219 148.635L379.934 152.578L413.554 194.532L406.091 198.841Z" fill="#06566A"/>
<path d="M57.9092 241.287C56.8548 235.295 60.8572 229.583 66.8489 228.528L184.018 207.909C190.009 206.855 195.721 210.857 196.776 216.849L217.395 334.018C218.449 340.009 214.447 345.721 208.455 346.776L91.2865 367.395C85.2948 368.449 79.5828 364.447 78.5284 358.455L57.9092 241.287Z" fill="#06566A"/>
<path fill-rule="evenodd" clip-rule="evenodd" d="M108.152 242.169L92.287 244.961L92.287 244.961L88.3424 245.655L89.1745 250.384L93.1192 249.69L107.531 331.588L116.884 338.133L134.572 335.021L119.648 250.214L108.152 242.169Z" fill="#ECFF00"/>
<path fill-rule="evenodd" clip-rule="evenodd" d="M117.193 285.788L150.403 279.944L190.92 308.546L177.257 328.19L177.225 328.167L175.152 331.148L171.249 328.393L173.322 325.412L117.193 285.788Z" fill="#ECFF00"/>
<path fill-rule="evenodd" clip-rule="evenodd" d="M128.47 299.599L156.181 294.722L189.089 248.623L149.498 255.591L121.502 294.807L128.47 299.599Z" fill="#06566A"/>
<path fill-rule="evenodd" clip-rule="evenodd" d="M176.447 252.3L147.981 257.309L148.012 257.488L143.91 258.21L119.586 293.203L121.818 294.779L125.302 294.166L149.489 289.91L171.572 258.141L177.297 257.133L176.447 252.3Z" fill="#ECFF00"/>
</g>
<defs>
<clipPath id="clip0_1132_3597">
<rect width="538" height="377.81" fill="white"/>
</clipPath>
</defs>
</svg>
