<svg width="427" height="290" viewBox="0 0 427 290" fill="none" xmlns="http://www.w3.org/2000/svg">
<path d="M78.5491 70.8528L307.509 70.8528L312.371 73.706L334.345 146.179L93.3944 146.179L74.1892 82.8365L75.6771 74.562L78.5491 70.8528Z" fill="white"/>
<path d="M80.833 70.8523L307.509 70.8523L312.371 73.7056L334.345 146.179L103.672 146.179L80.833 70.8523Z" fill="#B4CCD2"/>
<path fill-rule="evenodd" clip-rule="evenodd" d="M102.235 87.0689L119.671 146.178L329.777 146.178L310.364 82.2651L107.041 82.2651L102.235 87.0689Z" fill="#E6EEF0"/>
<path d="M183.113 87.0874L97.0766 110.128L120.13 196.116L206.167 173.076L183.113 87.0874Z" fill="white"/>
<path d="M166.294 108.133L122.172 119.949L136.95 175.07L181.071 163.254L166.294 108.133Z" fill="#06566A" fill-opacity="0.25"/>
<path fill-rule="evenodd" clip-rule="evenodd" d="M136.282 128.814C138.065 128.337 139.132 126.543 138.667 124.808C138.202 123.072 136.381 122.053 134.598 122.53C132.817 123.007 131.749 124.801 132.214 126.536C132.68 128.271 134.501 129.291 136.282 128.814ZM149.804 123.697L165.302 136.758L150.977 140.594L142.918 142.752L136.987 144.341L141.362 132.692L145.364 135.982L149.804 123.697Z" fill="#06566A"/>
<path d="M169.35 141.581L136.259 150.442L137.441 154.852L170.532 145.99L169.35 141.581Z" fill="#06566A"/>
<path d="M171.125 148.194L138.034 157.056L139.216 161.466L172.307 152.604L171.125 148.194Z" fill="#06566A"/>
<path d="M164.072 157.172L139.805 163.671L140.988 168.08L165.254 161.582L164.072 157.172Z" fill="#06566A"/>
<path fill-rule="evenodd" clip-rule="evenodd" d="M95.6788 109.322L183.922 85.6904L207.566 173.884L119.323 197.515L95.6788 109.322ZM98.476 110.936L120.938 194.72L204.769 172.27L182.307 88.486L98.476 110.936Z" fill="#06566A"/>
<path d="M277.248 87.9717L188.176 87.9717V176.994H277.248V87.9717Z" fill="white"/>
<path d="M221.292 98.2434H209.872V101.667H221.292V98.2434Z" fill="#06566A"/>
<path d="M234.996 98.2434H223.577V101.667H234.996V98.2434Z" fill="#06566A"/>
<path d="M244.131 103.95H209.872V110.798H244.131V103.95Z" fill="#06566A"/>
<path d="M255.55 116.507H209.872V150.746H255.55V116.507Z" fill="#06566A"/>
<path fill-rule="evenodd" clip-rule="evenodd" d="M220.685 122.211V125.255V125.47H220.152H215.583V145.037H220.685H221.15H225.86H246.415H249.841V141.993V125.255V122.211H246.415H224.147H220.685ZM220.685 128.185V141.868H219.227V128.185H220.685ZM223.6 125.47H246.926V129.464H223.6V125.47ZM234.249 132.745H223.6V135.028H234.249V132.745ZM223.6 137.311H234.249V139.593H223.6V137.311ZM247.18 132.745H236.533V135.028H247.18V132.745ZM236.533 137.311H247.18V139.593H236.533V137.311Z" fill="white"/>
<path d="M255.55 156.451H209.872V160.446H255.55V156.451Z" fill="#06566A" fill-opacity="0.25"/>
<path d="M255.55 162.729H209.872V166.723H255.55V162.729Z" fill="#06566A" fill-opacity="0.25"/>
<path fill-rule="evenodd" clip-rule="evenodd" d="M187.034 86.8313L278.389 86.8313V178.136H187.034V86.8313ZM189.318 89.1139V175.853H276.105V89.1139L189.318 89.1139Z" fill="#06566A"/>
<path d="M351.194 108.989L265.158 85.948L242.104 171.937L328.141 194.977L351.194 108.989Z" fill="white"/>
<path d="M334.175 132.788L267.993 115.064L259.126 148.137L325.308 165.86L334.175 132.788Z" fill="#06566A"/>
<path d="M275.103 134.993L272.686 134.346L273.03 133.012L275.059 133.555C275.417 133.651 275.722 133.684 275.974 133.655C276.229 133.622 276.435 133.531 276.594 133.385C276.758 133.236 276.876 133.032 276.946 132.772C277.023 132.48 277.031 132.228 276.967 132.017C276.908 131.808 276.773 131.631 276.563 131.486C276.357 131.344 276.072 131.224 275.71 131.127L274.366 130.767L272.251 138.654L270.312 138.134L272.834 128.73L276.118 129.609C276.665 129.755 277.14 129.937 277.543 130.157C277.951 130.377 278.276 130.633 278.522 130.925C278.767 131.216 278.926 131.544 278.999 131.911C279.072 132.271 279.05 132.672 278.933 133.111C278.829 133.498 278.645 133.833 278.38 134.112C278.12 134.394 277.775 134.587 277.344 134.693C276.918 134.802 276.403 134.786 275.799 134.647L275.103 134.993ZM273.913 139.099L271.05 138.332L272.211 137.023L274.318 137.587C274.658 137.678 274.951 137.698 275.195 137.649C275.441 137.595 275.641 137.486 275.795 137.325C275.949 137.163 276.058 136.96 276.125 136.713C276.198 136.438 276.215 136.186 276.174 135.959C276.138 135.732 276.033 135.538 275.86 135.376C275.687 135.21 275.435 135.083 275.103 134.993L273.236 134.494L273.604 133.166L275.932 133.789L276.238 134.432C276.813 134.577 277.246 134.802 277.54 135.105C277.836 135.407 278.021 135.744 278.092 136.119C278.166 136.494 278.153 136.872 278.051 137.251C277.89 137.854 277.622 138.326 277.248 138.67C276.876 139.009 276.408 139.213 275.844 139.284C275.284 139.356 274.64 139.294 273.913 139.099ZM286.484 132.386L288.417 132.903L286.75 139.117C286.556 139.839 286.238 140.408 285.795 140.82C285.356 141.233 284.832 141.492 284.222 141.596C283.617 141.702 282.963 141.661 282.26 141.473C281.558 141.284 280.967 140.992 280.487 140.596C280.011 140.201 279.684 139.714 279.506 139.136C279.334 138.559 279.344 137.908 279.538 137.185L281.204 130.972L283.143 131.49L281.477 137.704C281.364 138.126 281.338 138.488 281.4 138.792C281.462 139.094 281.601 139.342 281.817 139.534C282.039 139.726 282.321 139.869 282.666 139.962C283.019 140.056 283.335 140.073 283.615 140.014C283.898 139.956 284.14 139.811 284.341 139.579C284.545 139.348 284.705 139.021 284.818 138.599L286.484 132.386ZM294.22 134.457L291.699 143.861L289.766 143.344L292.288 133.939L294.22 134.457ZM297.116 135.232L296.709 136.75L289.031 134.694L289.437 133.177L297.116 135.232ZM302.532 136.683L300.011 146.088L298.077 145.57L300.6 136.166L302.532 136.683ZM305.427 137.458L305.02 138.975L297.342 136.92L297.75 135.402L305.427 137.458ZM312.879 144.259L312.761 144.704C312.569 145.419 312.299 146.034 311.953 146.551C311.607 147.067 311.203 147.479 310.743 147.785C310.284 148.087 309.78 148.277 309.232 148.356C308.688 148.437 308.12 148.398 307.525 148.238C306.934 148.081 306.422 147.83 305.988 147.487C305.557 147.146 305.216 146.73 304.965 146.238C304.714 145.741 304.566 145.182 304.52 144.561C304.479 143.94 304.555 143.273 304.746 142.558L304.865 142.112C305.058 141.393 305.328 140.778 305.673 140.265C306.019 139.748 306.422 139.337 306.883 139.031C307.348 138.727 307.852 138.534 308.395 138.454C308.943 138.374 309.512 138.414 310.102 138.571C310.697 138.731 311.21 138.981 311.64 139.322C312.074 139.665 312.415 140.084 312.661 140.579C312.911 141.075 313.056 141.634 313.099 142.254C313.145 142.871 313.072 143.54 312.879 144.259ZM310.802 144.18L310.924 143.721C311.059 143.221 311.131 142.77 311.142 142.367C311.154 141.963 311.105 141.61 310.997 141.304C310.89 140.998 310.727 140.747 310.507 140.549C310.289 140.347 310.016 140.204 309.689 140.116C309.361 140.028 309.053 140.016 308.763 140.081C308.478 140.144 308.212 140.281 307.967 140.492C307.725 140.705 307.509 140.988 307.316 141.343C307.124 141.697 306.961 142.124 306.827 142.624L306.704 143.082C306.571 143.577 306.499 144.029 306.487 144.437C306.475 144.84 306.523 145.197 306.629 145.506C306.737 145.812 306.9 146.065 307.118 146.267C307.336 146.468 307.609 146.613 307.937 146.701C308.265 146.789 308.573 146.8 308.863 146.734C309.153 146.669 309.419 146.53 309.66 146.318C309.903 146.102 310.12 145.815 310.312 145.462C310.506 145.102 310.668 144.675 310.802 144.18ZM323.136 142.201L320.615 151.605L318.676 151.086L316.585 143.769L314.895 150.074L312.956 149.554L315.477 140.15L317.416 140.669L319.512 147.994L321.204 141.683L323.136 142.201Z" fill="#ECFF00"/>
<path fill-rule="evenodd" clip-rule="evenodd" d="M264.35 84.5481L352.593 108.179L328.948 196.373L240.706 172.742L264.35 84.5481ZM265.965 87.3437L243.503 171.127L327.333 193.577L349.796 109.794L265.965 87.3437Z" fill="#06566A"/>
<path d="M108.24 157.592L345.765 157.592V239.195L332.632 252.32L119.66 252.32C113.354 252.32 108.24 247.211 108.24 240.907V157.592Z" fill="#E6EEF0"/>
<path d="M108.24 157.592H134.505L345.765 157.592V167.864L134.505 167.864L123.656 188.407L108.24 238.265V217.868V157.592Z" fill="#B4CCD2"/>
<path d="M103.672 146.179L345.145 146.179L350.332 149.603V159.875L105.385 159.875L103.672 157.593V146.179Z" fill="#E6EEF0"/>
<path d="M103.672 146.179L345.145 146.179L350.332 149.603L107.098 151.315L105.385 159.875L103.672 157.593V146.179Z" fill="#9BBBC3"/>
<path d="M181.325 143.897H191.602L196.17 149.033V172.429H181.325V143.897Z" fill="#CDDDE1"/>
<path d="M181.325 143.897H191.602L184.179 151.315V172.429H181.325V143.897Z" fill="#B4CCD2"/>
<path d="M257.834 143.897H268.112L272.68 149.033V172.429H257.834V143.897Z" fill="#CDDDE1"/>
<path d="M257.834 143.897H268.112L260.689 151.315V172.429H257.834V143.897Z" fill="#B4CCD2"/>
</svg>
