<svg viewBox="0 0 538 378" fill="none" xmlns="http://www.w3.org/2000/svg">
<path d="M413.613 334.278L483.992 182.948L272.856 38.9999L51 126.529L141.42 308.968L413.613 334.278Z" fill="#E6EEF0"/>
<path d="M417.157 338L487.714 186.59L288.66 45.2033L55.9626 140.164L134.93 320.59L417.157 338Z" stroke="#6A9AA6" stroke-width="3"/>
<path d="M304.528 85.1376H251.425L187.167 149.731V270.009L212.603 295.402H315.237L340.673 270.009V121.221L304.528 85.1376Z" fill="#ECFF00"/>
<path d="M212.322 205.104L230.381 144.153L269.725 118.677" stroke="white" stroke-width="30"/>
<path d="M235.494 93.0718L191.037 137.523V259.335L224.379 292.246L301.751 303.786L330.391 276.004L336.803 118.289L307.735 89.6525L235.494 93.0718Z" stroke="#065669" stroke-opacity="0.4" stroke-width="2"/>
<path d="M227.801 294.757H305.199L300.039 308.946V330.231L291.332 337.325H237.476L230.381 330.231V302.819L227.801 294.757Z" fill="#06566A"/>
<path d="M230.704 319.588L247.473 317.976L285.849 319.588L300.039 317.976" stroke="#518997" stroke-width="5"/>
<path d="M230.704 309.269L243.926 307.656L287.784 309.269L300.039 307.656" stroke="#518997" stroke-width="5"/>
<path d="M230.704 329.908L263.92 326.361L293.912 329.908L300.039 328.296" stroke="#518997" stroke-width="5"/>
<path d="M238.121 337.325H289.074V340.661L287.553 345.332L284.892 347H244.585L241.923 345.332L238.121 337.325Z" fill="#387888"/>
</svg>
