<svg width="427" height="290" viewBox="0 0 427 290" fill="none" xmlns="http://www.w3.org/2000/svg">
<path d="M134.083 228.126H185.845L172.223 263.349H144.98L134.083 253.209V228.126Z" fill="#B4CCD2"/>
<path d="M134.083 228.126H142.388V250.116L149.976 263.349H144.98L134.083 253.209V228.126Z" fill="#9BBBC3"/>
<path d="M244.974 227.951H291.151V263.37H261.619L253.565 254.315L244.974 227.951Z" fill="#B4CCD2"/>
<path d="M244.973 227.952H257.14L261.618 254.315L267.718 263.37H261.618L253.564 254.315L244.973 227.952Z" fill="#9BBBC3"/>
<path d="M116.105 99.6926H293.94L326.051 120.25V220.227L312.808 233.855H116.105L116.105 99.6926Z" fill="#6A9AA6"/>
<path d="M110.735 94.3262H288.571L320.682 114.883V214.861L307.439 228.488H110.735L110.735 94.3262Z" fill="#E6EEF0"/>
<path d="M110.735 94.3262H289.334L246.331 97.7371L126.06 101.414L126.06 203.461L117.322 210.356L110.735 220.699L110.735 94.3262Z" fill="#B4CCD2"/>
<path d="M262.424 122.766H102.145V197.942V201.125L107.511 206.483H112.263H282.022V138.597L262.424 122.766Z" fill="#82AAB5"/>
<path d="M102.145 122.766H261.887L276.653 137.524V201.116H106.974L102.145 197.023V122.766Z" fill="#9BBBC3"/>
<path d="M132.215 82.5173H164.432V94.3236H132.215V82.5173Z" fill="#E6EEF0"/>
<path d="M132.215 82.5173H164.432L135.95 85.5534V94.3236H132.215V82.5173Z" fill="#9BBBC3"/>
<path d="M130.067 61.0519H172.485V82.5178H124.16V67.4917L130.067 61.0519Z" fill="#9BBBC3"/>
<path d="M130.067 61.0519H172.485L131.351 65.3285L128.131 70.3849L124.16 82.5178V67.4917L130.067 61.0519Z" fill="#82AAB5"/>
<path d="M161.581 148.612H233.621L247.162 161.605V174.597H161.581V148.612Z" fill="#518997"/>
<path d="M159.281 146.312H231.321L244.863 159.305V172.297H159.281V146.312Z" fill="#1F6779"/>
<path d="M187.691 155.651H231.154L229.084 164.845H189.071L187.691 155.651Z" fill="#ECFF00"/>
<path d="M187.691 155.651H231.154L229.084 164.845H189.071L187.691 155.651Z" fill="#06566A" fill-opacity="0.3"/>
<path d="M175.273 155.651H216.437L214.367 164.845H176.653L175.273 155.651Z" fill="#ECFF00"/>
<path d="M141.947 141.818H131.38L126.781 146.456V156.976L128.621 158.815H143.787V143.657L141.947 141.818Z" fill="#518997"/>
<path d="M131.38 141.818H141.947V156.976H126.781V146.456L131.38 141.818Z" fill="#1F6779"/>
<path d="M141.947 163.474H126.781V178.632L128.621 180.471H139.423L143.787 176.337V165.313L141.947 163.474Z" fill="#518997"/>
<path d="M126.781 163.474H141.947V174.498L137.584 178.632H126.781V163.474Z" fill="#1F6779"/>
<path d="M266.979 51.7045L254.908 42.7538L242.837 68.0492L251.403 71.1625L243.616 89.0639L265.032 64.5468L254.908 63.7685L266.979 51.7045Z" fill="#ECFF00"/>
<path d="M200.806 43.7571L187.015 49.7294L202.899 72.8249L209.879 66.967L221.497 82.6582L210.961 51.8633L205.225 60.2368L200.806 43.7571Z" fill="#ECFF00"/>
</svg>
