<svg width="427" height="290" viewBox="0 0 427 290" fill="none" xmlns="http://www.w3.org/2000/svg">
<g clip-path="url(#clip0_1422_3643)">
<path d="M158.759 164.485L232.678 176.201L260.791 204.302L260.644 204.921L261.836 206.113L249.914 256.367L202.058 278.149L151.973 259.729L151.374 258.083L150.927 257.918L147.949 249.729L161.171 236.513L159.252 216.437L142.855 207.803L126.842 207.805L125.797 205.994L127.847 189.429L158.759 164.485Z" fill="#06566A"/>
<path d="M232.678 176.201L158.759 164.485L127.847 189.429L125.796 205.994L141.809 205.992L159.125 215.11L161.17 236.513L147.949 249.729L150.927 257.918L201.012 276.338L248.868 254.556L260.79 204.302L232.678 176.201Z" fill="#CDDDE1"/>
<path d="M232.675 176.201L158.757 164.485L127.846 189.428L125.796 205.992L141.808 205.991L159.123 215.108L161.169 236.511L147.948 249.727L150.926 257.916L168.839 253.418L177.693 230.058L157.588 201.163L167.866 175.452L232.675 176.201Z" fill="#B4CCD2"/>
<path d="M170.071 188.44L175.284 196.627L167.834 204.073L160.015 196.258L165.602 188.813L170.071 188.44Z" fill="#06566A"/>
<path d="M189.751 177.644L181.137 182.131L183.862 192.298L194.547 189.435L193.435 180.198L189.751 177.644Z" fill="#387888"/>
<path d="M218.233 186.624L214.617 195.635L204.225 193.932L206.018 183.022L215.325 183.213L218.233 186.624Z" fill="#518997"/>
<path d="M226.445 201.714L236.156 201.884L238.257 212.198L227.418 214.406L224.289 205.644L226.445 201.714Z" fill="#82AAB5"/>
<path d="M225.17 236.862L231.149 229.211L240.657 233.735L235.9 243.717L227.014 240.947L225.17 236.862Z" fill="#B4CCD2"/>
<path d="M165.234 220.084L161.96 235.803L195.257 251.36L201.895 234.473L190.085 226.52L179.97 225.868L174.271 220.313L165.234 220.084Z" fill="#ECFF00"/>
<path d="M169.303 228.731L165.349 238.791M178.841 228.742L174.656 236.223L174.334 242.318M188.121 233.629L185.438 240.455L181.523 245.139M194.668 237.027L190.662 250.385" stroke="#06566A" stroke-opacity="0.2" stroke-width="2"/>
<path d="M157.11 274.246L167.315 256.645L174.793 259.58L162.801 283.817L154.611 280.603L157.11 274.246Z" fill="#82AAB5"/>
<path d="M163.582 275.776L172.427 258.949L174.793 259.583L162.801 283.819L159.877 282.671L162.344 280.394L163.582 275.776Z" fill="#6A9AA6"/>
<path d="M189.393 265.314L174.792 259.584L167.314 256.648L154.753 248.864L160.306 234.735L199.124 249.971L189.393 265.314Z" fill="#E6EEF0"/>
<path d="M189.393 265.313L174.792 259.582L167.313 256.647L154.752 248.863L160.306 234.734L162.079 235.209L158.763 247.571L189.393 265.313Z" fill="#06566A" fill-opacity="0.1"/>
<path d="M201.431 227.259L196.006 284.946L199.314 285.831L207.77 228.957L201.431 227.259Z" fill="#B4CCD2"/>
<path d="M207.771 228.957L204.85 232.687L198.622 283.609L196.007 284.946L199.315 285.831L207.771 228.957Z" fill="#9BBBC3"/>
<path d="M200.609 227.332L208.83 228.443L208.549 232.219L206.36 232.722L201.72 232.135L200.019 231.025L200.609 227.332Z" fill="#E6EEF0"/>
<path d="M206.508 228.802L208.83 228.444L208.549 232.219L206.359 232.723L206.632 231.706L206.199 229.957L206.508 228.802Z" fill="#E6EEF0"/>
<path d="M200.289 222.561L201.6 228.106L207.768 228.958L209.986 225.157L207.156 220.803L207.464 213.692L205.3 214.312L200.289 222.561Z" fill="#ECFF00"/>
<path d="M219.61 85.6234V83.067H222.749L230.139 32.9546H234.963L243.502 83.067H247.062V85.6234H230.598V83.067H233.623L229.45 53.2176H229.565L225.506 83.067H228.148V85.6234H219.61ZM225.506 75.6234V73.255H233.776V75.6234H225.506Z" fill="white"/>
<path d="M257.859 86.4128C256.174 86.4128 254.643 86.0244 253.264 85.2474C251.886 84.4454 250.776 83.3051 249.933 81.8264C249.117 80.3227 248.708 78.5307 248.708 76.4505C248.708 74.0445 249.219 72.0646 250.24 70.5107C251.286 68.9318 252.563 67.616 254.069 66.5634C255.6 65.4857 257.119 64.5333 258.625 63.7062C260.156 62.8792 261.433 62.002 262.454 61.0747C263.5 60.1474 264.023 59.0196 264.023 57.6912C264.023 55.8867 263.87 54.3078 263.564 52.9544C263.258 51.6011 262.773 50.561 262.109 49.8342C261.471 49.1073 260.629 48.7439 259.582 48.7439C258.357 48.7439 257.349 49.0823 256.557 49.759C255.766 50.4106 255.37 51.2001 255.37 52.1274C255.37 52.779 255.511 53.3429 255.791 53.8191C256.072 54.2702 256.353 54.7589 256.634 55.2852C256.915 55.8116 257.055 56.5008 257.055 57.3529C257.055 58.5559 256.723 59.5083 256.06 60.21C255.396 60.9118 254.515 61.2626 253.418 61.2626C252.295 61.2626 251.388 60.799 250.699 59.8717C250.035 58.9193 249.704 57.6411 249.704 56.0371C249.704 54.0822 250.201 52.3404 251.197 50.8116C252.218 49.2577 253.609 48.0422 255.37 47.165C257.132 46.2628 259.148 45.8116 261.42 45.8116C263.692 45.8116 265.708 46.2753 267.469 47.2026C269.256 48.1049 270.66 49.5585 271.681 51.5635C272.702 53.5434 273.213 56.1624 273.213 59.4206V79.7588C273.213 81.0119 273.315 81.864 273.519 82.3151C273.749 82.7412 274.106 82.9542 274.591 82.9542C275.05 82.9542 275.433 82.8414 275.74 82.6159C276.072 82.3652 276.327 82.1522 276.505 81.9768L277.96 83.9692C277.552 84.4956 276.761 85.0093 275.587 85.5106C274.412 86.0118 273.008 86.2625 271.375 86.2625C269.792 86.2625 268.541 86.0494 267.623 85.6234C266.704 85.1973 266.027 84.671 265.593 84.0444C265.159 83.3928 264.879 82.7788 264.751 82.2023C264.649 82.5532 264.355 83.067 263.87 83.7437C263.411 84.4204 262.696 85.0344 261.726 85.5858C260.756 86.1371 259.467 86.4128 257.859 86.4128ZM260.922 82.3903C261.56 82.3903 262.109 82.1272 262.569 81.6008C263.028 81.0495 263.385 80.3728 263.641 79.5708C263.896 78.7437 264.023 77.9167 264.023 77.0896V62.5408C263.921 63.2426 263.564 63.9193 262.951 64.5709C262.339 65.2225 261.65 65.9869 260.884 66.8641C260.144 67.7162 259.48 68.819 258.893 70.1724C258.331 71.5257 258.051 73.255 258.051 75.3603C258.051 77.666 258.306 79.4204 258.816 80.6234C259.327 81.8013 260.029 82.3903 260.922 82.3903Z" fill="white"/>
<path d="M280.907 132.021H261.652L258.379 142.976H252.603L266.209 98.9036H276.35L289.957 142.976H284.18L280.907 132.021ZM270.895 101.17L263.128 127.11H279.431L271.665 101.17H270.895Z" fill="white"/>
<path d="M319.629 137.687H318.858C317.831 139.786 316.398 141.339 314.558 142.346C312.761 143.353 310.857 143.857 308.846 143.857C306.749 143.857 304.802 143.521 303.005 142.85C301.208 142.136 299.625 141.108 298.256 139.765C296.929 138.38 295.881 136.701 295.111 134.728C294.341 132.755 293.956 130.468 293.956 127.865V126.858C293.956 124.297 294.341 122.031 295.111 120.058C295.881 118.085 296.929 116.427 298.256 115.084C299.625 113.699 301.208 112.65 303.005 111.936C304.802 111.223 306.706 110.866 308.718 110.866C310.9 110.866 312.868 111.349 314.622 112.314C316.419 113.237 317.831 114.686 318.858 116.658H319.629V111.747H324.635V136.554C324.635 137.813 325.212 138.443 326.368 138.443H327.972V142.976H324.571C323.116 142.976 321.918 142.514 320.976 141.591C320.078 140.667 319.629 139.492 319.629 138.065V137.687ZM309.359 139.198C310.857 139.198 312.226 138.925 313.467 138.38C314.751 137.834 315.842 137.057 316.74 136.05C317.639 135.043 318.345 133.846 318.858 132.461C319.372 131.034 319.629 129.46 319.629 127.739V126.984C319.629 125.305 319.372 123.773 318.858 122.388C318.345 120.961 317.617 119.743 316.676 118.736C315.778 117.729 314.686 116.952 313.403 116.406C312.162 115.819 310.814 115.525 309.359 115.525C307.862 115.525 306.493 115.798 305.252 116.344C304.011 116.889 302.92 117.666 301.978 118.673C301.08 119.638 300.374 120.835 299.86 122.262C299.347 123.647 299.09 125.179 299.09 126.858V127.865C299.09 131.433 300.032 134.224 301.914 136.239C303.84 138.212 306.321 139.198 309.359 139.198Z" fill="white"/>
<path d="M302.535 184.981L298.052 172.307L293.57 184.981H302.535ZM305.184 192.504H290.921L288.628 199.118H277.982L292.602 161.048H303.503L318.123 199.118H307.476L305.184 192.504Z" fill="white"/>
<path d="M330.034 186.092C330.034 186.933 330.187 187.724 330.493 188.465C330.799 189.172 331.206 189.794 331.715 190.333C332.259 190.871 332.887 191.292 333.6 191.595C334.347 191.898 335.145 192.05 335.994 192.05C336.81 192.05 337.574 191.898 338.287 191.595C339.034 191.292 339.662 190.871 340.172 190.333C340.715 189.794 341.139 189.172 341.445 188.465C341.785 187.758 341.955 187 341.955 186.193C341.955 185.385 341.785 184.627 341.445 183.92C341.139 183.18 340.715 182.54 340.172 182.002C339.662 181.463 339.034 181.042 338.287 180.739C337.574 180.436 336.81 180.285 335.994 180.285C335.145 180.285 334.347 180.436 333.6 180.739C332.887 181.042 332.259 181.463 331.715 182.002C331.206 182.54 330.799 183.163 330.493 183.87C330.187 184.543 330.034 185.284 330.034 186.092ZM341.649 173.216H350.92V199.118H341.649V196.24C339.679 198.698 337.013 199.926 333.651 199.926C331.749 199.926 330 199.59 328.404 198.917C326.808 198.21 325.416 197.233 324.227 195.988C323.039 194.743 322.105 193.278 321.425 191.595C320.78 189.912 320.458 188.078 320.458 186.092C320.458 184.24 320.78 182.49 321.425 180.84C322.071 179.157 322.971 177.693 324.125 176.448C325.28 175.202 326.655 174.226 328.251 173.519C329.848 172.779 331.614 172.408 333.549 172.408C336.81 172.408 339.509 173.536 341.649 175.791V173.216Z" fill="white"/>
<path d="M182.81 89.1477L155.264 40.5641L127.718 89.1477H182.81Z" fill="#4A5CFF"/>
<path fill-rule="evenodd" clip-rule="evenodd" d="M101.792 84.2894C112.531 84.2894 121.236 75.5887 121.236 64.8559C121.236 54.1231 112.531 45.4225 101.792 45.4225C91.0531 45.4225 82.3476 54.1231 82.3476 64.8559C82.3476 75.5887 91.0531 84.2894 101.792 84.2894ZM126.097 64.8559C126.097 78.2719 115.215 89.1477 101.792 89.1477C88.3684 89.1477 77.4865 78.2719 77.4865 64.8559C77.4865 51.4399 88.3684 40.5641 101.792 40.5641C115.215 40.5641 126.097 51.4399 126.097 64.8559Z" fill="#FF0099"/>
<path fill-rule="evenodd" clip-rule="evenodd" d="M82.5019 105.086V134.573H177.795V105.086H82.5019ZM77.4865 100.172H182.81V139.487H77.4865V100.172Z" fill="#FFB800"/>
</g>
<defs>
<clipPath id="clip0_1422_3643">
<rect width="427" height="290" fill="white"/>
</clipPath>
</defs>
</svg>
