<svg width="538" height="378" viewBox="0 0 538 378" fill="none" xmlns="http://www.w3.org/2000/svg">
<path d="M424 25L499.5 168.5L267.5 356.5L35 222L132 49L424 25Z" fill="#E6EEF0"/>
<path d="M427 22L502.5 165.5L285.5 354.5L40.5 209.5L125 38.5L427 22Z" stroke="#6A9AA6" stroke-width="3"/>
<path d="M131.922 225.241L132.877 221.678C136.222 209.472 139.916 200.017 143.959 193.314C148.071 186.629 152.787 181.603 158.106 178.237C163.426 174.87 169.471 172.147 176.243 170.069C181.323 168.435 185.976 166.575 190.204 164.488C194.432 162.401 198.046 159.813 201.045 156.723C204.063 153.564 206.18 149.714 207.397 145.173C208.688 140.353 208.668 135.818 207.336 131.567C206.004 127.317 203.644 123.69 200.256 120.686C196.938 117.7 192.939 115.58 188.259 114.326C183.718 113.11 179.15 112.971 174.556 113.912C169.98 114.782 165.876 116.827 162.243 120.046C158.629 123.196 155.949 127.607 154.205 133.279L111.453 121.823C115.545 107.945 121.987 97.3176 130.777 89.9396C139.586 82.4917 149.829 77.9362 161.506 76.273C173.201 74.54 185.37 75.3675 198.015 78.7555C211.916 82.4804 223.593 88.0801 233.046 95.5545C242.517 102.959 249.131 111.807 252.888 122.097C256.644 132.388 256.885 143.646 253.609 155.871C251.419 164.044 248.11 170.944 243.682 176.571C239.343 182.147 234.108 186.734 227.978 190.333C221.866 193.861 215.003 196.702 207.388 198.854C200.99 200.659 195.532 202.865 191.015 205.473C186.567 208.1 182.843 211.519 179.843 215.732C176.912 219.963 174.495 225.492 172.59 232.32L171.636 235.882L131.922 225.241ZM134.7 297.863C127.715 295.991 122.397 291.946 118.747 285.727C115.186 279.457 114.367 272.873 116.29 265.976C118.055 259.111 122.037 253.889 128.237 250.309C134.508 246.748 141.135 245.904 148.121 247.775C154.758 249.554 159.935 253.562 163.655 259.799C167.374 266.037 168.352 272.588 166.587 279.453C165.282 284.045 162.927 287.943 159.522 291.149C156.206 294.304 152.353 296.528 147.963 297.823C143.592 299.047 139.171 299.061 134.7 297.863Z" fill="#04323E"/>
<path d="M446.773 153.63C449.441 175.31 441.688 196.136 427.073 212.078L446.773 260.976L395.587 234.027C387.607 237.375 378.955 239.717 369.817 240.841C322.112 246.711 279.22 217.182 274.016 174.886C268.812 132.591 303.266 93.5449 350.972 87.6752C398.677 81.8055 441.569 111.335 446.773 153.63Z" fill="#CDDDE1"/>
<path d="M400.032 232.909L399.246 232.534L398.435 232.854C389.833 236.25 380.514 238.66 370.679 239.87C319.157 246.209 273.935 217.297 268.879 176.208C263.823 135.12 300.688 96.1078 352.211 89.7685C403.733 83.4292 448.955 112.341 454.011 153.43C456.606 174.523 448.21 194.997 432.412 210.857L431.458 211.814L431.991 213.056L450.912 257.214L400.032 232.909Z" stroke="#06566A" stroke-width="4"/>
</svg>
