<svg width="538" height="378" viewBox="0 0 538 378" fill="none" xmlns="http://www.w3.org/2000/svg">
<path d="M413.613 334.278L483.992 182.948L272.856 38.9999L51 126.529L141.42 308.968L413.613 334.278Z" fill="#E6EEF0"/>
<path d="M417.157 338L487.714 186.59L288.66 45.2033L55.9626 140.164L134.93 320.59L417.157 338Z" stroke="#6A9AA6" stroke-width="3"/>
<path d="M244.868 320L181.116 303.621H78L151.165 97.3285H293.645L425 79L412.592 303.621C345.421 317.632 312.039 305.989 244.868 320Z" fill="#06566A"/>
<path d="M250.425 314L187.224 297.893H85L157.533 95.0243H298.781L429 77L416.699 297.893C350.109 311.672 317.016 300.222 250.425 314Z" fill="#B4CCD2"/>
<path d="M247.403 307L188.795 291.845H94L161.261 100.96H292.244L413 84L401.593 291.845C339.842 304.809 309.154 294.036 247.403 307Z" fill="white"/>
<path d="M157.903 186.407L175.678 139.183H258.168L236.748 191.172L157.903 186.407Z" fill="#06566A"/>
<path d="M298.357 189.276L303.49 146.528L387.481 141V189.276H298.357Z" fill="#06566A"/>
<path fill-rule="evenodd" clip-rule="evenodd" d="M163.474 215.301V206.406L221.418 212.59L219.162 221.194L163.474 215.301ZM158.646 235.887V226.992L215.834 231.658V240.553L158.646 235.887Z" fill="#06566A"/>
<path fill-rule="evenodd" clip-rule="evenodd" d="M372.068 215.397L372.299 206.506L306.12 211.667L306.314 220.287L372.068 215.397ZM370.319 237.68L370.549 228.788L303.251 232.327L303.02 241.218L370.319 237.68Z" fill="#06566A"/>
<path d="M247.403 307L292.244 100.96" stroke="#B4CCD2" stroke-width="4"/>
</svg>
