<svg width="538" height="378" viewBox="0 0 538 378" fill="none" xmlns="http://www.w3.org/2000/svg">
<path d="M69.4512 304.273L87.52 56.622L225.372 8.3479L474.451 32.845L446.46 349.348L139.211 338.569L69.4512 304.273Z" fill="#E6EEF0"/>
<path d="M81.4512 304.273L98.4493 56.6221L228.132 8.34802L462.451 32.8451L436.119 349.348L147.077 338.569L81.4512 304.273Z" stroke="#82AAB5" stroke-width="3"/>
<path d="M354.237 57.1114L373.928 46.9086L387.481 67.0124L474.515 40.7829L490.706 195.975L366.142 289.007L308.35 287.275L304.201 273.506L294.49 225.94L318.97 210.381L309.142 177.772L286.851 169.905L258.325 105.937L259.303 105.642L349.217 78.5442L354.237 57.1114Z" fill="#06566A"/>
<path d="M259.303 105.642L258.325 105.937L254.085 107.214L259.303 105.642Z" fill="#06566A"/>
<path opacity="0.35" d="M354.237 57.1114L373.928 46.9086L387.481 67.0124L474.515 40.7829L490.706 195.975L366.142 289.007L308.35 287.275L304.201 273.506L294.49 225.94L318.97 210.381L309.142 177.772L286.851 169.905L258.325 105.937L349.217 78.5442L354.237 57.1114Z" fill="black"/>
<path d="M346.982 46.0958L366.673 35.8929L380.227 55.9968L467.26 29.7673L483.452 184.959L358.888 277.991L301.096 276.26L296.946 262.49L287.236 214.924L311.715 199.366L301.888 166.756L279.597 158.889L251.07 94.9211L341.962 67.5286L346.982 46.0958Z" fill="#06566A"/>
<path d="M94.4776 126.324L114.459 115.971L128.618 136.971L220.099 109.401L249.047 174.315L271.668 182.298L281.64 215.39L256.799 231.179L269.497 293.379L89.8271 287.997L18.1948 170.25L89.2015 148.85L94.4776 126.324Z" fill="#ECFF00"/>
<path d="M94.4776 126.324L114.459 115.971L128.618 136.971L220.099 109.401L249.047 174.315L271.668 182.298L281.64 215.39L256.799 231.179L269.497 293.379L89.8271 287.997L18.1948 170.25L89.2015 148.85L94.4776 126.324Z" fill="black" fill-opacity="0.2"/>
<path d="M83.2638 119.83L103.246 109.476L117.404 130.477L208.885 102.907L237.834 167.821L260.454 175.804L270.427 208.895L245.585 224.684L258.284 286.885L78.6133 281.502L6.98091 163.755L77.9877 142.356L83.2638 119.83Z" fill="#ECFF00"/>
</svg>
