<?xml version="1.0" encoding="utf-8"?>
<!-- Generator: Adobe Illustrator 26.0.3, SVG Export Plug-In . SVG Version: 6.00 Build 0)  -->
<svg version="1.1" id="Ebene_1" xmlns="http://www.w3.org/2000/svg" xmlns:xlink="http://www.w3.org/1999/xlink" x="0px" y="0px"
	 viewBox="0 0 364 60" style="enable-background:new 0 0 364 60;" xml:space="preserve">
<style type="text/css">
	.st0{fill:#FFFFFF;}
</style>
<path class="st0" d="M95.7,44.9l5.6,8.1h9.3L101,39.2l8.8-9.5h-9.3l-8.1,8.7V18.9h-7.8V53h7.8v-4.6L95.7,44.9z"/>
<path class="st0" d="M117.4,26.1c2.5,0,4.6-1.9,4.6-4.4c0-2.5-2.1-4.4-4.6-4.4c-2.5,0-4.6,1.9-4.6,4.4
	C112.8,24.2,114.8,26.1,117.4,26.1z M121.3,29.7h-7.8V53h7.8V29.7z"/>
<path class="st0" d="M138.3,47c-3.3,0-5.3-2.4-5.3-5.6c0-3.2,2-5.6,5.3-5.6c2.4,0,4.2,1.4,4.6,3.5h7.3c-0.5-6-5.5-10.1-11.9-10.1
	c-7.3,0-12.7,5.1-12.7,12.1c0,7.1,5.4,12.2,12.7,12.2c6.4,0,11.4-4.1,11.9-10.1h-7.3C142.4,45.6,140.7,47,138.3,47z"/>
<path class="st0" d="M165.3,44.9l5.6,8.1h9.3l-9.6-13.8l8.8-9.5h-9.3l-8.1,8.7V18.9h-7.8V53h7.8v-4.6L165.3,44.9z"/>
<path class="st0" d="M180.7,45c0.5,6.2,5.4,8.7,11.5,8.7c6,0,10.9-2.5,10.9-7.9c0-4.1-2.9-6.2-7.2-7.1l-4.4-0.7
	c-1.8-0.3-2.4-1.1-2.4-1.8c0-0.9,0.9-1.7,2.9-1.7c2.2,0,3.8,0.8,3.9,2.6h6.9c-0.3-6.1-6-8.1-10.9-8.1c-6.2,0-10.4,2.9-10.4,7.8
	c0,4.1,2.8,6.3,6.8,7l4.7,0.8c1.5,0.2,2.3,0.9,2.3,1.6c0,1-1.2,1.6-3.3,1.6c-2.4,0-4.1-0.9-4.5-2.9L180.7,45z"/>
<path class="st0" d="M225.2,46c-1.7,0.3-3,0.6-4.1,0.6c-2.3,0-3.6-1.2-3.6-3.5v-6.7h7.9v-6.7h-7.9v-7.9h-7.8v7.9h-4.6v6.7h4.6v6.9
	c0,6.3,3.7,10.4,9.4,10.4c2.3,0,4-0.2,7.1-1.2L225.2,46z"/>
<path class="st0" d="M253.8,29.7h-7.8V31c-1.7-1.1-3.8-1.8-6.4-1.8c-6.3,0-11.6,5.2-11.6,12.1c0,6.9,5.3,12.1,11.6,12.1
	c2.5,0,4.7-0.7,6.4-1.8V53h7.8V29.7z M241.2,47.1c-3.2,0-5.5-2.5-5.5-5.8c0-3.2,2.3-5.8,5.5-5.8c1.7,0,3.4,0.5,4.8,2.2v7.2
	C244.6,46.6,242.9,47.1,241.2,47.1z"/>
<path class="st0" d="M274.9,29.3c-3.5,0-6,1.1-8,2.9v-2.5h-7.8V53h7.8V39.7c1.8-1.8,4.2-2.8,8-3V29.3z"/>
<path class="st0" d="M296.9,46c-1.7,0.3-3,0.6-4.1,0.6c-2.3,0-3.6-1.2-3.6-3.5v-6.7h7.9v-6.7h-7.9v-7.9h-7.8v7.9h-4.6v6.7h4.6v6.9
	c0,6.3,3.7,10.4,9.4,10.4c2.3,0,4-0.2,7.1-1.2L296.9,46z"/>
<path class="st0" d="M301.9,20.4V53h13.2c10.2,0,17.6-6.7,17.6-16.4c0-9.6-7.4-16.2-17.6-16.2H301.9z M310,45.7v-18h5
	c5.3,0,9.4,3.9,9.4,8.9c0,5.2-4.1,9.1-9.4,9.1H310z"/>
<path class="st0" d="M349.7,19.6c-7.7,0-13,4.1-13,10.7c0,5.2,3,8.2,9.5,9.6l5.4,1.2c2.8,0.5,3.5,1.7,3.5,2.8c0,1.8-1.6,2.9-4.6,2.9
	c-3.8,0-6.3-1.7-6.9-4.6h-8.1c0.8,8.1,7.4,11.5,14.7,11.5c8.2,0,13.5-4.1,13.5-10.6c0-5.6-3.9-8-9.8-9.3l-4.6-1.1
	c-2.4-0.5-3.7-1.3-3.7-3.1c0-2.1,1.9-3.3,4.7-3.3c3.3,0,4.8,1.7,5.3,4.1h8.2C362.8,21.7,354.9,19.6,349.7,19.6z"/>
<path class="st0" d="M55,0H5C2.2,0,0,2.2,0,5v50c0,2.8,2.2,5,5,5h50c2.8,0,5-2.2,5-5V5C60,2.2,57.8,0,55,0z M23.4,52.6h-6.5
	l-3.8-3.8v-39h-1.9V7.5h1.9h5.7l4.6,4.7v18l11.4-11.4h4.7h7.5v2.3h-2.3L32,33.8H20.8l2.7,2.7V52.6z M43.4,52.6L43.4,52.6L42,54
	l-1.6-1.6l1.4-1.4L27.4,36.6h6.4l3.4-3.4L50,46L43.4,52.6z"/>
</svg>
