<svg width="660" height="110" viewBox="0 0 660 110" fill="none" xmlns="http://www.w3.org/2000/svg">
<path d="M173.64 81.5499L183.745 96.1844H200.644L183.222 71.1837L199.251 53.9358H182.438L167.716 69.7899V34.3359H153.604V96.1844H167.716V87.9089L173.64 81.5499Z" fill="white" fill-opacity="0.95"/>
<path d="M212.983 47.3162C217.513 47.3162 221.259 43.9189 221.259 39.3892C221.259 34.7723 217.513 31.375 212.983 31.375C208.366 31.375 204.708 34.7723 204.708 39.3892C204.708 43.9189 208.366 47.3162 212.983 47.3162ZM220.126 53.9366H206.014V96.1852H220.126V53.9366Z" fill="white" fill-opacity="0.95"/>
<path d="M250.909 85.2094C244.899 85.2094 241.24 80.7668 241.24 75.0175C241.24 69.2682 244.899 64.9127 250.909 64.9127C255.265 64.9127 258.488 67.4389 259.185 71.2717H272.513C271.555 60.3829 262.582 52.9785 250.909 52.9785C237.582 52.9785 227.825 62.2122 227.825 75.0175C227.825 87.9098 237.582 97.1436 250.909 97.1436C262.582 97.1436 271.555 89.7392 272.513 78.8503H259.185C258.488 82.6832 255.265 85.2094 250.909 85.2094Z" fill="white" fill-opacity="0.95"/>
<path d="M300.052 81.5499L310.157 96.1844H327.056L309.634 71.1837L325.663 53.9358H308.85L294.129 69.7899V34.3359H280.017V96.1844H294.129V87.9089L300.052 81.5499Z" fill="white" fill-opacity="0.95"/>
<path d="M328.013 81.6363C328.884 92.8736 337.857 97.4904 348.92 97.4904C359.896 97.4904 368.694 92.9607 368.694 83.2043C368.694 75.7128 363.467 71.8799 355.54 70.3991L347.613 69.0924C344.303 68.4826 343.258 67.176 343.258 65.7822C343.258 64.1271 344.913 62.7333 348.571 62.7333C352.491 62.7333 355.453 64.2142 355.714 67.4373H368.258C367.648 56.2872 357.457 52.8027 348.484 52.8027C337.247 52.8027 329.668 58.0294 329.668 66.9146C329.668 74.319 334.721 78.4132 342.038 79.6328L350.575 81.1137C353.362 81.5492 354.669 82.6816 354.669 84.0754C354.669 85.9047 352.404 87.0372 348.658 87.0372C344.216 87.0372 341.167 85.3821 340.557 81.7234L328.013 81.6363Z" fill="white" fill-opacity="0.95"/>
<path d="M408.634 83.4662C405.498 84.076 403.146 84.5115 401.143 84.5115C396.961 84.5115 394.522 82.4209 394.522 78.1525V66.0441H408.895V53.9357H394.522V39.5625H380.41V53.9357H372.135V66.0441H380.41V78.588C380.41 89.9995 387.205 97.491 397.397 97.491C401.578 97.491 404.714 97.1426 410.202 95.4004L408.634 83.4662Z" fill="white" fill-opacity="0.95"/>
<path d="M460.648 53.9367H446.536V56.2016C443.4 54.1981 439.568 52.9785 434.951 52.9785C423.539 52.9785 413.957 62.3865 413.957 75.0175C413.957 87.5614 423.539 97.0565 434.951 97.0565C439.568 97.0565 443.4 95.8369 446.536 93.8334V96.1853H460.648V53.9367ZM437.738 85.4707C431.989 85.4707 427.808 80.8539 427.808 75.0175C427.808 69.1811 431.989 64.4771 437.738 64.4771C440.874 64.4771 443.923 65.4353 446.536 68.4842V81.5508C443.923 84.5996 440.874 85.4707 437.738 85.4707Z" fill="white" fill-opacity="0.95"/>
<path d="M498.891 53.2383C492.619 53.2383 488.09 55.2418 484.344 58.4649V53.9352H470.232V96.1838H484.344V72.0542C487.654 68.744 492.01 66.9146 498.891 66.6533V53.2383Z" fill="white" fill-opacity="0.95"/>
<path d="M538.873 83.4662C535.737 84.076 533.385 84.5115 531.381 84.5115C527.2 84.5115 524.761 82.4209 524.761 78.1525V66.0441H539.134V53.9357H524.761V39.5625H510.649V53.9357H502.374V66.0441H510.649V78.588C510.649 89.9995 517.444 97.491 527.636 97.491C531.817 97.491 534.953 97.1426 540.441 95.4004L538.873 83.4662Z" fill="white" fill-opacity="0.95"/>
<path d="M547.909 36.9502V96.1854H571.777C590.332 96.1854 603.747 83.9899 603.747 66.3936C603.747 49.0586 590.332 36.9502 571.777 36.9502H547.909ZM562.631 82.9446V50.191H571.777C581.36 50.191 588.764 57.247 588.764 66.3936C588.764 75.8015 581.36 82.9446 571.777 82.9446H562.631Z" fill="white" fill-opacity="0.95"/>
<path d="M634.564 35.6416C620.626 35.6416 611.044 43.1331 611.044 54.9801C611.044 64.3881 616.532 69.876 628.205 72.4022L637.961 74.58C643.013 75.5382 644.233 77.6289 644.233 79.6324C644.233 82.8555 641.358 84.8591 635.87 84.8591C628.902 84.8591 624.372 81.7231 623.414 76.4964H608.692C610.086 91.131 622.107 97.403 635.435 97.403C650.244 97.403 660 89.9986 660 78.1515C660 67.9596 652.944 63.6041 642.142 61.2521L633.867 59.3357C629.424 58.3774 627.072 56.9837 627.072 53.7606C627.072 49.9277 630.47 47.8371 635.522 47.8371C641.533 47.8371 644.32 50.8859 645.104 55.3286H659.913C658.432 39.3874 644.146 35.6416 634.564 35.6416Z" fill="white" fill-opacity="0.95"/>
<path fill-rule="evenodd" clip-rule="evenodd" d="M34.4548 13.75L42.9688 22.2869V55.3432L63.9375 34.3745H86.2812L86.2815 38.6714H81.9844L58.6094 62.0464H38.0472L42.9688 66.9682V96.422H30.9885L24.0625 89.4773V18.0469H20.625V13.75H34.4548ZM50.2291 67.0729L76.675 93.5188L74.0784 96.1154L76.9952 99.0321L79.6091 96.4528L91.6403 84.4216L68.1484 60.9296L62.0051 67.0729H50.2291Z" fill="#ECFF00"/>
<path d="M0 9.16667C0 4.10406 4.10406 0 9.16667 0H100.833C105.896 0 110 4.10406 110 9.16667V100.833C110 105.896 105.896 110 100.833 110H9.16667C4.10406 110 0 105.896 0 100.833V9.16667Z" fill="#ECFF00" fill-opacity="0.1"/>
<path d="M34.4548 13.75L42.9688 22.2869V55.3432L63.9375 34.3745H86.2812L86.2815 38.6714H81.9844L58.6094 62.0464H38.0472L42.9688 66.9682V96.422H30.9885L24.0625 89.4773V18.0469H20.625V13.75H34.4548Z" fill="#ECFF00"/>
<path d="M50.2291 67.0729L76.675 93.5188L74.0784 96.1154L76.9952 99.0321L79.6091 96.4528L91.6403 84.4216L68.1484 60.9296L62.0051 67.0729H50.2291Z" fill="#ECFF00"/>
</svg>
