<svg width="364" height="60" viewBox="0 0 364 60" fill="none" xmlns="http://www.w3.org/2000/svg">
<path d="M95.6799 44.9361L101.248 53.0001H110.56L100.96 39.2241L109.792 29.7201H100.528L92.4159 38.4561V18.9201H84.6399V53.0001H92.4159V48.4401L95.6799 44.9361Z" fill="#04323E"/>
<path d="M117.359 26.0721C119.855 26.0721 121.919 24.2001 121.919 21.7041C121.919 19.1601 119.855 17.2881 117.359 17.2881C114.815 17.2881 112.799 19.1601 112.799 21.7041C112.799 24.2001 114.815 26.0721 117.359 26.0721ZM121.295 29.7201H113.519V53.0001H121.295V29.7201Z" fill="#04323E"/>
<path d="M138.257 46.9521C134.945 46.9521 132.929 44.5041 132.929 41.3361C132.929 38.1681 134.945 35.7681 138.257 35.7681C140.657 35.7681 142.433 37.1601 142.817 39.2721H150.161C149.633 33.2721 144.689 29.1921 138.257 29.1921C130.913 29.1921 125.537 34.2801 125.537 41.3361C125.537 48.4401 130.913 53.5281 138.257 53.5281C144.689 53.5281 149.633 49.4481 150.161 43.4481H142.817C142.433 45.5601 140.657 46.9521 138.257 46.9521Z" fill="#04323E"/>
<path d="M165.336 44.9361L170.904 53.0001H180.216L170.616 39.2241L179.448 29.7201H170.184L162.072 38.4561V18.9201H154.296V53.0001H162.072V48.4401L165.336 44.9361Z" fill="#04323E"/>
<path d="M180.743 44.9841C181.223 51.1761 186.167 53.7201 192.263 53.7201C198.311 53.7201 203.159 51.2241 203.159 45.8481C203.159 41.7201 200.279 39.6081 195.911 38.7921L191.543 38.0721C189.719 37.7361 189.143 37.0161 189.143 36.2481C189.143 35.3361 190.055 34.5681 192.071 34.5681C194.231 34.5681 195.863 35.3841 196.007 37.1601H202.919C202.583 31.0161 196.967 29.0961 192.023 29.0961C185.831 29.0961 181.655 31.9761 181.655 36.8721C181.655 40.9521 184.439 43.2081 188.471 43.8801L193.175 44.6961C194.711 44.9361 195.431 45.5601 195.431 46.3281C195.431 47.3361 194.183 47.9601 192.119 47.9601C189.671 47.9601 187.991 47.0481 187.655 45.0321L180.743 44.9841Z" fill="#04323E"/>
<path d="M225.167 45.9921C223.439 46.3281 222.143 46.5681 221.039 46.5681C218.735 46.5681 217.391 45.4161 217.391 43.0641V36.3921H225.311V29.7201H217.391V21.8001H209.615V29.7201H205.055V36.3921H209.615V43.3041C209.615 49.5921 213.359 53.7201 218.975 53.7201C221.279 53.7201 223.007 53.5281 226.031 52.5681L225.167 45.9921Z" fill="#04323E"/>
<path d="M253.828 29.7201H246.052V30.9681C244.324 29.8641 242.212 29.1921 239.668 29.1921C233.38 29.1921 228.1 34.3761 228.1 41.3361C228.1 48.2481 233.38 53.4801 239.668 53.4801C242.212 53.4801 244.324 52.8081 246.052 51.7041V53.0001H253.828V29.7201ZM241.204 47.0961C238.036 47.0961 235.732 44.5521 235.732 41.3361C235.732 38.1201 238.036 35.5281 241.204 35.5281C242.932 35.5281 244.612 36.0561 246.052 37.7361V44.9361C244.612 46.6161 242.932 47.0961 241.204 47.0961Z" fill="#04323E"/>
<path d="M274.901 29.3361C271.445 29.3361 268.949 30.4401 266.885 32.2161V29.7201H259.109V53.0001H266.885V39.7041C268.709 37.8801 271.109 36.8721 274.901 36.7281V29.3361Z" fill="#04323E"/>
<path d="M296.932 45.9921C295.204 46.3281 293.908 46.5681 292.804 46.5681C290.5 46.5681 289.156 45.4161 289.156 43.0641V36.3921H297.076V29.7201H289.156V21.8001H281.38V29.7201H276.82V36.3921H281.38V43.3041C281.38 49.5921 285.124 53.7201 290.74 53.7201C293.044 53.7201 294.772 53.5281 297.796 52.5681L296.932 45.9921Z" fill="#04323E"/>
<path d="M301.911 20.3601V53.0001H315.063C325.287 53.0001 332.679 46.2801 332.679 36.5841C332.679 27.0321 325.287 20.3601 315.063 20.3601H301.911ZM310.023 45.7041V27.6561H315.063C320.343 27.6561 324.423 31.5441 324.423 36.5841C324.423 41.7681 320.343 45.7041 315.063 45.7041H310.023Z" fill="#04323E"/>
<path d="M349.66 19.6401C341.98 19.6401 336.7 23.7681 336.7 30.2961C336.7 35.4801 339.724 38.5041 346.156 39.8961L351.532 41.0961C354.316 41.6241 354.988 42.7761 354.988 43.8801C354.988 45.6561 353.404 46.7601 350.38 46.7601C346.54 46.7601 344.044 45.0321 343.516 42.1521H335.404C336.172 50.2161 342.796 53.6721 350.14 53.6721C358.3 53.6721 363.676 49.5921 363.676 43.0641C363.676 37.4481 359.788 35.0481 353.836 33.7521L349.276 32.6961C346.828 32.1681 345.532 31.4001 345.532 29.6241C345.532 27.5121 347.404 26.3601 350.188 26.3601C353.5 26.3601 355.036 28.0401 355.468 30.4881H363.628C362.812 21.7041 354.94 19.6401 349.66 19.6401Z" fill="#04323E"/>
<path d="M0 5C0 2.23858 2.23858 0 5 0H55C57.7614 0 60 2.23858 60 5V55C60 57.7614 57.7614 60 55 60H5C2.23858 60 0 57.7614 0 55V5Z" fill="#06566A"/>
<path fill-rule="evenodd" clip-rule="evenodd" d="M18.7935 7.5H13.125V7.5H11.25V9.84375H13.125V48.8058L16.9028 52.5938H23.4375V12.1565L18.7935 7.5Z" fill="#ECFF00"/>
<path fill-rule="evenodd" clip-rule="evenodd" d="M34.3125 30.375H21.1875L43.4231 52.6106L49.9856 46.0481L34.3125 30.375Z" fill="#ECFF00"/>
<path fill-rule="evenodd" clip-rule="evenodd" d="M23.4944 36.5853H33.8208L52.6873 17.7188H36.7271L20.6775 33.7683L23.4944 36.5853Z" fill="#06566A"/>
<path fill-rule="evenodd" clip-rule="evenodd" d="M19.7812 33.8438H31.9688L47.0625 18.75H34.875L19.7812 33.8438Z" fill="#ECFF00"/>
<rect x="39.5625" y="18.75" width="7.5" height="2.34375" fill="#ECFF00"/>
<path fill-rule="evenodd" clip-rule="evenodd" d="M40.4062 52.4268L48.0203 44.8127L49.6113 46.4037L41.9972 54.0177L40.4062 52.4268Z" fill="#ECFF00"/>
</svg>
