<svg width="427" height="290" viewBox="0 0 427 290" fill="none" xmlns="http://www.w3.org/2000/svg">
<g clip-path="url(#clip0_1422_3560)">
<path d="M120.451 224.643L90.5391 199.879L81.7592 197.335L86.0122 191.927L183.762 171.276L221.544 158.807L191.565 218.415L178.806 275.208L168.491 276.097L148.836 244.574L120.816 263.773L106.701 267.001L107.406 251.108L120.451 224.643Z" fill="white"/>
<path d="M144.81 236.578L148.836 244.574L168.491 276.097L178.806 275.208L191.565 218.415L221.544 158.807L144.81 236.578Z" fill="white" fill-opacity="0.1"/>
<path d="M221.544 158.807L120.451 224.643L107.406 251.108L106.701 267.001L126.546 247.384L144.81 236.578L221.544 158.807Z" fill="#CDDDE1"/>
<path fill-rule="evenodd" clip-rule="evenodd" d="M253.615 94.746C261.423 86.1422 272.697 80.7388 285.235 80.7388C306.085 80.7388 323.444 95.6842 327.17 115.441L327.446 117.934L327.799 120.29C327.872 121.314 327.909 122.347 327.909 123.39C327.909 132.173 325.253 140.336 320.7 147.12C319.051 147.29 317.327 147.405 315.535 147.462C315.72 147.229 315.903 146.993 316.084 146.756C313.922 145.584 311.459 144.53 308.747 143.625C308.301 144.905 307.814 146.144 307.289 147.339C305.91 147.259 304.504 147.149 303.073 147.01C303.755 145.585 304.379 144.077 304.937 142.495C299.556 141.088 293.416 140.229 286.842 140.109V144.305C285.527 143.999 284.204 143.67 282.872 143.318V140.126C279.95 140.205 277.116 140.43 274.401 140.784C271.849 139.928 269.384 139.015 267.017 138.054C271.915 136.962 277.268 136.302 282.872 136.157V124.996H262.429C262.533 129.124 263.038 133.063 263.871 136.725C262.334 136.048 260.843 135.352 259.403 134.639C258.861 131.552 258.537 128.324 258.458 124.996H246.562C246.59 125.666 246.634 126.331 246.695 126.992C246.378 126.756 246.066 126.52 245.76 126.284C244.597 125.384 243.531 124.489 242.56 123.605L242.56 121.029H242.624C243.001 114.116 245.026 107.642 248.311 101.991L250.743 98.5928L253.615 94.746ZM306.109 138.701C300.305 137.167 293.756 136.262 286.842 136.14V124.996H308.04C307.917 129.877 307.234 134.495 306.109 138.701ZM318.328 143.462C315.838 142.079 313.01 140.859 309.916 139.832C311.152 135.245 311.886 130.243 312.011 124.996H323.907C323.631 131.74 321.628 138.038 318.328 143.462ZM308.017 121.029H286.842V109.599C293.65 109.463 300.098 108.567 305.825 107.059C307.057 111.319 307.83 116.03 308.017 121.029ZM282.872 121.029V109.593C276.342 109.44 270.148 108.588 264.612 107.168C263.399 111.4 262.637 116.073 262.452 121.029H282.872ZM265.858 103.391C270.959 104.677 276.721 105.474 282.872 105.624L282.872 85.4155C278.102 86.277 273.43 89.7438 269.638 95.7092C268.195 97.9783 266.92 100.558 265.858 103.391ZM286.842 85.3009L286.842 105.631C293.274 105.496 299.287 104.655 304.572 103.285C303.517 100.494 302.256 97.9501 300.831 95.7092C296.839 89.4291 291.872 85.9183 286.842 85.3009ZM299.017 87.2306C302.883 90.8853 306.114 96.0312 308.39 102.162C310.982 101.304 313.35 100.311 315.446 99.2075C311.171 93.8787 305.513 89.7053 299.017 87.2306ZM317.788 102.455C315.359 103.776 312.619 104.943 309.632 105.931C310.976 110.574 311.801 115.668 311.989 121.029H323.869C323.458 114.211 321.281 107.869 317.788 102.455ZM271.453 87.2306C267.559 90.9116 264.308 96.1052 262.03 102.295C259.412 101.45 257.016 100.467 254.89 99.374C259.181 93.9656 264.889 89.7311 271.453 87.2306ZM252.565 102.636C255.023 103.943 257.788 105.094 260.799 106.067C259.477 110.673 258.666 115.72 258.48 121.029H246.6C247.007 114.287 249.14 108.01 252.565 102.636Z" fill="white"/>
<path d="M245.111 137.951C251.066 154.336 266.783 166.041 285.235 166.041C294.906 166.041 303.826 162.825 310.983 157.406C308.803 157.365 306.566 157.255 304.28 157.074C302.6 158.025 300.841 158.854 299.017 159.549C299.897 158.717 300.744 157.807 301.555 156.826C299.968 156.664 298.36 156.468 296.734 156.239C293.657 159.299 290.264 161.059 286.842 161.479V154.471C285.525 154.186 284.201 153.881 282.872 153.555V161.364C278.102 160.503 273.43 157.036 269.638 151.07C269.266 150.486 268.906 149.881 268.557 149.256C266.7 148.592 264.882 147.896 263.107 147.173C265.287 152.183 268.137 156.414 271.453 159.549C264.628 156.949 258.729 152.475 254.386 146.756C255.533 146.134 256.765 145.545 258.075 144.994C256.496 144.269 254.959 143.522 253.469 142.756C253.016 142.986 252.573 143.221 252.141 143.462C251.739 142.802 251.357 142.129 250.994 141.443C248.932 140.314 246.967 139.148 245.111 137.951Z" fill="white"/>
<path d="M328.259 112.672C334.483 116.729 339.443 121.158 342.596 125.664C345.744 130.162 347.232 134.959 345.999 139.558C344.937 143.519 342.047 146.606 338.094 148.862C334.15 151.114 329.016 152.624 323.123 153.424C311.328 155.025 296.087 153.839 280.153 149.572C264.218 145.305 250.426 138.716 241.012 131.434C236.309 127.797 232.618 123.924 230.329 120.003C228.035 116.074 227.076 111.956 228.138 107.995C229.26 103.808 232.424 100.601 236.73 98.3129C240.685 96.2117 245.744 94.8022 251.524 94.0628L248.051 98.6454C244.323 99.3929 241.137 100.465 238.593 101.816C234.893 103.782 232.718 106.241 231.972 109.022C231.266 111.656 231.814 114.674 233.758 118.004C235.707 121.342 238.986 124.85 243.442 128.297C252.346 135.184 265.627 141.575 281.18 145.74C296.733 149.905 311.432 151.007 322.589 149.492C328.172 148.734 332.767 147.334 336.125 145.417C339.474 143.506 341.458 141.165 342.164 138.532C342.982 135.48 342.113 131.896 339.343 127.938C336.923 124.481 333.161 120.908 328.259 117.462L327.446 112.234L328.259 112.672Z" fill="#ECFF00"/>
<path d="M287.168 52.7274V60.966H282.222V52.7274H287.168Z" fill="#06566A"/>
<path d="M287.168 44.4887V29.6592H282.222V44.4887H287.168Z" fill="#06566A"/>
<path d="M282.222 65.9092H287.168V76.6194H282.222V65.9092Z" fill="#06566A"/>
<path d="M139.683 71.1867L149.93 83.189L165.685 84.1819L157.43 97.6305L161.354 112.913L146.005 109.222L132.675 117.674L131.444 101.945L119.282 91.8862L133.87 85.8555L139.683 71.1867Z" fill="#ECFF00"/>
<path d="M326.736 201.023L334.876 214.541L350.255 218.101L339.906 230.016L341.271 245.734L326.736 239.58L312.2 245.734L313.565 230.016L303.216 218.101L318.596 214.541L326.736 201.023Z" fill="#ECFF00"/>
<path d="M342.329 41.391L347.59 54.4534L360.639 59.7629L349.835 68.8004L348.815 82.8445L336.876 75.3677L323.197 78.7379L326.622 65.0794L319.188 53.1182L333.244 52.1537L342.329 41.391Z" fill="#ECFF00"/>
</g>
<defs>
<clipPath id="clip0_1422_3560">
<rect width="427" height="290" fill="white"/>
</clipPath>
</defs>
</svg>
