<svg viewBox="0 0 538 378" fill="none" xmlns="http://www.w3.org/2000/svg">
<g clip-path="url(#clip0_1132_3562)">
<path d="M135.5 329.5L60 186L292 -2L524.5 132.5L427.5 305.5L135.5 329.5Z" fill="#E6EEF0"/>
<path d="M132.5 332.5L57 189L274 0L519 145L434.5 316L132.5 332.5Z" stroke="#6A9AA6" stroke-width="3"/>
<path d="M255.442 227.601L273.047 231.423L259.417 346.913L235.919 346.23L255.442 227.601Z" fill="#B4CCD2"/>
<rect x="206.627" y="285.249" width="122.501" height="14.4119" fill="#82AAB5"/>
<path d="M335.734 368.117L314.717 233.606H335.734L365.759 357.909L359.154 368.117H335.734Z" fill="#518997"/>
<path d="M335.734 368.117L314.717 233.606H320.838L345.478 368.117H335.734Z" fill="#387888"/>
<path d="M202.672 227H223.442L202.672 371.119H173L202.672 227Z" fill="#518997"/>
<path d="M202.672 227H208.797L184.623 371.119H173L202.672 227Z" fill="#387888"/>
<path d="M461 22L101.414 30.2005L77 74.7531L133.734 267L453.664 261.139L461 22Z" fill="#06566A"/>
<path d="M458 16L101.017 24.2131L82 54.1583L127.708 258H451.804L458 16Z" fill="#9BBBC3"/>
<path d="M452 28L117.808 35.5975L99 68.9927L141.746 252H445.153L452 28Z" fill="white"/>
<path fill-rule="evenodd" clip-rule="evenodd" d="M165.183 101.843L183.064 87.1393L188.628 93.9065L170.508 108.808L181.955 124.768L174.835 129.874L163.837 114.54L145.83 130.591L140 124.051L158.522 107.54L146.963 93.2817L153.769 87.7642L165.183 101.843Z" fill="#06566A"/>
<path fill-rule="evenodd" clip-rule="evenodd" d="M406.27 89.5772L391.302 73L384.731 81.0156L400.945 96.5417L389.498 112.502L396.618 117.608L407.616 102.274L422.843 117.608L428.673 111.068L412.931 95.2742L424.49 81.0156L417.684 75.4981L406.27 89.5772Z" fill="#06566A"/>
<path fill-rule="evenodd" clip-rule="evenodd" d="M294.766 180.123L309.775 164.978L315.998 171.145L301.836 185.435L315.436 195.164L310.338 202.29L296.071 192.084L284.44 207.894L277.382 202.702L289.083 186.797L273.788 174.547L279.265 167.709L294.766 180.123Z" fill="#06566A"/>
<path fill-rule="evenodd" clip-rule="evenodd" d="M381.347 104.738L375.186 106.873L372.317 98.5952L378.477 96.4596L381.347 104.738ZM371.08 108.297L358.759 112.568L355.889 104.29L368.21 100.019L371.08 108.297ZM352.279 114.815L354.652 113.992L351.782 105.714L341.834 109.162L344.504 119.841L353.004 117.716L352.279 114.815ZM194.396 117.306L187.825 116.321L189.124 107.656L195.695 108.642L194.396 117.306ZM211.919 119.935L198.776 117.964L200.076 109.299L213.218 111.27L211.919 119.935ZM219.525 121.076L216.299 120.592L217.599 111.927L227.516 113.415L228.533 122.912L219.822 123.845L219.525 121.076ZM354.136 122.243L357.531 135.823L349.031 137.948L345.636 124.368L354.136 122.243ZM221.574 140.2L220.26 127.934L228.971 127L230.285 139.266L221.574 140.2ZM358.662 140.35L362.057 153.93L353.558 156.055L350.163 142.475L358.662 140.35ZM223.326 156.554L222.012 144.288L230.723 143.355L232.038 155.621L223.326 156.554ZM363.189 158.457L365.789 168.855L355.721 173.206L352.246 165.163L355.485 163.763L354.689 160.582L363.189 158.457ZM223.764 160.643L232.476 159.71L232.889 163.565L236.136 165.341L231.932 173.028L224.665 169.054L223.764 160.643ZM351.286 175.122L337.979 180.872L334.504 172.829L347.81 167.08L351.286 175.122ZM245.95 180.694L235.437 174.944L239.64 167.257L250.154 173.007L245.95 180.694ZM333.544 182.789L326.891 185.663L323.415 177.621L330.069 174.746L333.544 182.789ZM254.712 185.486L249.455 182.611L253.659 174.924L258.916 177.798L254.712 185.486Z" fill="#06566A" fill-opacity="0.4"/>
</g>
<defs>
<clipPath id="clip0_1132_3562">
<rect width="538" height="377.81" fill="white"/>
</clipPath>
</defs>
</svg>
