<?xml version="1.0" encoding="utf-8"?>
<!-- Generator: Adobe Illustrator 24.0.0, SVG Export Plug-In . SVG Version: 6.00 Build 0)  -->
<svg version="1.1" xmlns="http://www.w3.org/2000/svg" xmlns:xlink="http://www.w3.org/1999/xlink" x="0px" y="0px"
	 viewBox="0 0 356 236" style="enable-background:new 0 0 356 236;" xml:space="preserve">
<style type="text/css">
	.st0{display:none;}
	.st1{display:inline;fill:#FFFFFF;}
	.st2{display:inline;fill:#E6E6E6;}
	.st3{fill:#FFFFFF;}
	.st4{fill:#FFFFFF;stroke:#666666;stroke-linecap:round;stroke-linejoin:round;stroke-miterlimit:10;}
	.st5{fill:none;stroke:#666666;stroke-linecap:round;stroke-linejoin:round;stroke-miterlimit:10;}
	.st6{fill:none;stroke:#666666;stroke-width:1.2;stroke-linecap:round;stroke-linejoin:round;stroke-miterlimit:10;}
	.st7{fill:#666666;}
</style>
<g id="BG" class="st0">
	<rect class="st2" width="356" height="236"/>
</g>
<g id="Ebene_1">
	<g id="Ebene_4">
	</g>
	<g id="Vordergrund">
		<polygon class="st3" points="317.997,132.809 273.098,132.809 262.31,125.114 251.601,132.809 206.622,132.809 205.084,176.995 
			209.54,176.995 209.54,215.384 315.079,215.384 315.079,176.995 319.535,176.995 		"/>
		<polygon class="st3" points="45.109,73.974 38.228,112.024 36.11,112.024 36.11,116.547 38.228,116.547 38.228,123.353 
			34.129,123.353 34.129,215.383 109.654,215.383 109.654,123.353 105.555,123.353 105.555,116.547 107.673,116.547 
			107.673,112.024 105.555,112.024 98.673,73.974 		"/>
		<path class="st7" d="M109.653,215.861H34.129c-0.265,0-0.479-0.214-0.479-0.479v-92.029c0-0.265,0.214-0.479,0.479-0.479h3.62
			v-5.849H36.11c-0.265,0-0.479-0.214-0.479-0.479v-4.523c0-0.265,0.214-0.479,0.479-0.479h1.718l6.811-37.656
			c0.041-0.228,0.239-0.394,0.471-0.394h53.564c0.232,0,0.43,0.165,0.471,0.394l6.81,37.656h1.718c0.265,0,0.479,0.214,0.479,0.479
			v4.523c0,0.265-0.214,0.479-0.479,0.479h-1.639v5.849h3.62c0.265,0,0.479,0.214,0.479,0.479v92.029
			C110.132,215.647,109.918,215.861,109.653,215.861z M34.607,214.904h74.567v-91.072h-3.62c-0.265,0-0.479-0.214-0.479-0.479
			v-6.807c0-0.265,0.214-0.479,0.479-0.479h1.639v-3.565h-1.639c-0.232,0-0.43-0.165-0.471-0.394l-6.81-37.656H45.51l-6.811,37.656
			c-0.041,0.228-0.239,0.394-0.471,0.394h-1.639v3.565h1.639c0.265,0,0.479,0.214,0.479,0.479v6.807
			c0,0.265-0.214,0.479-0.479,0.479h-3.62V214.904z"/>
		<rect x="34.129" y="123.353" class="st3" width="75.525" height="92.029"/>
		<path class="st7" d="M109.653,215.861H34.129c-0.265,0-0.479-0.214-0.479-0.479v-92.029c0-0.265,0.214-0.479,0.479-0.479h75.525
			c0.265,0,0.479,0.214,0.479,0.479v92.029C110.132,215.647,109.918,215.861,109.653,215.861z M34.607,214.904h74.567v-91.072
			H34.607V214.904z"/>
		<rect x="38.228" y="116.547" class="st3" width="67.327" height="6.807"/>
		<path class="st7" d="M105.555,123.832H38.228c-0.265,0-0.479-0.214-0.479-0.479v-6.807c0-0.265,0.214-0.479,0.479-0.479h67.327
			c0.265,0,0.479,0.214,0.479,0.479v6.807C106.033,123.618,105.819,123.832,105.555,123.832z M38.706,122.875h66.37v-5.849h-66.37
			V122.875z"/>
		<polygon class="st3" points="98.673,73.974 90.397,73.974 90.397,62.012 83.15,62.012 83.15,73.974 60.089,73.974 60.089,62.012 
			52.841,62.012 52.841,73.974 45.109,73.974 38.228,112.024 105.555,112.024 		"/>
		<path class="st7" d="M99.145,73.889c-0.041-0.228-0.239-0.394-0.471-0.394h-7.797V62.012c0-0.265-0.214-0.479-0.479-0.479H83.15
			c-0.265,0-0.479,0.214-0.479,0.479v11.484H60.568V62.012c0-0.265-0.214-0.479-0.479-0.479h-7.248
			c-0.265,0-0.479,0.214-0.479,0.479v11.484H45.11c-0.232,0-0.43,0.165-0.471,0.394l-6.882,38.05
			c-0.025,0.139,0.013,0.283,0.104,0.392c0.091,0.109,0.225,0.172,0.367,0.172h67.327c0.142,0,0.277-0.063,0.367-0.172
			c0.091-0.108,0.129-0.252,0.104-0.392L99.145,73.889z M83.628,62.49h6.291v2.181h-6.291V62.49z M83.628,65.628h6.291v7.867h-6.291
			V65.628z M53.32,62.49h6.291v2.181H53.32V62.49z M53.32,65.628h6.291v7.867H53.32V65.628z M38.801,111.546l6.709-37.093h7.332
			h7.248h23.06h7.248h7.876l6.708,37.093H38.801z"/>
		<path class="st7" d="M75.482,105.973H68.3c-0.265,0-0.479-0.214-0.479-0.479v-8.802c0-0.265,0.214-0.479,0.479-0.479h7.182
			c0.265,0,0.479,0.214,0.479,0.479v8.802C75.961,105.759,75.747,105.973,75.482,105.973z M68.779,105.016h6.225v-7.845h-6.225
			V105.016z"/>
		<path class="st7" d="M81.268,90.06c-0.004-0.017-0.004-0.032-0.01-0.049c-0.028-0.083-0.077-0.153-0.142-0.209
			c-0.005-0.005-0.006-0.012-0.011-0.017l-8.919-6.959c-0.174-0.136-0.415-0.136-0.589,0l-8.919,6.959
			c-0.006,0.004-0.006,0.012-0.011,0.017c-0.066,0.056-0.114,0.126-0.142,0.209c-0.006,0.016-0.006,0.032-0.01,0.049
			c-0.008,0.034-0.021,0.066-0.021,0.103v21.861c0,0.265,0.214,0.479,0.479,0.479H80.81c0.265,0,0.479-0.214,0.479-0.479V90.163
			C81.289,90.126,81.276,90.094,81.268,90.06z M71.891,83.811l7.527,5.873H64.364L71.891,83.811z M80.332,111.546H63.451V90.641
			h16.881V111.546z"/>
		<path class="st7" d="M78.131,133.583H66.079c-0.265,0-0.479,0.214-0.479,0.479v15.266c0,0.265,0.214,0.479,0.479,0.479h12.052
			c0.265,0,0.479-0.214,0.479-0.479v-15.266C78.61,133.797,78.396,133.583,78.131,133.583z M66.558,139.585h5.069v4.221h-5.069
			V139.585z M72.584,139.585h5.069v4.221h-5.069V139.585z M77.653,138.627h-5.069v-4.087h5.069V138.627z M71.627,134.54v4.087
			h-5.069v-4.087H71.627z M66.558,144.762h5.069v4.087h-5.069V144.762z M72.584,148.849v-4.087h5.069v4.087H72.584z"/>
		<path class="st7" d="M55.064,133.583H43.011c-0.265,0-0.479,0.214-0.479,0.479v15.266c0,0.265,0.214,0.479,0.479,0.479h12.052
			c0.265,0,0.479-0.214,0.479-0.479v-15.266C55.542,133.797,55.328,133.583,55.064,133.583z M43.49,139.585h5.069v4.221H43.49
			V139.585z M49.516,139.585h5.069v4.221h-5.069V139.585z M54.585,138.627h-5.069v-4.087h5.069V138.627z M48.559,134.54v4.087H43.49
			v-4.087H48.559z M43.49,144.762h5.069v4.087H43.49V144.762z M49.516,148.849v-4.087h5.069v4.087H49.516z"/>
		<path class="st7" d="M55.064,162.151H43.011c-0.265,0-0.479,0.214-0.479,0.479v15.266c0,0.265,0.214,0.479,0.479,0.479h12.052
			c0.265,0,0.479-0.214,0.479-0.479v-15.266C55.542,162.365,55.328,162.151,55.064,162.151z M43.49,168.152h5.069v4.221H43.49
			V168.152z M49.516,168.152h5.069v4.221h-5.069V168.152z M54.585,167.194h-5.069v-4.087h5.069V167.194z M48.559,163.108v4.087
			H43.49v-4.087H48.559z M43.49,173.329h5.069v4.087H43.49V173.329z M49.516,177.416v-4.087h5.069v4.087H49.516z"/>
		<path class="st7" d="M101.199,133.583H89.148c-0.265,0-0.479,0.214-0.479,0.479v15.266c0,0.265,0.214,0.479,0.479,0.479h12.051
			c0.265,0,0.479-0.214,0.479-0.479v-15.266C101.678,133.797,101.464,133.583,101.199,133.583z M89.626,139.585h5.069v4.221h-5.069
			V139.585z M95.652,139.585h5.068v4.221h-5.068V139.585z M100.72,138.627h-5.068v-4.087h5.068V138.627z M94.695,134.54v4.087
			h-5.069v-4.087H94.695z M89.626,144.762h5.069v4.087h-5.069V144.762z M95.652,148.849v-4.087h5.068v4.087H95.652z"/>
		<path class="st7" d="M78.131,162.151H66.079c-0.265,0-0.479,0.214-0.479,0.479v15.266c0,0.265,0.214,0.479,0.479,0.479h12.052
			c0.265,0,0.479-0.214,0.479-0.479v-15.266C78.61,162.365,78.396,162.151,78.131,162.151z M66.558,168.152h5.069v4.221h-5.069
			V168.152z M72.584,168.152h5.069v4.221h-5.069V168.152z M77.653,167.194h-5.069v-4.087h5.069V167.194z M71.627,163.108v4.087
			h-5.069v-4.087H71.627z M66.558,173.329h5.069v4.087h-5.069V173.329z M72.584,177.416v-4.087h5.069v4.087H72.584z"/>
		<path class="st7" d="M101.199,162.151H89.148c-0.265,0-0.479,0.214-0.479,0.479v15.266c0,0.265,0.214,0.479,0.479,0.479h12.051
			c0.265,0,0.479-0.214,0.479-0.479v-15.266C101.678,162.365,101.464,162.151,101.199,162.151z M89.626,168.152h5.069v4.221h-5.069
			V168.152z M95.652,168.152h5.068v4.221h-5.068V168.152z M100.72,167.194h-5.068v-4.087h5.068V167.194z M94.695,163.108v4.087
			h-5.069v-4.087H94.695z M89.626,173.329h5.069v4.087h-5.069V173.329z M95.652,177.416v-4.087h5.068v4.087H95.652z"/>
		<rect x="36.11" y="112.024" class="st3" width="71.563" height="4.522"/>
		<path class="st7" d="M107.673,117.025H36.11c-0.265,0-0.479-0.214-0.479-0.479v-4.523c0-0.265,0.214-0.479,0.479-0.479h71.563
			c0.265,0,0.479,0.214,0.479,0.479v4.523C108.151,116.811,107.937,117.025,107.673,117.025z M36.588,116.068h70.606v-3.565H36.588
			V116.068z"/>
		<rect x="32.664" y="186.918" class="st3" width="78.454" height="3.834"/>
		<path class="st7" d="M111.118,191.23H32.664c-0.265,0-0.479-0.214-0.479-0.479v-3.834c0-0.265,0.214-0.479,0.479-0.479h78.454
			c0.265,0,0.479,0.214,0.479,0.479v3.834C111.597,191.016,111.383,191.23,111.118,191.23z M33.143,190.273h77.497v-2.877H33.143
			V190.273z"/>
		<path class="st7" d="M55.064,215.862H43.011c-0.265,0-0.479-0.214-0.479-0.479v-17.612c0-0.265,0.214-0.479,0.479-0.479h12.052
			c0.265,0,0.479,0.214,0.479,0.479v17.612C55.542,215.648,55.328,215.862,55.064,215.862z M43.49,214.905h11.095v-16.655H43.49
			V214.905z"/>
		<path class="st7" d="M52.457,207.894c-0.725,0-1.316-0.59-1.316-1.316c0-0.725,0.591-1.316,1.316-1.316s1.315,0.59,1.315,1.316
			C53.772,207.303,53.182,207.894,52.457,207.894z M52.457,206.22c-0.198,0-0.359,0.161-0.359,0.358s0.161,0.358,0.359,0.358
			c0.197,0,0.358-0.161,0.358-0.358S52.654,206.22,52.457,206.22z"/>
		<path class="st7" d="M92.093,211.978H73.078c-0.265,0-0.479-0.214-0.479-0.479V198.76c0-0.265,0.214-0.479,0.479-0.479h19.015
			c0.265,0,0.479,0.214,0.479,0.479v12.739C92.572,211.764,92.358,211.978,92.093,211.978z M73.557,211.021h18.058v-11.782H73.557
			V211.021z"/>
		<path class="st3" d="M71.539,194.993v5.559c0,2.634,4.419,2.634,4.419,0l0-5.559H71.539z"/>
		<path class="st3" d="M89.215,194.993h-4.419h-4.419h-4.419v5.559c0,2.634,4.419,2.634,4.419,0c0,2.634,4.419,2.634,4.419,0
			c0,2.634,4.419,2.634,4.419,0c0,2.634,4.419,2.634,4.419,0v-5.559H89.215z"/>
		<path class="st7" d="M93.633,194.514h-4.419h-4.418h-4.419h-4.419h-4.418c-0.265,0-0.479,0.214-0.479,0.479v5.559
			c0,1.611,1.353,2.455,2.687,2.455c0.847,0,1.698-0.342,2.21-1.001c0.511,0.659,1.362,1.001,2.21,1.001s1.698-0.342,2.21-1.001
			c0.511,0.659,1.362,1.001,2.21,1.001c0.847,0,1.698-0.342,2.21-1.001c0.511,0.659,1.362,1.001,2.21,1.001
			c0.847,0,1.698-0.342,2.209-1.001c0.511,0.659,1.362,1.001,2.21,1.001c1.336,0,2.688-0.843,2.688-2.455v-5.559
			C94.112,194.728,93.898,194.514,93.633,194.514z M73.748,202.049c-0.642,0-1.73-0.315-1.73-1.497v-5.08h3.461v5.08
			C75.479,201.733,74.391,202.049,73.748,202.049z M78.167,202.049c-0.643,0-1.731-0.315-1.731-1.497v-5.08h3.462v5.08
			C79.898,201.733,78.81,202.049,78.167,202.049z M82.586,202.049c-0.643,0-1.731-0.315-1.731-1.497v-5.08h3.462v5.08
			C84.317,201.733,83.229,202.049,82.586,202.049z M87.005,202.049c-0.643,0-1.731-0.315-1.731-1.497v-5.08h3.461v5.08
			C88.736,201.733,87.648,202.049,87.005,202.049z M93.155,200.551c0,1.182-1.088,1.497-1.731,1.497
			c-0.643,0-1.731-0.315-1.731-1.497v-5.08h3.462V200.551z"/>
		<rect x="173.134" y="118.23" class="st3" width="6.474" height="11.698"/>
		<path class="st7" d="M179.609,117.752h-6.475c-0.265,0-0.479,0.214-0.479,0.479v11.698c0,0.265,0.214,0.479,0.479,0.479h6.475
			c0.265,0,0.479-0.214,0.479-0.479V118.23C180.088,117.966,179.874,117.752,179.609,117.752z M179.13,118.709v1.837h-5.518v-1.837
			H179.13z M173.613,129.449v-7.946h5.518v7.946H173.613z"/>
		<polygon class="st3" points="192.852,148.607 160.265,112.518 127.076,148.607 127.076,215.384 192.852,215.384 		"/>
		<path class="st7" d="M192.852,215.862h-65.776c-0.265,0-0.479-0.214-0.479-0.479v-66.777c0-0.12,0.045-0.236,0.126-0.324
			l33.189-36.089c0.091-0.099,0.219-0.155,0.352-0.155c0.001,0,0.002,0,0.002,0c0.135,0,0.263,0.058,0.353,0.158l32.587,36.089
			c0.079,0.088,0.123,0.202,0.123,0.321v66.777C193.331,215.648,193.117,215.862,192.852,215.862z M127.555,214.905h64.818v-66.114
			l-32.111-35.562l-32.707,35.565V214.905z"/>
		<path class="st7" d="M181.872,192.197h-10.375h-10.375c-0.265,0-0.479,0.214-0.479,0.479v14.928c0,0.265,0.214,0.479,0.479,0.479
			h10.375h10.375c0.265,0,0.479-0.214,0.479-0.479v-14.928C182.351,192.411,182.136,192.197,181.872,192.197z M161.6,198.237v-1.072
			h9.418v1.072H161.6z M171.975,195.135h9.418v1.073h-9.418V195.135z M171.018,196.208H161.6v-1.073h9.418V196.208z M161.6,199.194
			h9.418v1.073H161.6V199.194z M171.975,197.165h9.418v1.072h-9.418V197.165z M181.393,194.178h-9.418v-1.024h9.418V194.178z
			 M171.018,193.154v1.024H161.6v-1.024H171.018z M161.6,201.224h9.418v5.9H161.6V201.224z M171.975,207.124v-7.93h9.418v7.93
			H171.975z"/>
		<path class="st7" d="M137.578,214.905v-22.23c0-0.265,0.214-0.479,0.479-0.479h14.223c0.265,0,0.479,0.214,0.479,0.479v22.23
			H137.578z M138.535,214.905H151.8v-21.752h-13.265V214.905z"/>
		<path class="st7" d="M149.035,206.898c-0.858,0-1.555-0.698-1.555-1.556c0-0.858,0.697-1.555,1.555-1.555s1.555,0.698,1.555,1.555
			C150.59,206.2,149.893,206.898,149.035,206.898z M149.035,204.744c-0.33,0-0.598,0.268-0.598,0.598
			c0,0.33,0.268,0.599,0.598,0.599s0.598-0.269,0.598-0.599C149.633,205.012,149.365,204.744,149.035,204.744z"/>
		<path class="st7" d="M151.948,154.404h-11.785c-0.265,0-0.479,0.214-0.479,0.479v14.927c0,0.265,0.214,0.479,0.479,0.479h11.785
			c0.265,0,0.479-0.214,0.479-0.479v-14.927C152.427,154.618,152.213,154.404,151.948,154.404z M151.47,155.361v7.868
			c-3.783-0.335-5.01-6.356-5.022-6.419c-0.044-0.225-0.241-0.387-0.47-0.387c-0.229,0-0.426,0.163-0.47,0.388
			c-0.012,0.062-1.198,5.92-4.865,6.403v-7.852H151.47z M140.642,169.331v-5.143c3.062-0.304,4.636-3.469,5.335-5.503
			c0.711,2.068,2.328,5.303,5.492,5.513v5.134H140.642z"/>
		<path class="st7" d="M179.765,154.404H167.98c-0.265,0-0.479,0.214-0.479,0.479v14.927c0,0.265,0.214,0.479,0.479,0.479h11.785
			c0.265,0,0.479-0.214,0.479-0.479v-14.927C180.244,154.618,180.03,154.404,179.765,154.404z M179.287,155.361v7.868
			c-3.783-0.335-5.01-6.356-5.022-6.419c-0.044-0.225-0.241-0.387-0.47-0.387c-0.229,0-0.426,0.163-0.47,0.388
			c-0.012,0.062-1.198,5.92-4.865,6.403v-7.852H179.287z M168.459,169.331v-5.143c3.062-0.304,4.636-3.469,5.335-5.503
			c0.711,2.068,2.328,5.303,5.492,5.513v5.134H168.459z"/>
		<path class="st7" d="M184.802,183.293h-49.676c-0.265,0-0.479,0.214-0.479,0.479v2.303c0,1.633,1.329,2.963,2.962,2.963
			c0.239,0,0.467-0.036,0.69-0.089c0.064-0.015,0.123-0.038,0.185-0.058c0.162-0.05,0.316-0.112,0.465-0.188
			c0.055-0.029,0.11-0.057,0.163-0.089c0.167-0.099,0.322-0.213,0.465-0.341c0.021-0.018,0.043-0.033,0.063-0.052
			c0.171-0.162,0.323-0.343,0.452-0.541c0.528,0.816,1.442,1.359,2.484,1.359c1.041,0,1.955-0.543,2.484-1.359
			c0.528,0.816,1.442,1.359,2.484,1.359c1.042,0,1.956-0.544,2.484-1.359c0.528,0.816,1.442,1.359,2.484,1.359
			s1.955-0.544,2.484-1.359c0.528,0.816,1.442,1.359,2.484,1.359c1.042,0,1.955-0.543,2.484-1.359
			c0.528,0.816,1.442,1.359,2.484,1.359c1.042,0,1.956-0.544,2.484-1.359c0.528,0.816,1.442,1.359,2.484,1.359
			s1.955-0.544,2.484-1.359c0.528,0.816,1.442,1.359,2.484,1.359c1.042,0,1.955-0.543,2.484-1.359
			c0.528,0.816,1.442,1.359,2.484,1.359c1.042,0,1.955-0.544,2.484-1.359c0.528,0.816,1.442,1.359,2.484,1.359
			c1.633,0,2.962-1.329,2.962-2.963v-2.303C185.281,183.507,185.067,183.293,184.802,183.293z M184.324,186.075
			c0,1.106-0.899,2.005-2.005,2.005s-2.006-0.9-2.006-2.005c0-0.265-0.214-0.479-0.479-0.479s-0.479,0.214-0.479,0.479
			c0,1.106-0.899,2.005-2.005,2.005c-1.106,0-2.005-0.9-2.005-2.005c0-0.265-0.214-0.479-0.479-0.479s-0.479,0.214-0.479,0.479
			c0,1.106-0.899,2.005-2.005,2.005s-2.006-0.9-2.006-2.005c0-0.265-0.214-0.479-0.479-0.479c-0.265,0-0.479,0.214-0.479,0.479
			c0,1.106-0.899,2.005-2.005,2.005s-2.005-0.9-2.005-2.005c0-0.265-0.214-0.479-0.479-0.479s-0.479,0.214-0.479,0.479
			c0,1.106-0.9,2.005-2.006,2.005c-1.106,0-2.005-0.9-2.005-2.005c0-0.265-0.214-0.479-0.479-0.479s-0.479,0.214-0.479,0.479
			c0,1.106-0.899,2.005-2.005,2.005s-2.006-0.9-2.006-2.005c0-0.265-0.214-0.479-0.479-0.479c-0.265,0-0.479,0.214-0.479,0.479
			c0,1.106-0.899,2.005-2.005,2.005s-2.005-0.9-2.005-2.005c0-0.265-0.214-0.479-0.479-0.479s-0.479,0.214-0.479,0.479
			c0,1.106-0.9,2.005-2.006,2.005s-2.005-0.9-2.005-2.005c0-0.265-0.214-0.479-0.479-0.479s-0.479,0.214-0.479,0.479
			c0,1.106-0.899,2.005-2.005,2.005c-1.106,0-2.006-0.9-2.006-2.005c0-0.265-0.214-0.479-0.479-0.479s-0.479,0.214-0.479,0.479
			c0,1.106-0.899,2.005-2.005,2.005s-2.005-0.9-2.005-2.005v-1.825h48.719V186.075z"/>
		<path class="st3" d="M194.542,146.369l-34.277-36.606l-34.277,36.606c-0.473,0.598-0.372,1.467,0.226,1.94
			c0.598,0.473,1.467,0.372,1.94-0.226l32.111-33.868l32.111,33.868c0.473,0.598,1.341,0.699,1.94,0.226
			C194.914,147.836,195.015,146.967,194.542,146.369z"/>
		<path class="st7" d="M127.077,149.087c-0.406,0-0.816-0.131-1.161-0.403c-0.804-0.636-0.94-1.808-0.305-2.612l34.304-36.637
			c0.181-0.193,0.518-0.193,0.699,0l34.277,36.607c0.008,0.01,0.018,0.02,0.026,0.03c0.636,0.804,0.499,1.976-0.305,2.612
			c-0.805,0.637-1.977,0.499-2.613-0.305l-31.735-33.469l-31.764,33.502C128.153,148.853,127.62,149.087,127.077,149.087z
			 M160.265,110.463l-33.928,36.234c-0.283,0.36-0.217,0.929,0.174,1.238c0.389,0.308,0.959,0.24,1.267-0.148l32.14-33.901
			c0.181-0.191,0.514-0.19,0.695,0l32.111,33.868c0.336,0.423,0.906,0.488,1.295,0.181c0.386-0.305,0.455-0.864,0.159-1.254
			L160.265,110.463z"/>
		<path class="st7" d="M232.027,197.358h-6.584c-0.265,0-0.479-0.214-0.479-0.479v-9.317c0-0.265,0.214-0.479,0.479-0.479h6.584
			c0.265,0,0.479,0.214,0.479,0.479v9.317C232.505,197.143,232.291,197.358,232.027,197.358z M225.921,196.4h5.627v-8.36h-5.627
			V196.4z"/>
		<path class="st7" d="M301.271,158.23h-10.773c-0.265,0-0.479-0.214-0.479-0.479v-9.964c0-0.265,0.214-0.479,0.479-0.479h10.773
			c0.265,0,0.479,0.214,0.479,0.479v9.964C301.749,158.016,301.535,158.23,301.271,158.23z M290.976,157.273h9.816v-9.007h-9.816
			V157.273z"/>
		<path class="st7" d="M301.271,148.266h-10.773c-0.161,0-0.31-0.081-0.399-0.215c-0.089-0.134-0.104-0.303-0.041-0.451l0.808-1.894
			c0.075-0.176,0.249-0.291,0.44-0.291h9.159c0.192,0,0.365,0.115,0.44,0.291l0.807,1.894c0.063,0.148,0.048,0.317-0.041,0.451
			C301.581,148.185,301.432,148.266,301.271,148.266z M291.222,147.308h9.325l-0.398-0.937h-8.527L291.222,147.308z"/>
		<path class="st7" d="M299.176,156.381h-6.584c-0.265,0-0.479-0.214-0.479-0.479v-6.48c0-0.265,0.214-0.479,0.479-0.479h6.584
			c0.265,0,0.479,0.214,0.479,0.479v6.48C299.655,156.167,299.441,156.381,299.176,156.381z M293.071,155.424h5.627v-5.523h-5.627
			V155.424z"/>
		<path class="st7" d="M234.121,158.23h-10.773c-0.265,0-0.479-0.214-0.479-0.479v-9.964c0-0.265,0.214-0.479,0.479-0.479h10.773
			c0.265,0,0.479,0.214,0.479,0.479v9.964C234.6,158.016,234.386,158.23,234.121,158.23z M223.826,157.273h9.816v-9.007h-9.816
			V157.273z"/>
		<path class="st7" d="M234.121,148.266h-10.773c-0.161,0-0.31-0.081-0.399-0.215c-0.089-0.134-0.104-0.303-0.041-0.451l0.808-1.894
			c0.075-0.176,0.249-0.291,0.44-0.291h9.159c0.192,0,0.365,0.115,0.44,0.291l0.807,1.894c0.063,0.148,0.048,0.317-0.041,0.451
			C234.432,148.185,234.282,148.266,234.121,148.266z M224.072,147.308h9.325l-0.398-0.937h-8.527L224.072,147.308z"/>
		<path class="st7" d="M232.027,156.381h-6.584c-0.265,0-0.479-0.214-0.479-0.479v-6.48c0-0.265,0.214-0.479,0.479-0.479h6.584
			c0.265,0,0.479,0.214,0.479,0.479v6.48C232.505,156.167,232.291,156.381,232.027,156.381z M225.921,155.424h5.627v-5.523h-5.627
			V155.424z"/>
		<path class="st7" d="M299.176,197.358h-6.584c-0.265,0-0.479-0.214-0.479-0.479v-9.317c0-0.265,0.214-0.479,0.479-0.479h6.584
			c0.265,0,0.479,0.214,0.479,0.479v9.317C299.655,197.143,299.441,197.358,299.176,197.358z M293.071,196.4h5.627v-8.36h-5.627
			V196.4z"/>
		<path class="st7" d="M274.7,201.619h-1.601c-0.265,0-0.479-0.214-0.479-0.479v-1.602c0-0.265,0.214-0.479,0.479-0.479h1.601
			c0.265,0,0.479,0.214,0.479,0.479v1.602C275.178,201.405,274.964,201.619,274.7,201.619z M273.577,200.662h0.644v-0.644h-0.644
			V200.662z"/>
		<path class="st7" d="M285.369,199.37h-5.587c-0.265,0-0.479,0.214-0.479,0.479v5.586c0,0.265,0.214,0.479,0.479,0.479h5.587
			c0.265,0,0.479-0.214,0.479-0.479v-5.586C285.847,199.584,285.633,199.37,285.369,199.37z M284.89,200.328v0.437h-4.63v-0.437
			H284.89z M280.26,204.957v-3.236h4.63v3.236H280.26z"/>
		<path class="st7" d="M271.287,138.19h-2.741h-12.475h-2.741c-0.265,0-0.479,0.214-0.479,0.479v27.506
			c0,0.265,0.214,0.479,0.479,0.479h2.741h12.475h2.741c0.265,0,0.479-0.214,0.479-0.479v-27.506
			C271.766,138.404,271.552,138.19,271.287,138.19z M270.809,154.65h-1.783v-15.503h1.783V154.65z M268.068,139.148v15.503h-11.517
			v-15.503H268.068z M255.593,139.148v15.503h-1.783v-15.503H255.593z M253.81,155.607h1.783v10.089h-1.783V155.607z
			 M256.551,165.697v-10.089h11.517v10.089H256.551z M269.025,165.697v-10.089h1.783v10.089H269.025z"/>
		<path class="st3" d="M242.979,142.443c-0.562,0-1.12-0.246-1.5-0.718c-0.665-0.827-0.534-2.037,0.294-2.703l19.331-15.548
			c0.703-0.565,1.706-0.565,2.409,0l19.332,15.548c0.828,0.665,0.959,1.876,0.294,2.703c-0.665,0.828-1.875,0.958-2.703,0.294
			l-18.128-14.579l-18.127,14.579C243.828,142.304,243.402,142.443,242.979,142.443z"/>
		<path class="st7" d="M318.476,132.792c-0.009-0.258-0.221-0.462-0.479-0.462h-42.71l-11.474-9.228c-0.871-0.7-2.138-0.702-3.009,0
			l-11.473,9.228h-42.709c-0.258,0-0.469,0.204-0.479,0.462l-1.539,44.187c-0.005,0.13,0.044,0.256,0.135,0.349
			c0.09,0.093,0.214,0.146,0.344,0.146h3.978v37.91c0,0.265,0.214,0.479,0.479,0.479h105.538c0.265,0,0.479-0.214,0.479-0.479
			v-37.91h3.978c0.13,0,0.254-0.053,0.344-0.146c0.091-0.093,0.139-0.219,0.135-0.349L318.476,132.792z M282.546,139.396
			c0.301,0.242,0.489,0.586,0.531,0.969c0.041,0.383-0.068,0.76-0.31,1.06c-0.498,0.619-1.408,0.72-2.03,0.221l-18.127-14.579
			c-0.176-0.141-0.424-0.141-0.6,0l-18.127,14.579c-0.599,0.48-1.55,0.376-2.03-0.221c-0.241-0.3-0.351-0.677-0.309-1.06
			c0.041-0.384,0.23-0.728,0.531-0.969l19.331-15.548c0.262-0.211,0.583-0.316,0.904-0.316c0.322,0,0.643,0.106,0.905,0.316
			L282.546,139.396z M276.211,177.473v37.432h-4.331v-30.868c0-0.265-0.214-0.479-0.479-0.479h-2.741h-12.475h-2.741
			c-0.265,0-0.479,0.214-0.479,0.479v30.868h-4.56v-37.432H276.211z M247.45,180.382h-13.329h-10.773h-13.329v-2.908h37.431V180.382
			z M223.826,185.513h9.816v13.547h-9.816V185.513z M233.643,184.556h-9.816v-3.217h9.816V184.556z M210.019,181.339h12.85v18.2
			c0,0.265,0.214,0.479,0.479,0.479h10.773c0.265,0,0.479-0.214,0.479-0.479v-18.2h12.85v33.566h-37.431V181.339z M253.925,184.516
			h1.783v30.39h-1.783V184.516z M256.666,214.905v-30.39h11.518v30.39H256.666z M269.14,214.905v-30.39h1.783v30.39H269.14z
			 M277.168,214.905v-33.566h12.85v18.2c0,0.265,0.214,0.479,0.479,0.479h10.773c0.265,0,0.479-0.214,0.479-0.479v-18.2h12.85
			v33.566H277.168z M290.976,185.513h9.816v13.547h-9.816V185.513z M300.792,184.556h-9.816v-3.217h9.816V184.556z M314.6,180.382
			h-13.329h-10.773h-13.329v-2.908H314.6V180.382z M315.078,176.516H276.69h-28.761H209.54h-3.961l1.505-43.229h41.058l-6.668,5.363
			c-0.5,0.401-0.813,0.974-0.882,1.612c-0.07,0.637,0.113,1.264,0.515,1.763c0.459,0.57,1.141,0.896,1.873,0.896
			c0.545,0,1.079-0.188,1.503-0.53l2.968-2.387v27.762c0,0.265,0.214,0.479,0.479,0.479s0.479-0.214,0.479-0.479v-28.532
			l13.902-11.181l13.902,11.181v28.532c0,0.265,0.214,0.479,0.479,0.479s0.479-0.214,0.479-0.479v-27.763l2.969,2.388
			c1.032,0.83,2.546,0.663,3.375-0.367c0.402-0.5,0.585-1.126,0.516-1.763c-0.069-0.638-0.383-1.21-0.882-1.612l-6.668-5.363h41.058
			l1.504,43.229H315.078z"/>
		<path class="st7" d="M266.222,202.933c-0.317,0-0.574-0.257-0.574-0.574v-2.826c0-0.317,0.257-0.574,0.574-0.574
			s0.574,0.257,0.574,0.574v2.826C266.796,202.676,266.539,202.933,266.222,202.933z"/>
	</g>
</g>
<g id="Ebene_2">
	<path class="st3" d="M68.982,31.076c-0.972-1.68-2.785-2.813-4.866-2.813c-1.025,0-1.984,0.279-2.812,0.758
		c-0.828-0.48-1.786-0.758-2.812-0.758c-2.054,0-3.846,1.105-4.827,2.75c-0.358-0.072-0.728-0.11-1.108-0.11
		c-3.106,0-5.623,2.518-5.623,5.623s2.518,5.623,5.623,5.623c2.055,0,12.981,0,15.062,0c3.106,0,5.623-2.518,5.623-5.623
		C73.243,33.891,71.428,31.686,68.982,31.076z"/>
	<path class="st7" d="M67.62,42.628H52.559c-3.365,0-6.102-2.737-6.102-6.102c0-3.364,2.737-6.102,6.102-6.102
		c0.29,0,0.583,0.021,0.874,0.064c1.128-1.676,3.037-2.704,5.061-2.704c0.977,0,1.943,0.238,2.812,0.691
		c0.869-0.453,1.836-0.691,2.812-0.691c2.1,0,4.065,1.098,5.176,2.879c2.618,0.744,4.43,3.127,4.43,5.863
		C73.722,39.891,70.985,42.628,67.62,42.628z M52.559,31.382c-2.837,0-5.145,2.308-5.145,5.145s2.308,5.145,5.145,5.145H67.62
		c2.837,0,5.145-2.308,5.145-5.145c0-2.363-1.603-4.414-3.899-4.986c-0.125-0.032-0.234-0.113-0.298-0.225
		c-0.919-1.588-2.625-2.574-4.452-2.574c-0.898,0-1.787,0.24-2.571,0.694c-0.15,0.086-0.331,0.086-0.48,0
		c-0.783-0.454-1.672-0.694-2.571-0.694c-1.825,0-3.476,0.941-4.416,2.517c-0.104,0.174-0.308,0.265-0.505,0.224
		C53.236,31.416,52.895,31.382,52.559,31.382z"/>
	<polygon class="st3" points="327.439,186.764 321.46,186.764 321.46,189.187 322.984,189.187 322.984,215.384 325.916,215.384 
		325.916,189.187 327.439,189.187 	"/>
	<path class="st7" d="M327.439,186.286h-5.979c-0.264,0-0.479,0.214-0.479,0.479v2.422c0,0.265,0.214,0.479,0.479,0.479h1.045
		v25.719c0,0.265,0.214,0.479,0.479,0.479h2.932c0.265,0,0.479-0.214,0.479-0.479v-25.719h1.045c0.265,0,0.479-0.214,0.479-0.479
		v-2.422C327.918,186.5,327.704,186.286,327.439,186.286z M325.437,214.905h-1.975v-25.24h1.975V214.905z M326.96,188.708h-5.022
		v-1.465h5.022V188.708z"/>
	<circle class="st3" cx="324.45" cy="182.928" r="4.634"/>
	<path class="st7" d="M324.45,188.041c-2.819,0-5.113-2.294-5.113-5.113c0-2.819,2.294-5.112,5.113-5.112s5.113,2.293,5.113,5.112
		C329.563,185.747,327.269,188.041,324.45,188.041z M324.45,178.773c-2.292,0-4.156,1.864-4.156,4.155s1.864,4.156,4.156,4.156
		c2.292,0,4.156-1.864,4.156-4.156S326.742,178.773,324.45,178.773z"/>
	<path class="st3" d="M176.845,55.336c-1.051-1.815-3.009-3.039-5.257-3.039c-1.108,0-2.143,0.301-3.038,0.819
		c-0.894-0.518-1.93-0.819-3.038-0.819c-2.22,0-4.155,1.194-5.215,2.971c-0.387-0.077-0.787-0.119-1.197-0.119
		c-3.355,0-6.075,2.72-6.075,6.075s2.72,6.075,6.075,6.075c2.22,0,14.024,0,16.272,0c3.355,0,6.075-2.72,6.075-6.075
		C181.449,58.377,179.488,55.995,176.845,55.336z"/>
	<path class="st7" d="M175.373,67.778h-16.272c-3.614,0-6.553-2.94-6.553-6.554c0-3.614,2.94-6.554,6.553-6.554
		c0.322,0,0.644,0.024,0.964,0.072c1.21-1.811,3.268-2.924,5.448-2.924c1.054,0,2.099,0.259,3.038,0.752
		c0.938-0.493,1.983-0.752,3.038-0.752c2.261,0,4.375,1.185,5.567,3.105c2.82,0.794,4.772,3.357,4.772,6.301
		C181.927,64.838,178.987,67.778,175.373,67.778z M159.101,55.627c-3.085,0-5.596,2.511-5.596,5.597
		c0,3.086,2.511,5.597,5.596,5.597h16.272c3.086,0,5.597-2.511,5.597-5.597c0-2.571-1.744-4.802-4.241-5.424
		c-0.125-0.031-0.234-0.113-0.298-0.225c-1-1.727-2.856-2.8-4.843-2.8c-0.978,0-1.945,0.261-2.798,0.755
		c-0.15,0.086-0.331,0.086-0.48,0c-0.852-0.494-1.82-0.755-2.798-0.755c-1.985,0-3.781,1.024-4.803,2.738
		c-0.104,0.174-0.302,0.266-0.506,0.224C159.84,55.664,159.469,55.627,159.101,55.627z"/>
	<path class="st3" d="M114.378,215.296c0.982-3.146,1.326-4.436,1.39-7.308c0.016-0.714-0.022-1.432-0.102-2.142l-0.75-6.579h1.241
		l1,3.996l1.201-3.942h1.119l-0.408,3.942l2.38-3.996h0.654c-1.829,7.531-1.502,12.538-0.395,15.971L114.378,215.296z"/>
	<path class="st7" d="M114.377,215.774c-0.151,0-0.294-0.072-0.384-0.193c-0.092-0.123-0.118-0.282-0.073-0.428
		c0.984-3.15,1.307-4.402,1.368-7.176c0.015-0.668-0.019-1.367-0.099-2.077l-0.75-6.579c-0.015-0.136,0.028-0.271,0.119-0.373
		s0.221-0.16,0.357-0.16h1.241c0.22,0,0.411,0.15,0.465,0.362l0.58,2.321l0.698-2.291c0.062-0.201,0.248-0.339,0.458-0.339h1.118
		c0.136,0,0.265,0.057,0.355,0.158c0.091,0.101,0.135,0.235,0.121,0.37l-0.184,1.783l1.269-2.131
		c0.087-0.145,0.243-0.234,0.411-0.234h0.653c0.147,0,0.285,0.067,0.377,0.183c0.091,0.115,0.123,0.266,0.089,0.409
		c-1.56,6.421-1.697,11.707-0.405,15.711c0.047,0.145,0.022,0.303-0.067,0.427c-0.089,0.124-0.232,0.197-0.384,0.199l-7.33,0.057
		C114.38,215.774,114.378,215.774,114.377,215.774z M115.452,199.746l0.689,6.047c0.085,0.753,0.121,1.496,0.105,2.206
		c-0.06,2.705-0.354,4.012-1.217,6.813l6.036-0.047c-1.07-3.827-0.971-8.667,0.294-14.413l-1.881,3.156
		c-0.115,0.193-0.351,0.279-0.562,0.209c-0.213-0.071-0.349-0.28-0.325-0.504l0.353-3.414h-0.233l-1.097,3.602
		c-0.063,0.205-0.258,0.33-0.47,0.339c-0.215-0.006-0.4-0.154-0.452-0.362l-0.909-3.633H115.452z"/>
	<path class="st3" d="M126.487,185.723c-0.923-2.055-2.644-3.441-4.62-3.441c-0.974,0-1.884,0.341-2.669,0.928
		c-0.786-0.587-1.696-0.928-2.67-0.928c-1.951,0-3.652,1.352-4.583,3.364c-0.34-0.088-0.692-0.135-1.052-0.135
		c-2.949,0-5.339,3.079-5.339,6.878c0,3.799,2.39,6.878,5.339,6.878c1.951,0,12.325,0,14.3,0c2.949,0,5.339-3.079,5.339-6.878
		C130.533,189.166,128.809,186.469,126.487,185.723z"/>
	<path class="st7" d="M125.194,199.746h-14.3c-3.208,0-5.818-3.3-5.818-7.357s2.61-7.357,5.818-7.357
		c0.262,0,0.524,0.023,0.787,0.068c1.07-2.043,2.899-3.297,4.847-3.297c0.928,0,1.844,0.283,2.67,0.823
		c0.825-0.539,1.741-0.823,2.67-0.823c2.029,0,3.916,1.348,4.968,3.533c2.47,0.913,4.176,3.775,4.176,7.052
		C131.012,196.446,128.402,199.746,125.194,199.746z M110.894,185.99c-2.68,0-4.86,2.871-4.86,6.4c0,3.529,2.181,6.399,4.86,6.399
		h14.3c2.68,0,4.86-2.871,4.86-6.399c0-2.955-1.527-5.508-3.715-6.211c-0.129-0.042-0.235-0.136-0.29-0.26
		c-0.875-1.948-2.478-3.158-4.183-3.158c-0.829,0-1.654,0.288-2.384,0.833c-0.17,0.126-0.402,0.126-0.572,0
		c-0.73-0.545-1.554-0.833-2.384-0.833c-1.703,0-3.255,1.154-4.148,3.086c-0.098,0.21-0.33,0.322-0.553,0.263
		C111.516,186.03,111.202,185.99,110.894,185.99z"/>
	<path class="st3" d="M278.227,47.834c1.051-1.815,3.009-3.039,5.257-3.039c1.108,0,2.143,0.301,3.038,0.819
		c0.894-0.518,1.93-0.819,3.038-0.819c2.22,0,4.155,1.194,5.215,2.971c0.387-0.077,0.787-0.119,1.197-0.119
		c3.355,0,6.075,2.72,6.075,6.075c0,3.355-2.72,6.075-6.075,6.075c-2.22,0-14.024,0-16.272,0c-3.355,0-6.075-2.72-6.075-6.075
		C273.624,50.876,275.585,48.493,278.227,47.834z"/>
	<path class="st7" d="M295.971,60.276h-16.272c-3.614,0-6.553-2.94-6.553-6.554c0-2.944,1.952-5.507,4.772-6.301
		c1.192-1.92,3.307-3.105,5.567-3.105c1.055,0,2.099,0.259,3.038,0.752c0.938-0.493,1.982-0.752,3.037-0.752
		c2.181,0,4.239,1.112,5.449,2.924c0.321-0.048,0.643-0.072,0.963-0.072c3.614,0,6.554,2.94,6.554,6.554
		S299.585,60.276,295.971,60.276z M283.484,45.274c-1.987,0-3.843,1.073-4.843,2.8c-0.065,0.112-0.173,0.193-0.298,0.225
		c-2.497,0.622-4.241,2.853-4.241,5.424c0,3.086,2.511,5.597,5.596,5.597h16.272c3.086,0,5.597-2.511,5.597-5.597
		s-2.511-5.597-5.597-5.597c-0.365,0-0.737,0.037-1.103,0.11c-0.195,0.044-0.4-0.05-0.505-0.224
		c-1.023-1.715-2.818-2.738-4.804-2.738c-0.978,0-1.945,0.261-2.797,0.755c-0.15,0.086-0.331,0.086-0.48,0
		C285.429,45.535,284.462,45.274,283.484,45.274z M278.227,47.834h0.009H278.227z"/>
	<rect x="197.007" y="202.616" class="st3" width="8.547" height="12.768"/>
	<rect x="195.718" y="200.307" class="st3" width="11.124" height="2.308"/>
	<rect x="198.057" y="197.999" class="st3" width="6.447" height="2.308"/>
	<path class="st7" d="M206.843,199.828h-1.86v-1.83c0-0.265-0.214-0.479-0.479-0.479h-6.447c-0.265,0-0.479,0.214-0.479,0.479v1.83
		h-1.861c-0.265,0-0.479,0.214-0.479,0.479v2.309c0,0.265,0.214,0.479,0.479,0.479h0.81v12.29c0,0.265,0.214,0.479,0.479,0.479
		h8.547c0.265,0,0.479-0.214,0.479-0.479v-12.29h0.81c0.265,0,0.479-0.214,0.479-0.479v-2.309
		C207.321,200.042,207.107,199.828,206.843,199.828z M198.536,198.477h5.49v1.351h-5.49V198.477z M205.075,214.905h-1.196v-9.001
		c0-0.265-0.214-0.479-0.479-0.479s-0.479,0.214-0.479,0.479v9.001h-1.313v-9.001c0-0.265-0.214-0.479-0.479-0.479
		c-0.265,0-0.479,0.214-0.479,0.479v9.001h-1.314v-9.001c0-0.265-0.214-0.479-0.479-0.479c-0.265,0-0.479,0.214-0.479,0.479v9.001
		h-0.895v-11.811h7.59V214.905z M206.364,202.137h-0.81h-8.547h-0.81v-1.352h1.861h6.447h1.86V202.137z"/>
</g>
</svg>
