<?xml version="1.0" standalone="no"?>
<!DOCTYPE svg PUBLIC "-//W3C//DTD SVG 20010904//EN"
 "http://www.w3.org/TR/2001/REC-SVG-20010904/DTD/svg10.dtd">
<svg version="1.0" xmlns="http://www.w3.org/2000/svg"
 width="700.000000pt" height="700.000000pt" viewBox="0 0 700.000000 700.000000"
 preserveAspectRatio="xMidYMid meet">
<metadata>
Created by potrace 1.11, written by Peter Selinger 2001-2013
</metadata>
<g transform="translate(0.000000,700.000000) scale(0.100000,-0.100000)"
fill="#000000" stroke="none">
<path d="M3170 6954 c-109 -12 -249 -32 -345 -50 -361 -66 -811 -243 -1147
-451 -153 -94 -397 -277 -499 -373 -189 -178 -284 -280 -406 -435 -106 -136
-192 -263 -286 -425 -84 -145 -181 -355 -255 -555 -66 -178 -146 -504 -167
-680 -4 -32 -9 -68 -11 -80 -18 -93 -26 -576 -11 -715 13 -113 27 -223 37
-275 5 -27 12 -61 14 -75 98 -538 389 -1153 734 -1553 316 -366 606 -607 987
-820 230 -128 561 -263 765 -312 3 0 56 -13 119 -29 62 -15 137 -31 165 -36
28 -5 62 -11 76 -14 37 -7 175 -25 260 -33 97 -10 479 -10 598 0 341 27 782
139 1082 274 62 28 294 144 340 170 142 81 356 229 480 332 30 25 68 57 84 71
39 32 280 273 326 325 129 146 321 417 408 575 83 152 116 219 170 346 126
295 198 553 247 879 23 162 29 257 30 480 0 354 -34 617 -117 909 -11 38 -21
76 -23 85 -7 33 -65 201 -105 302 -120 301 -306 621 -517 884 -94 117 -348
381 -439 455 -31 25 -63 52 -72 60 -9 8 -44 35 -77 60 -33 25 -62 47 -65 50
-18 19 -235 159 -335 215 -269 153 -545 265 -850 344 -172 45 -296 68 -535 97
-104 12 -538 11 -660 -2z m565 -248 c55 -4 111 -9 125 -11 14 -1 50 -6 80 -10
68 -8 291 -52 345 -67 57 -16 57 -16 84 -22 115 -25 428 -150 594 -235 216
-112 368 -211 567 -370 87 -70 341 -315 400 -386 187 -226 308 -405 420 -620
169 -325 302 -742 336 -1060 3 -27 7 -61 10 -75 27 -151 21 -561 -10 -777 -3
-24 -8 -60 -11 -81 -3 -21 -8 -49 -10 -62 -3 -14 -10 -45 -15 -70 -31 -149
-49 -217 -93 -352 -120 -362 -291 -685 -527 -990 -97 -125 -337 -375 -445
-464 -33 -27 -62 -52 -65 -55 -15 -16 -178 -134 -265 -191 -171 -112 -378
-220 -576 -299 -211 -84 -545 -171 -744 -194 -27 -3 -61 -8 -75 -10 -127 -23
-538 -23 -710 0 -19 2 -55 7 -80 10 -105 13 -131 17 -238 41 -515 114 -956
326 -1369 657 -88 70 -331 309 -415 407 -255 300 -462 667 -592 1051 -42 123
-96 324 -110 409 -3 19 -8 46 -11 60 -11 50 -35 246 -41 330 -12 155 -5 547
11 593 2 7 6 35 9 62 5 45 36 220 51 285 3 14 7 37 10 52 9 47 75 258 112 358
119 318 312 659 513 900 25 30 54 66 65 79 11 14 65 72 120 129 315 329 698
587 1121 756 77 31 146 56 152 56 7 0 20 5 30 10 17 10 282 84 336 94 16 3 52
10 80 15 60 12 104 19 166 27 25 3 56 7 70 9 14 3 72 8 130 11 58 4 106 7 107
8 5 4 274 -2 358 -8z"/>
<path d="M1770 5583 c0 -2 92 -232 204 -511 112 -279 364 -905 559 -1392 196
-487 372 -925 392 -975 48 -116 64 -176 54 -200 -12 -33 -98 -127 -162 -178
-108 -87 -321 -175 -512 -212 -83 -16 -124 -23 -138 -24 -5 -1 -6 -9 -3 -18 3
-10 7 -29 10 -43 2 -14 25 -109 50 -211 26 -103 48 -195 51 -205 2 -11 29
-122 60 -249 68 -274 57 -228 86 -354 l23 -103 61 6 c135 14 158 18 309 51
244 54 561 212 761 378 110 92 281 272 361 379 201 272 405 671 618 1213 26
66 51 129 56 140 31 68 162 438 281 795 77 228 166 494 199 590 189 561 354
1050 364 1086 l13 41 -735 -1 c-645 -1 -735 -3 -737 -16 -6 -37 -16 -85 -45
-230 -18 -85 -34 -166 -37 -180 -2 -14 -20 -98 -38 -187 -19 -90 -36 -173 -39
-185 -2 -13 -22 -113 -44 -223 -23 -110 -43 -211 -46 -225 -28 -143 -50 -240
-56 -240 -4 0 -7 6 -7 13 0 11 -97 378 -123 467 -8 27 -139 522 -195 735 -5
17 -9 35 -11 40 -2 6 -10 37 -19 70 -9 33 -22 83 -30 111 l-15 51 -760 0
c-418 0 -760 -2 -760 -4z m1370 -415 c24 -90 56 -212 72 -273 16 -60 36 -135
44 -165 8 -30 16 -62 19 -70 2 -8 23 -85 45 -170 23 -85 53 -195 66 -245 30
-112 101 -391 108 -425 3 -14 24 -101 47 -195 23 -93 42 -176 42 -182 0 -7 5
-13 11 -14 35 -3 194 -4 207 -1 15 3 41 100 74 272 3 14 8 36 10 50 3 14 12
59 20 102 7 42 18 94 24 115 5 21 12 55 15 77 4 21 8 41 10 45 2 3 7 22 10 41
3 19 30 157 61 305 30 149 57 279 60 290 2 11 11 56 20 100 9 44 18 91 21 105
2 14 7 36 10 50 6 28 9 39 25 120 5 30 12 64 14 75 3 11 10 49 18 85 l13 65
452 3 c249 1 452 0 452 -2 0 -4 -184 -553 -203 -606 -3 -8 -69 -206 -147 -440
-78 -234 -144 -432 -147 -440 -3 -8 -32 -93 -65 -189 -167 -490 -370 -985
-545 -1327 -206 -404 -368 -608 -673 -847 -82 -65 -271 -164 -406 -213 -97
-35 -272 -79 -281 -70 -4 4 -58 210 -67 256 -2 8 -6 26 -9 40 -14 54 -68 276
-73 300 -3 14 -7 33 -10 42 -17 56 -17 56 69 83 90 29 243 92 267 109 8 6 31
20 50 30 120 64 280 225 336 335 55 110 37 228 -71 476 -18 42 -857 2132 -917
2285 -27 69 -53 133 -58 142 -6 10 -10 22 -10 28 0 7 160 10 474 10 l473 0 43
-162z"/>
</g>
</svg>
