<svg xmlns="http://www.w3.org/2000/svg" width="24" height="24" viewBox="0 0 24 24" data-token-name="icon-twitter"><title>icon-twitter</title><path d="M19.6,6.2c0.8-0.5,1.5-1.4,1.8-2.4c-0.8,0.5-1.7,0.8-2.6,1C18,4,17,3.5,15.8,3.5c-2.2,0-4.1,1.9-4.1,4.3c0,0.3,0,0.7,0.1,1 C8.5,8.6,5.5,6.9,3.5,4.3C3.1,4.9,2.9,5.7,2.9,6.5c0,1.5,0.7,2.8,1.8,3.6c-0.7,0-1.3-0.2-1.8-0.5v0.1c0,2.1,1.4,3.8,3.3,4.2 c-0.3,0.1-0.7,0.2-1.1,0.2c-0.3,0-0.5,0-0.8-0.1c0.5,1.7,2,2.9,3.8,3c-1.4,1.1-3.1,1.8-5,1.8c-0.3,0-0.6,0-1-0.1 c1.8,1.2,3.9,1.9,6.2,1.9c7.5,0,11.5-6.5,11.5-12.2c0-0.2,0-0.4,0-0.6c0.8-0.6,1.5-1.4,2-2.2C21.2,5.9,20.4,6.1,19.6,6.2L19.6,6.2z" /></svg>
