<svg xmlns="http://www.w3.org/2000/svg" width="24" height="24" viewBox="0 0 24 24" data-token-name="icon-xing"><title>icon-xing</title><path d="M9.3,7.1C9.1,6.7,8.9,6.6,8.6,6.6H6c-0.2,0-0.3,0.1-0.3,0.2C5.6,6.8,5.6,7,5.7,7.1l1.7,3c0,0,0,0,0,0L4.7,15 c-0.1,0.1-0.1,0.3,0,0.4c0.1,0.1,0.2,0.2,0.3,0.2h2.6c0.3,0,0.5-0.2,0.7-0.5c1.8-3.2,2.7-4.8,2.8-4.9L9.3,7.1z M19.8,3.6 c0.1-0.2,0.1-0.3,0-0.4C19.8,3.1,19.7,3,19.5,3h-2.6c-0.3,0-0.5,0.2-0.7,0.5c-3.7,6.6-5.6,10-5.8,10.2l3.7,6.7 c0.2,0.3,0.4,0.5,0.7,0.5h2.6c0.2,0,0.3-0.1,0.3-0.2c0.1-0.1,0.1-0.3,0-0.4l-3.6-6.7v0L19.8,3.6z" /></svg>
