<svg   viewBox="0 0 48 48" fill="none" xmlns="http://www.w3.org/2000/svg">
<path fill-rule="evenodd" clip-rule="evenodd" d="M22.8722 18.4329L28.7645 18.5326L32.8285 22.831L33.0872 39.0098L30.1982 42.0711L19.4155 41.8886L16.4271 38.7279L16.2162 25.5364L22.8722 18.4329ZM23.5456 19.9437L17.7255 26.1552L17.9173 38.1569L20.0379 40.3997L29.5278 40.5603L31.5778 38.388L31.3383 23.402L28.1421 20.0215L23.5456 19.9437Z"   fill="var(--ks-color-primary)"/>
<path fill-rule="evenodd" clip-rule="evenodd" d="M29.9783 4.99172L31.7476 6.86303L31.8188 11.3161L27.7011 15.6793L26.2627 15.655L24.4194 13.7054L24.375 10.9292L29.9783 4.99172ZM25.8843 11.5509L25.9096 13.1344L26.8851 14.1661L27.0307 14.1686L30.3095 10.6943L30.2574 7.43403L30.0132 7.17581L25.8843 11.5509Z"   fill="var(--ks-color-primary)"/>
<path fill-rule="evenodd" clip-rule="evenodd" d="M15.9589 9.97081L18.5505 10.0147L25.1272 15.1747L23.5718 16.8229L18.0689 16.7298L14.0318 12.2948L15.9589 9.97081ZM16.6853 11.4825L16.0188 12.2862L18.7087 15.2412L22.9014 15.3121L22.9057 15.3076L18.0601 11.5058L16.6853 11.4825Z"   fill="var(--ks-color-primary)"/>
</svg>
