<svg viewBox="0 0 48 48" fill="none" xmlns="http://www.w3.org/2000/svg">
<g clip-path="url(#clip0_1411_3756)">
<path d="M8 0H42L48 6V40L40 48H6L0 42V0H8Z" fill="var(--ks-background-color-accent)"/>
<path fill-rule="evenodd" clip-rule="evenodd" d="M22.9134 18.7342L28.456 18.8279L32.2788 22.8711L32.5221 38.0897L29.8046 40.9693L19.6619 40.7977L16.8508 37.8245L16.6525 25.416L22.9134 18.7342ZM23.5468 20.1553L18.0722 25.998L18.2526 37.2874L20.2474 39.3972L29.174 39.5482L31.1024 37.5049L30.877 23.4083L27.8705 20.2284L23.5468 20.1553Z" fill="var(--ks-color-primary)"/>
<path fill-rule="evenodd" clip-rule="evenodd" d="M29.5978 6.09073L31.2621 7.85096L31.3291 12.0397L27.4557 16.144L26.1027 16.1211L24.3688 14.2872L24.3271 11.6758L29.5978 6.09073ZM25.7468 12.2606L25.7706 13.7501L26.6882 14.7206L26.8252 14.7229L29.9093 11.4549L29.8603 8.38807L29.6306 8.14518L25.7468 12.2606Z" fill="var(--ks-color-primary)"/>
<path fill-rule="evenodd" clip-rule="evenodd" d="M16.4104 10.7743L18.8482 10.8155L25.0345 15.6693L23.5714 17.2197L18.3951 17.1321L14.5977 12.9604L16.4104 10.7743ZM17.0937 12.1963L16.4668 12.9522L18.997 15.7318L22.9408 15.7986L22.9449 15.7943L18.3869 12.2181L17.0937 12.1963Z" fill="var(--ks-color-primary)"/>
</g>
<defs>
<clipPath id="clip0_1411_3756">

</clipPath>
</defs>
</svg>
