<svg   viewBox="0 0 48 48" fill="none" xmlns="http://www.w3.org/2000/svg">
<path fill-rule="evenodd" clip-rule="evenodd" d="M15.2768 13.6619C14.1493 13.3392 13.0826 13.2651 12.0683 13.4256L12.064 13.4263C11.0766 13.5765 10.2162 13.9846 9.46877 14.6595L9.46684 14.6613C8.88594 15.182 8.40759 15.9075 8.05106 16.8689L10.7674 17.6462C10.9513 17.2551 11.1901 16.9123 11.4918 16.6309C11.9307 16.2161 12.4432 15.9386 13.023 15.8198C13.5817 15.6985 14.1441 15.7167 14.6997 15.8757C15.2613 16.0364 15.7592 16.3142 16.1765 16.7146C16.6046 17.1207 16.9049 17.6155 17.0718 18.1843C17.2443 18.7724 17.2395 19.3806 17.0864 19.991C16.9424 20.5649 16.6858 21.0715 16.3087 21.4932L16.3048 21.4976C15.955 21.8824 15.5384 22.1991 15.0621 22.4502C14.6176 22.6844 14.1339 22.8904 13.6127 23.0694L13.6032 23.0727C13.0055 23.2687 12.4825 23.5217 12.0292 23.8281C11.6276 24.0995 11.2415 24.525 10.8852 25.1428C10.5755 25.6922 10.2721 26.4779 9.98508 27.523L12.3831 28.2093C12.5658 27.6031 12.7948 27.0729 13.0799 26.6334L13.085 26.6255C13.4297 26.1086 13.8617 25.6841 14.3783 25.3582L14.3844 25.3543C14.8848 25.0458 15.4716 24.7955 16.1343 24.5958C16.8156 24.3902 17.42 24.1218 17.9518 23.7942C18.4645 23.4724 18.9022 23.063 19.2674 22.5618L19.2696 22.5587C19.6309 22.0684 19.9147 21.4486 20.1071 20.6816C20.394 19.538 20.363 18.5308 20.0566 17.6345C19.7434 16.7182 19.1922 15.9239 18.3801 15.2459L18.3768 15.2431C17.5609 14.5541 16.5346 14.0218 15.2768 13.6619ZM11.8009 11.9308C13.0448 11.7343 14.3279 11.831 15.6418 12.207C17.0682 12.6151 18.2967 13.2376 19.3062 14.0896C20.3226 14.9387 21.0482 15.969 21.4604 17.1748C21.8795 18.4012 21.8949 19.7163 21.5492 21.0943C21.3188 22.0126 20.9638 22.8157 20.4705 23.4858C19.9983 24.1333 19.4261 24.6692 18.7562 25.0891L18.7517 25.0919C18.1037 25.4915 17.3833 25.8086 16.5948 26.0466C16.0234 26.2187 15.5567 26.4229 15.1852 26.6515C14.8454 26.8665 14.56 27.1454 14.3263 27.4946C14.1004 27.8442 13.8944 28.3321 13.7242 28.9827L13.4504 30.0741L8.17304 28.5638L8.44872 27.465C8.77929 26.1769 9.1556 25.1311 9.59128 24.3595L9.59437 24.354C10.0319 23.5944 10.556 22.9841 11.1813 22.5614C11.7541 22.1743 12.3971 21.8663 13.1053 21.6337C13.5634 21.4761 13.9771 21.2988 14.348 21.1033C14.6873 20.9245 14.9679 20.708 15.1971 20.4565C15.4018 20.2268 15.5536 19.9399 15.6443 19.5783C15.7406 19.1943 15.7319 18.8671 15.6472 18.5784C15.5571 18.2714 15.4023 18.0187 15.1772 17.8055L15.173 17.8015C14.9499 17.5871 14.6761 17.4283 14.3346 17.3306C14.0149 17.2391 13.6969 17.2284 13.3698 17.2998L13.3595 17.3021C13.0586 17.3632 12.7807 17.5063 12.5198 17.7533L12.5154 17.7574C12.2848 17.9721 12.0838 18.2997 11.9428 18.7892L11.7425 19.4847L6.17901 17.8925L6.38326 17.1529C6.8054 15.6242 7.48688 14.392 8.46428 13.5154C9.41747 12.6551 10.5344 12.1239 11.8009 11.9308ZM9.11737 31.2792C8.68551 31.5462 8.41546 31.9212 8.28979 32.4434L8.2881 32.4504L8.28629 32.4573C8.14847 32.9853 8.20581 33.4628 8.45383 33.9316C8.70893 34.3935 9.05673 34.6707 9.5274 34.8054C9.82252 34.8898 10.1055 34.8892 10.3923 34.8043C10.6996 34.7066 10.9698 34.5409 11.2088 34.298L11.2114 34.2954C11.4451 34.0604 11.6091 33.7755 11.7036 33.426C11.8263 32.9079 11.7586 32.4349 11.4968 31.966C11.2282 31.485 10.8864 31.2168 10.4585 31.0944C9.98696 30.9594 9.55528 31.0142 9.11737 31.2792ZM8.32639 29.976C9.09874 29.5075 9.94653 29.3885 10.8235 29.6395C11.6773 29.8838 12.3356 30.4424 12.7854 31.2481C13.2405 32.0632 13.3624 32.9389 13.1471 33.8334L13.145 33.8421L13.1427 33.8508C12.9848 34.4439 12.6952 34.96 12.274 35.3841C11.8741 35.79 11.4021 36.0822 10.8642 36.2516L10.8543 36.2547C10.2986 36.421 9.72911 36.4225 9.16238 36.2603C8.28543 36.0093 7.60693 35.4536 7.15738 34.6354L7.15218 34.626C6.71567 33.8051 6.61512 32.9284 6.84592 32.0377C7.06175 31.1481 7.55955 30.4488 8.32193 29.9787L8.32639 29.976Z"   fill="var(--ks-color-primary)"/>
<path fill-rule="evenodd" clip-rule="evenodd" d="M32.2169 15.6106C27.4827 16.2327 24.2119 20.0317 24.6591 23.9131C25.1062 27.7945 29.1418 30.6333 33.8759 30.0112C34.775 29.893 35.6253 29.658 36.4089 29.3276L36.73 29.1922L40.618 31.1758L39.1634 27.5501L39.494 27.1957C40.9218 25.6648 41.6642 23.7088 41.4338 21.7087C40.9866 17.8273 36.9511 14.9885 32.2169 15.6106ZM23.1718 24.1085C22.6079 19.2137 26.6936 14.8237 32.0452 14.1205C37.3969 13.4172 42.3571 16.6185 42.921 21.5133C43.1898 23.8466 42.3897 26.0837 40.9049 27.8466L43.5139 34.3495L36.6426 30.844C35.8274 31.1575 34.9575 31.3818 34.0476 31.5013C28.696 32.2046 23.7358 29.0033 23.1718 24.1085Z"   fill="var(--ks-color-primary)"/>
</svg>
