<svg viewBox="0 0 48 48" fill="none" xmlns="http://www.w3.org/2000/svg">
<g clip-path="url(#clip0_1411_3761)">
<path d="M8 0H42L48 6V40L40 48H6L0 42V0H8Z" fill="var(--ks-background-color-accent)"/>
<path fill-rule="evenodd" clip-rule="evenodd" d="M16.3104 15.4912C15.4044 15.2283 14.5473 15.1679 13.7323 15.2987L13.7288 15.2993C12.9354 15.4216 12.2441 15.7541 11.6434 16.304L11.6419 16.3054C11.1751 16.7296 10.7907 17.3207 10.5043 18.1039L12.6869 18.7372C12.8347 18.4186 13.0266 18.1393 13.269 17.91C13.6217 17.5721 14.0335 17.346 14.4994 17.2492C14.9483 17.1504 15.4002 17.1653 15.8467 17.2948C16.2979 17.4257 16.698 17.652 17.0333 17.9782C17.3774 18.3091 17.6186 18.7122 17.7527 19.1756C17.8914 19.6547 17.8875 20.1502 17.7645 20.6475C17.6488 21.115 17.4426 21.5278 17.1396 21.8713L17.1365 21.8749C16.8554 22.1884 16.5206 22.4464 16.1379 22.6509C15.7807 22.8418 15.392 23.0096 14.9732 23.1554L14.9656 23.1581C14.4853 23.3178 14.0651 23.5239 13.7008 23.7735C13.3782 23.9946 13.0679 24.3413 12.7816 24.8446C12.5327 25.2922 12.289 25.9323 12.0583 26.7838L13.9852 27.3428C14.132 26.849 14.3161 26.417 14.5451 26.0589L14.5492 26.0526C14.8262 25.6315 15.1733 25.2856 15.5884 25.0201L15.5934 25.0169C15.9954 24.7656 16.4669 24.5617 16.9994 24.399C17.5469 24.2314 18.0326 24.0128 18.4599 23.7459C18.8718 23.4837 19.2235 23.1502 19.517 22.7419L19.5188 22.7394C19.8091 22.3399 20.0371 21.835 20.1917 21.2101C20.4223 20.2784 20.3974 19.4579 20.1512 18.7277C19.8995 17.9812 19.4566 17.3341 18.8041 16.7817L18.8014 16.7794C18.1458 16.2181 17.3211 15.7844 16.3104 15.4912ZM13.5174 14.0809C14.5169 13.9208 15.5479 13.9996 16.6037 14.3059C17.7498 14.6384 18.737 15.1455 19.5482 15.8397C20.3649 16.5314 20.948 17.3708 21.2791 18.3531C21.616 19.3523 21.6283 20.4236 21.3505 21.5464C21.1654 22.2945 20.8801 22.9488 20.4837 23.4946C20.1043 24.0222 19.6445 24.4587 19.1063 24.8008L19.1027 24.8031C18.5819 25.1287 18.003 25.387 17.3695 25.5809C16.9104 25.7211 16.5353 25.8875 16.2368 26.0738C15.9638 26.2489 15.7344 26.4761 15.5467 26.7606C15.3651 27.0454 15.1996 27.4429 15.0628 27.9729L14.8428 28.8621L10.6023 27.6317L10.8238 26.7365C11.0894 25.6871 11.3918 24.8351 11.7419 24.2064L11.7444 24.202C12.0959 23.5831 12.5171 23.0859 13.0196 22.7416C13.4798 22.4262 13.9965 22.1753 14.5655 21.9857C14.9337 21.8574 15.266 21.713 15.5641 21.5537C15.8367 21.408 16.0622 21.2316 16.2463 21.0267C16.4109 20.8396 16.5328 20.6058 16.6057 20.3112C16.6831 19.9984 16.6761 19.7318 16.608 19.4967C16.5357 19.2466 16.4112 19.0406 16.2303 18.8669L16.227 18.8637C16.0477 18.6891 15.8277 18.5597 15.5533 18.4801C15.2964 18.4055 15.0409 18.3968 14.7781 18.455L14.7698 18.4569C14.528 18.5067 14.3047 18.6232 14.0951 18.8244L14.0916 18.8278C13.9062 19.0027 13.7447 19.2696 13.6314 19.6684L13.4705 20.235L9 18.9379L9.16412 18.3353C9.50333 17.0899 10.0509 16.086 10.8363 15.3719C11.6022 14.671 12.4997 14.2382 13.5174 14.0809ZM11.3611 29.8438C11.0141 30.0614 10.7971 30.3669 10.6961 30.7923L10.6947 30.798L10.6933 30.8037C10.5825 31.2338 10.6286 31.6228 10.8279 32.0048C11.0329 32.381 11.3124 32.6069 11.6906 32.7166C11.9277 32.7854 12.155 32.7849 12.3855 32.7157C12.6324 32.6362 12.8495 32.5011 13.0416 32.3033L13.0437 32.3011C13.2315 32.1097 13.3633 31.8776 13.4392 31.5928C13.5378 31.1708 13.4834 30.7854 13.273 30.4034C13.0572 30.0115 12.7826 29.7931 12.4387 29.6933C12.0598 29.5834 11.713 29.628 11.3611 29.8438ZM10.7255 28.7821C11.3461 28.4005 12.0273 28.3035 12.732 28.508C13.4181 28.707 13.947 29.1621 14.3085 29.8185C14.6742 30.4826 14.7721 31.196 14.5991 31.9248L14.5974 31.9319L14.5955 31.9389C14.4687 32.4221 14.236 32.8426 13.8975 33.1881C13.5762 33.5188 13.197 33.7568 12.7647 33.8948L12.7568 33.8973C12.3102 34.0328 11.8526 34.0341 11.3972 33.9019C10.6926 33.6975 10.1474 33.2447 9.78615 32.5782L9.78198 32.5704C9.43122 31.9017 9.35043 31.1874 9.53588 30.4619C9.70931 29.7371 10.1093 29.1673 10.7219 28.7844L10.7255 28.7821Z" fill="var(--ks-color-primary)"/>
<path fill-rule="evenodd" clip-rule="evenodd" d="M29.9224 17.0788C26.1184 17.5856 23.4901 20.6806 23.8494 23.8427C24.2087 27.0049 27.4515 29.3176 31.2555 28.8108C31.9779 28.7146 32.6612 28.5231 33.2908 28.2539L33.5489 28.1436L36.673 29.7596L35.5042 26.8058L35.7699 26.5171C36.9171 25.2699 37.5137 23.6763 37.3286 22.0469C36.9692 18.8848 33.7265 16.572 29.9224 17.0788ZM22.6544 24.002C22.2013 20.0142 25.4843 16.4377 29.7845 15.8648C34.0847 15.2919 38.0705 17.9 38.5236 21.8877C38.7396 23.7886 38.0966 25.6112 36.9036 27.0474L39 32.3452L33.4787 29.4893C32.8236 29.7447 32.1246 29.9274 31.3935 30.0248C27.0932 30.5978 23.1075 27.9897 22.6544 24.002Z" fill="var(--ks-color-primary)"/>
</g>
<defs>
<clipPath id="clip0_1411_3761">

</clipPath>
</defs>
</svg>
