<svg   viewBox="0 0 48 48" fill="none" xmlns="http://www.w3.org/2000/svg">
<path fill-rule="evenodd" clip-rule="evenodd" d="M8.01628 18.9492L17.1095 13.6992L19.3595 17.5963L17.6275 18.5963L18.8775 20.7614L25.3727 17.0114L24.1227 14.8463L22.3906 15.8463L20.1406 11.9492L29.2339 6.6992L33.2339 13.6274L34.5329 12.8774L33.5329 11.1454L38.2961 8.39536L43.5461 17.4886L38.7829 20.2386L37.7829 18.5066L36.4839 19.2566L40.9839 27.0508L31.8906 32.3008L29.6406 28.4037L31.3727 27.4037L30.1227 25.2386L23.6275 28.9886L24.8775 31.1537L26.6095 30.1537L28.8595 34.0508L19.7663 39.3008L15.2663 31.5066L13.9672 32.2566L14.9672 33.9886L10.2041 36.7386L4.9541 27.6454L9.71724 24.8954L10.7172 26.6274L12.0163 25.8774L8.01628 18.9492ZM10.0653 19.4982L14.0653 26.4264L10.1682 28.6764L9.1682 26.9444L7.00314 28.1944L10.7531 34.6896L12.9182 33.4396L11.9182 31.7075L15.8153 29.4575L20.3153 37.2518L26.8105 33.5018L26.0605 32.2027L24.3285 33.2027L21.5785 28.4396L30.6717 23.1896L33.4217 27.9527L31.6897 28.9527L32.4397 30.2518L38.9349 26.5018L34.4349 18.7075L38.332 16.4575L39.332 18.1896L41.497 16.9396L37.747 10.4444L35.582 11.6944L36.582 13.4264L32.6849 15.6764L28.6849 8.74824L22.1897 12.4982L22.9397 13.7973L24.6717 12.7973L27.4217 17.5604L18.3285 22.8104L15.5785 18.0473L17.3105 17.0473L16.5605 15.7482L10.0653 19.4982Z"   fill="var(--ks-color-primary)"/>
</svg>
