<svg viewBox="0 0 48 48" fill="none" xmlns="http://www.w3.org/2000/svg">
<g clip-path="url(#clip0_1411_3774)">
<path d="M8 0H42L48 6V40L40 48H6L0 42V0H8Z" fill="var(--ks-background-color-accent)"/>
<path fill-rule="evenodd" clip-rule="evenodd" d="M10.2029 20.9961L18.0072 16.4903L19.9383 19.835L18.4518 20.6932L19.5246 22.5514L25.0991 19.333L24.0263 17.4748L22.5397 18.333L20.6087 14.9883L28.413 10.4825L31.846 16.4287L32.9609 15.785L32.1027 14.2984L36.1907 11.9382L40.6965 19.7426L36.6085 22.1028L35.7503 20.6162L34.6353 21.2599L38.4975 27.9493L30.6932 32.4552L28.7621 29.1105L30.2486 28.2522L29.1758 26.394L23.6013 29.6125L24.6741 31.4707L26.1606 30.6124L28.0917 33.9571L20.2874 38.463L16.4252 31.7735L15.3103 32.4172L16.1686 33.9038L12.0806 36.264L7.57476 28.4596L11.6627 26.0994L12.521 27.586L13.6359 26.9423L10.2029 20.9961ZM11.9615 21.4673L15.3945 27.4135L12.0498 29.3446L11.1915 27.858L9.33336 28.9308L12.5518 34.5054L14.41 33.4325L13.5517 31.946L16.8964 30.0149L20.7586 36.7044L26.3331 33.4859L25.6894 32.371L24.2029 33.2293L21.8427 29.1413L29.647 24.6354L32.0072 28.7234L30.5207 29.5817L31.1644 30.6966L36.7389 27.4781L32.8767 20.7887L36.2215 18.8576L37.0797 20.3442L38.9379 19.2713L35.7194 13.6968L33.8613 14.7696L34.7195 16.2562L31.3748 18.1873L27.9418 12.2411L22.3673 15.4595L23.011 16.5745L24.4975 15.7162L26.8577 19.8042L19.0534 24.31L16.6932 20.222L18.1797 19.3638L17.536 18.2489L11.9615 21.4673Z" fill="var(--ks-color-primary)"/>
</g>
<defs>
<clipPath id="clip0_1411_3774">

</clipPath>
</defs>
</svg>
