<svg viewBox="0 0 48 48" fill="none" xmlns="http://www.w3.org/2000/svg">
<g clip-path="url(#clip0_1411_3751)">
<path d="M8 0H42L48 6V40L40 48H6L0 42V0H8Z" fill="var(--ks-background-color-accent)"/>
<path fill-rule="evenodd" clip-rule="evenodd" d="M31.32 9.27397C28.7753 9.27397 26.7124 11.3368 26.7124 13.8815C26.7124 14.464 26.9903 15.4012 27.4812 16.5563C27.9605 17.6842 28.6042 18.9334 29.2546 20.1047C29.9039 21.2739 30.554 22.3549 31.0423 23.1443C31.1421 23.3057 31.2352 23.4549 31.32 23.59C31.4048 23.4549 31.4978 23.3057 31.5977 23.1443C32.086 22.3549 32.7361 21.2739 33.3854 20.1047C34.0358 18.9334 34.6795 17.6842 35.1588 16.5563C35.6497 15.4012 35.9275 14.464 35.9275 13.8815C35.9275 11.3368 33.8647 9.27397 31.32 9.27397ZM31.32 24.774C30.7873 25.1233 30.7873 25.1233 30.7872 25.1231L30.7714 25.0989L30.7265 25.0299C30.6875 24.9696 30.6304 24.8812 30.558 24.7679C30.4131 24.5413 30.2065 24.2149 29.9588 23.8144C29.4637 23.014 28.8027 21.915 28.1408 20.7232C27.4801 19.5333 26.8127 18.2405 26.3087 17.0545C25.8162 15.8958 25.4385 14.7472 25.4385 13.8815C25.4385 10.6332 28.0717 8 31.32 8C34.5682 8 37.2015 10.6332 37.2015 13.8815C37.2015 14.7472 36.8237 15.8958 36.3313 17.0545C35.8273 18.2405 35.1598 19.5333 34.4991 20.7232C33.8373 21.915 33.1763 23.014 32.6812 23.8144C32.4335 24.2149 32.2269 24.5413 32.082 24.7679C32.0096 24.8812 31.9525 24.9696 31.9134 25.0299L31.8686 25.0989L31.853 25.1228C31.8529 25.1229 31.8526 25.1233 31.32 24.774ZM31.32 24.774L31.853 25.1228L31.32 25.9354L30.7872 25.1231L31.32 24.774ZM31.32 12.5014C30.5578 12.5014 29.9399 13.1193 29.9399 13.8815C29.9399 14.6437 30.5578 15.2616 31.32 15.2616C32.0823 15.2616 32.7002 14.6437 32.7002 13.8815C32.7002 13.1193 32.0823 12.5014 31.32 12.5014ZM28.6659 13.8815C28.6659 12.4157 29.8542 11.2274 31.32 11.2274C32.7858 11.2274 33.9741 12.4157 33.9741 13.8815C33.9741 15.3473 32.7858 16.5356 31.32 16.5356C29.8542 16.5356 28.6659 15.3473 28.6659 13.8815Z" fill="var(--ks-color-primary)"/>
<path fill-rule="evenodd" clip-rule="evenodd" d="M16.8815 22.0137C14.3368 22.0137 12.274 24.0766 12.274 26.6212C12.274 27.2038 12.5518 28.1409 13.0427 29.296C13.522 30.4239 14.1657 31.6732 14.8161 32.8444C15.4654 34.0136 16.1155 35.0946 16.6038 35.884C16.7037 36.0455 16.7967 36.1946 16.8815 36.3297C16.9663 36.1946 17.0594 36.0455 17.1592 35.884C17.6475 35.0946 18.2976 34.0136 18.9469 32.8444C19.5973 31.6732 20.241 30.4239 20.7203 29.296C21.2112 28.1409 21.489 27.2038 21.489 26.6212C21.489 24.0766 19.4262 22.0137 16.8815 22.0137ZM16.8815 37.5137C16.3489 37.8631 16.3488 37.863 16.3488 37.8629L16.3329 37.8386L16.2881 37.7696C16.249 37.7093 16.1919 37.6209 16.1195 37.5076C15.9746 37.281 15.768 36.9546 15.5203 36.5542C15.0252 35.7537 14.3642 34.6547 13.7024 33.4629C13.0416 32.2731 12.3742 30.9803 11.8702 29.7943C11.3777 28.6355 11 27.4869 11 26.6212C11 23.373 13.6332 20.7397 16.8815 20.7397C20.1298 20.7397 22.763 23.373 22.763 26.6212C22.763 27.4869 22.3853 28.6355 21.8928 29.7943C21.3888 30.9803 20.7214 32.2731 20.0607 33.4629C19.3988 34.6547 18.7378 35.7537 18.2427 36.5542C17.995 36.9546 17.7884 37.281 17.6435 37.5076C17.5711 37.6209 17.514 37.7093 17.475 37.7696L17.4301 37.8386L17.4145 37.8625C17.4144 37.8626 17.4141 37.8631 16.8815 37.5137ZM16.8815 37.5137L17.4145 37.8625L16.8815 38.6751L16.3488 37.8629L16.8815 37.5137ZM16.8815 25.2411C16.1193 25.2411 15.5014 25.859 15.5014 26.6212C15.5014 27.3835 16.1193 28.0014 16.8815 28.0014C17.6438 28.0014 18.2617 27.3835 18.2617 26.6212C18.2617 25.859 17.6438 25.2411 16.8815 25.2411ZM14.2274 26.6212C14.2274 25.1554 15.4157 23.9671 16.8815 23.9671C18.3474 23.9671 19.5357 25.1554 19.5357 26.6212C19.5357 28.0871 18.3474 29.2753 16.8815 29.2753C15.4157 29.2753 14.2274 28.0871 14.2274 26.6212Z" fill="var(--ks-color-primary)"/>
<path fill-rule="evenodd" clip-rule="evenodd" d="M25.863 24.9863H31.5959V26.2603H27.137V31.3562H35.2055V39H16.7329V37.726H33.9315V32.6301H25.863V24.9863Z" fill="var(--ks-color-primary)"/>
</g>
<defs>
<clipPath id="clip0_1411_3751">

</clipPath>
</defs>
</svg>
