<svg   viewBox="0 0 48 48" fill="none" xmlns="http://www.w3.org/2000/svg">
<path fill-rule="evenodd" clip-rule="evenodd" d="M32.175 6.75C29.1789 6.75 26.75 9.17886 26.75 12.175C26.75 12.8609 27.0771 13.9643 27.6551 15.3243C28.2195 16.6523 28.9774 18.1232 29.7432 19.5023C30.5077 20.8789 31.2731 22.1517 31.848 23.0811C31.9656 23.2713 32.0752 23.4469 32.175 23.606C32.2748 23.4469 32.3844 23.2713 32.502 23.0811C33.0769 22.1517 33.8423 20.8789 34.6068 19.5023C35.3726 18.1232 36.1305 16.6523 36.6949 15.3243C37.2729 13.9643 37.6 12.8609 37.6 12.175C37.6 9.17886 35.1711 6.75 32.175 6.75ZM32.175 25C31.5479 25.4113 31.5478 25.4112 31.5477 25.4111L31.5291 25.3825L31.4763 25.3013C31.4302 25.2303 31.3631 25.1262 31.2778 24.9928C31.1072 24.726 30.864 24.3417 30.5723 23.8702C29.9894 22.9278 29.2111 21.6338 28.4318 20.2305C27.6539 18.8296 26.868 17.3074 26.2746 15.911C25.6948 14.5466 25.25 13.1943 25.25 12.175C25.25 8.35043 28.3504 5.25 32.175 5.25C35.9996 5.25 39.1 8.35043 39.1 12.175C39.1 13.1943 38.6552 14.5466 38.0754 15.911C37.482 17.3074 36.6961 18.8296 35.9182 20.2305C35.1389 21.6338 34.3606 22.9278 33.7777 23.8702C33.486 24.3417 33.2428 24.726 33.0722 24.9928C32.9869 25.1262 32.9198 25.2303 32.8737 25.3013L32.8209 25.3825L32.8026 25.4107C32.8025 25.4108 32.8021 25.4113 32.175 25ZM32.175 25L32.8026 25.4107L32.175 26.3675L31.5477 25.4111L32.175 25ZM32.175 10.55C31.2776 10.55 30.55 11.2775 30.55 12.175C30.55 13.0725 31.2776 13.8 32.175 13.8C33.0725 13.8 33.8 13.0725 33.8 12.175C33.8 11.2775 33.0725 10.55 32.175 10.55ZM29.05 12.175C29.05 10.4491 30.4492 9.05 32.175 9.05C33.9009 9.05 35.3 10.4491 35.3 12.175C35.3 13.9009 33.9009 15.3 32.175 15.3C30.4492 15.3 29.05 13.9009 29.05 12.175Z"   fill="var(--ks-color-primary)"/>
<path fill-rule="evenodd" clip-rule="evenodd" d="M15.175 21.75C12.1789 21.75 9.75 24.1789 9.75 27.175C9.75 27.8609 10.0771 28.9643 10.6551 30.3243C11.2195 31.6523 11.9774 33.1232 12.7432 34.5023C13.5077 35.8789 14.2731 37.1517 14.848 38.0811C14.9656 38.2713 15.0752 38.4469 15.175 38.606C15.2748 38.4469 15.3844 38.2713 15.502 38.0811C16.0769 37.1517 16.8423 35.8789 17.6068 34.5023C18.3726 33.1232 19.1305 31.6523 19.6949 30.3243C20.2729 28.9643 20.6 27.8609 20.6 27.175C20.6 24.1789 18.1711 21.75 15.175 21.75ZM15.175 40C14.5479 40.4113 14.5478 40.4112 14.5477 40.4111L14.5291 40.3825L14.4763 40.3013C14.4302 40.2303 14.3631 40.1262 14.2778 39.9928C14.1072 39.726 13.864 39.3417 13.5723 38.8702C12.9894 37.9278 12.2111 36.6338 11.4318 35.2305C10.6539 33.8296 9.86803 32.3074 9.27459 30.911C8.69476 29.5466 8.25 28.1943 8.25 27.175C8.25 23.3504 11.3504 20.25 15.175 20.25C18.9996 20.25 22.1 23.3504 22.1 27.175C22.1 28.1943 21.6552 29.5466 21.0754 30.911C20.482 32.3074 19.6961 33.8296 18.9182 35.2305C18.1389 36.6338 17.3606 37.9278 16.7777 38.8702C16.486 39.3417 16.2428 39.726 16.0722 39.9928C15.9869 40.1262 15.9198 40.2303 15.8737 40.3013L15.8209 40.3825L15.8026 40.4107C15.8025 40.4108 15.8021 40.4113 15.175 40ZM15.175 40L15.8026 40.4107L15.175 41.3675L14.5477 40.4111L15.175 40ZM15.175 25.55C14.2776 25.55 13.55 26.2775 13.55 27.175C13.55 28.0725 14.2776 28.8 15.175 28.8C16.0725 28.8 16.8 28.0725 16.8 27.175C16.8 26.2775 16.0725 25.55 15.175 25.55ZM12.05 27.175C12.05 25.4491 13.4492 24.05 15.175 24.05C16.9009 24.05 18.3 25.4491 18.3 27.175C18.3 28.9009 16.9009 30.3 15.175 30.3C13.4492 30.3 12.05 28.9009 12.05 27.175Z"   fill="var(--ks-color-primary)"/>
<path fill-rule="evenodd" clip-rule="evenodd" d="M25.75 25.25H32.5V26.75H27.25V32.75H36.75V41.75H15V40.25H35.25V34.25H25.75V25.25Z"   fill="var(--ks-color-primary)"/>
</svg>
