<svg xmlns="http://www.w3.org/2000/svg" width="220.749" height="56" viewBox="0 0 220.749 56">
  <defs>
    <style>
      .a {
        fill: #333;
      }
    </style>
  </defs>
  <g>
    <g>
      <g>
        <polygon class="a" points="74.431 20.282 74.136 18.724 72.55 18.724 72.55 17.724 74.965 17.724 75.413 20.096 74.431 20.282"/>
        <path class="a" d="M76.616,31.954l-.158-.944-.7-3.719.982-.186.866,4.688Zm-1.082-5.832-.883-4.672.983-.186.883,4.673Z"/>
        <path class="a" d="M78.127,35.524h-.955l-.369-2.4.7-.108.006-.044.139.021.144-.022.007.044.7.1c-.1.682-.2,1.351-.3,1.983Z"/>
        <path class="a" d="M78.67,31.949l-.989-.144.125-.854.613-3.826.987.159Zm.923-5.833-.987-.158.747-4.671.988.158Z"/>
        <polygon class="a" points="80.528 20.277 79.54 20.119 79.924 17.724 82.351 17.724 82.351 18.724 80.777 18.724 80.528 20.277"/>
        <polygon class="a" points="86.722 20.285 85.755 20.028 86.101 18.724 84.751 18.724 84.751 17.724 87.401 17.724 86.722 20.285"/>
        <path class="a" d="M73.711,52.51l-.549-.835A13.062,13.062,0,0,0,75.92,49.25l.111-.133.773.636-.123.146A14.025,14.025,0,0,1,73.711,52.51Zm3.722-3.58-.814-.581a21.113,21.113,0,0,0,1.935-3.4l.908.42A22.144,22.144,0,0,1,77.433,48.93Zm2.44-4.49-.92-.39c.474-1.121.916-2.338,1.351-3.721l.954.3C80.813,42.042,80.36,43.289,79.873,44.44Zm1.68-4.778-.959-.284c.239-.808.462-1.621.673-2.429l.378-1.425.967.257L82.234,37.2C82.021,38.02,81.8,38.844,81.553,39.662Zm1.316-4.85-.967-.255,1.027-3.874.967.255Zm1.284-4.842-.967-.257,1.028-3.874.967.257Zm1.284-4.843-.966-.255L85.5,21l.967.255Z"/>
        <path class="a" d="M70.437,54.042l-.826-2.334.943-.334.5,1.416a10.653,10.653,0,0,0,1.276-.611l.487.874a10.033,10.033,0,0,1-1.925.852Z"/>
        <path class="a" d="M68.946,49.828l-.835-2.359.474-.166a7.549,7.549,0,0,0,1.669-.847l.551.835a9.076,9.076,0,0,1-1.422.774l.506,1.429Z"/>
        <path class="a" d="M71.6,46.716l-.619-.786c.233-.183.461-.376.684-.576a8.42,8.42,0,0,0,1.619-2.094l.879.476a9.413,9.413,0,0,1-1.82,2.353C72.1,46.313,71.85,46.52,71.6,46.716Zm3-3.9-.93-.371.022-.048a1.486,1.486,0,0,0,.2-.62,2.577,2.577,0,0,0-.174-.741l-.545-1.841.959-.283.54,1.824a3.322,3.322,0,0,1,.22,1.042A2.343,2.343,0,0,1,74.6,42.813Zm-1.689-4.52-1.065-3.6.959-.284,1.065,3.6Zm-1.332-4.5-1.065-3.6.959-.283,1.065,3.6Zm-1.331-4.5-1.065-3.6.959-.283,1.065,3.6Zm-1.332-4.5-1.065-3.6.959-.283,1.065,3.6Z"/>
        <polygon class="a" points="67.588 20.283 66.831 17.724 69.5 17.724 69.5 18.724 68.169 18.724 68.547 20 67.588 20.283"/>
        <rect class="a" x="70.008" y="17.724" width="2.034" height="1"/>
      </g>
      <g>
        <path class="a" d="M96.9,43.575a10.774,10.774,0,0,1-1.51-.1l.139-.991a8.828,8.828,0,0,0,3.774-.272l.3.955A9.1,9.1,0,0,1,96.9,43.575Zm-2.553-.311a8.349,8.349,0,0,1-3.71-2.048l.689-.725A7.362,7.362,0,0,0,94.6,42.3Zm6.251-.476-.407-.913a7.963,7.963,0,0,0,2.974-2.3l.778.628A8.95,8.95,0,0,1,100.6,42.788ZM89.911,40.436a11.307,11.307,0,0,1-1.976-3.7l.95-.313a10.294,10.294,0,0,0,1.8,3.376Zm14.654-1.093-.84-.543a11.806,11.806,0,0,0,1.486-3.55l.971.242A12.8,12.8,0,0,1,104.565,39.343Zm-16.921-3.61a20.142,20.142,0,0,1-.57-4.089l1-.043a19.162,19.162,0,0,0,.54,3.886ZM106.4,34.477l-.984-.183a21.494,21.494,0,0,0,.333-3.92l.681-.054.319.045A22.634,22.634,0,0,1,106.4,34.477ZM87.05,30.613v-.089a21.4,21.4,0,0,1,.358-4.017l.982.189a20.4,20.4,0,0,0-.34,3.828Zm18.678-1.3a18.588,18.588,0,0,0-.561-3.881l.968-.254a19.649,19.649,0,0,1,.592,4.09ZM88.6,25.742l-.969-.248a13.113,13.113,0,0,1,1.63-3.845l.84.541A12.134,12.134,0,0,0,88.6,25.742ZM104.889,24.5a10.61,10.61,0,0,0-1.81-3.375l.772-.635a11.6,11.6,0,0,1,1.986,3.691ZM90.662,21.412l-.783-.622a9.126,9.126,0,0,1,3.3-2.635l.422.907A8.123,8.123,0,0,0,90.662,21.412Zm11.773-.99a7.335,7.335,0,0,0-3.256-1.829l.254-.967a8.318,8.318,0,0,1,3.695,2.075Zm-7.949-1.707-.309-.951a9.632,9.632,0,0,1,4.209-.347l-.138.991A8.6,8.6,0,0,0,94.486,18.715Z"/>
        <path class="a" d="M97.112,38.574c-1.5,0-2.5-1.031-3.049-3.062l.966-.259c.622,2.322,1.676,2.322,2.022,2.322l.063,1Zm1.223-.467-.633-.773c.408-.334.961-1.19,1.274-3.367l.99.143C99.678,36.113,99.129,37.458,98.335,38.107ZM93.84,34.481a24.789,24.789,0,0,1-.289-4.107l.739-.03.26.011a24.056,24.056,0,0,0,.275,3.957Zm6.246-1.4-1-.092c.074-.8.112-1.681.111-2.616,0-.439-.01-.893-.031-1.35l1-.047c.022.473.032.942.032,1.4C100.2,31.339,100.163,32.251,100.086,33.083Zm-5.518-3.742-1-.033a17.536,17.536,0,0,1,.548-4.116l.962.275A16.526,16.526,0,0,0,94.568,29.341Zm4.535-1.3a10.7,10.7,0,0,0-.862-3.726l.89-.456a11.492,11.492,0,0,1,.969,4.094Zm-3.709-3.451-.911-.413a2.7,2.7,0,0,1,2.468-1.9h0a2.1,2.1,0,0,1,1.5.633l-.7.717a1.117,1.117,0,0,0-.8-.35C96.7,23.319,95.991,23.271,95.394,24.587Z"/>
      </g>
      <g>
        <path class="a" d="M128.574,43.175h-2.523v-1h1.478q-.03-.724-.059-1.475l1-.038c.026.68.053,1.345.082,1.991Z"/>
        <path class="a" d="M124.4,43.175h-2.437l-.268-1.989a7.756,7.756,0,0,1-.788.738l-.631-.776a6.671,6.671,0,0,0,1.263-1.359l.15-.214h.8l.35,2.6H124.4Z"/>
        <path class="a" d="M116.3,43.575c-.129,0-.257,0-.382-.008l.041-1a6.416,6.416,0,0,0,3.558-.886l.514.858A7.252,7.252,0,0,1,116.3,43.575Zm-1.444-.118a5.663,5.663,0,0,1-3.67-2.189l.8-.6a4.629,4.629,0,0,0,3.044,1.807Zm-4.249-3.1a11.651,11.651,0,0,1-1.162-4l.991-.129a10.829,10.829,0,0,0,1.054,3.661Zm-1.27-5.024c-.058-.718-.088-1.494-.087-2.309V31.282h1v1.742c0,.788.028,1.538.084,2.227Zm.913-5.054h-1V26.267h1Zm0-5.015h-1V21.251h1Z"/>
        <polygon class="a" points="110.25 20.224 109.25 20.224 109.25 17.724 111.75 17.724 111.75 18.724 110.25 18.724 110.25 20.224"/>
        <polygon class="a" points="116.851 20.224 115.851 20.224 115.851 18.724 114.351 18.724 114.351 17.724 116.851 17.724 116.851 20.224"/>
        <path class="a" d="M118.8,38.075a2.353,2.353,0,0,1-2.112-1.2l.851-.524a1.378,1.378,0,0,0,1.261.727,1.626,1.626,0,0,0,1.335-.76l.819.574A2.6,2.6,0,0,1,118.8,38.075Zm2.673-2.215-.935-.356a4.918,4.918,0,0,0,.262-1.68V31.589h1v2.235A5.841,5.841,0,0,1,121.474,35.86Zm-5.242-.054a12.61,12.61,0,0,1-.381-3.482v-.755h1v.755a11.687,11.687,0,0,0,.34,3.2Zm5.569-5.248h-1V26.433h1Zm-4.95-.02h-1V26.412h1ZM121.8,25.4h-1V21.275h1Zm-4.95-.021h-1V21.255h1Z"/>
        <polygon class="a" points="121.801 20.224 120.801 20.224 120.801 17.724 123.301 17.724 123.301 18.724 121.801 18.724 121.801 20.224"/>
        <polygon class="a" points="128.351 20.224 127.351 20.224 127.351 18.724 125.851 18.724 125.851 17.724 128.351 17.724 128.351 20.224"/>
        <path class="a" d="M127.434,39.72c-.043-1.268-.074-2.58-.082-3.909l1-.006c.008,1.32.039,2.622.081,3.882Zm.917-4.887h-1V30.938h1Zm0-4.869h-1v-3.9h1Zm0-4.87h-1V21.2h1Z"/>
      </g>
      <g>
        <path class="a" d="M131.883,20.238c-.026-.687-.054-1.356-.083-1.992l-.023-.522H134.3v1h-1.478c.021.479.041.973.06,1.477Z"/>
        <path class="a" d="M138.831,22.273H137.9l-.35-3.549H136v-1h2.453l.253,2.567q.181-.29.38-.555l.8.6a7.793,7.793,0,0,0-.927,1.633Z"/>
        <path class="a" d="M140.284,19.855l-.738-.675a5.817,5.817,0,0,1,2.405-1.622l.317.948A4.811,4.811,0,0,0,140.284,19.855Z"/>
        <path class="a" d="M145.25,19.924h-1V18.345c-.232-.022-.5-.022-.9-.022a3.241,3.241,0,0,0-.508.041l-.159-.987a4.185,4.185,0,0,1,.667-.054,5.892,5.892,0,0,1,1.522.116l.378.095Z"/>
        <path class="a" d="M145.25,25.063l-.62-.154a5.612,5.612,0,0,0-1.28-.085,2.821,2.821,0,0,0-.5.046l-.176-.984a6.19,6.19,0,0,1,1.577-.041V22.424h1Z"/>
        <path class="a" d="M139.6,39.542h-1V35.049h1Zm0-5.616h-1V30.274c0-.307.009-.6.024-.869l1,.056c-.014.254-.021.526-.022.814Zm.136-5.525-.986-.168c.035-.2.075-.383.118-.541a5.3,5.3,0,0,1,2.605-3.4l.459.889a4.62,4.62,0,0,0-2.2,3.216Z"/>
        <polygon class="a" points="139.6 43.175 137.1 43.175 137.1 42.175 138.6 42.175 138.6 40.675 139.6 40.675 139.6 43.175"/>
        <polygon class="a" points="134.499 43.175 131.999 43.175 131.999 40.675 132.999 40.675 132.999 42.175 134.499 42.175 134.499 43.175"/>
        <path class="a" d="M133,39.7h-1v-3.9h1Zm0-4.87h-1v-3.9h1Zm0-4.87h-1v-3.9h1Zm-1-4.868c-.006-1.278-.038-2.6-.081-3.881l1-.033c.044,1.29.076,2.621.082,3.909Z"/>
      </g>
      <g>
        <polygon class="a" points="147.749 10.073 146.749 10.073 146.749 7.573 149.249 7.573 149.249 8.573 147.749 8.573 147.749 10.073"/>
        <polygon class="a" points="154.3 10.073 153.3 10.073 153.3 8.573 151.8 8.573 151.8 7.573 154.3 7.573 154.3 10.073"/>
        <path class="a" d="M154.3,39.688h-1V35.739h1Zm0-4.936h-1V30.8h1Zm0-4.936h-1V25.868h1Zm0-4.936h-1V20.932h1Zm0-4.935h-1V16h1Zm0-4.936h-1V11.061h1Z"/>
        <polygon class="a" points="154.3 43.175 151.8 43.175 151.8 42.175 153.3 42.175 153.3 40.675 154.3 40.675 154.3 43.175"/>
        <polygon class="a" points="149.249 43.175 146.749 43.175 146.749 40.675 147.749 40.675 147.749 42.175 149.249 42.175 149.249 43.175"/>
        <path class="a" d="M147.749,39.688h-1V35.739h1Zm0-4.936h-1V30.8h1Zm0-4.936h-1V25.868h1Zm0-4.936h-1V20.932h1Zm0-4.936h-1V16h1Zm0-4.935h-1V11.06h1Z"/>
      </g>
      <g>
        <path class="a" d="M167,43.575a10.784,10.784,0,0,1-1.51-.1l.14-.991a8.828,8.828,0,0,0,3.774-.272l.3.955A9.1,9.1,0,0,1,167,43.575Zm-2.552-.311a8.358,8.358,0,0,1-3.711-2.048l.69-.725a7.357,7.357,0,0,0,3.271,1.8Zm6.251-.476-.408-.913a7.966,7.966,0,0,0,2.975-2.3l.778.628A8.958,8.958,0,0,1,170.7,42.788Zm-10.689-2.352a11.326,11.326,0,0,1-1.976-3.7l.95-.313a10.3,10.3,0,0,0,1.8,3.376Zm14.655-1.093-.84-.543a11.806,11.806,0,0,0,1.486-3.55l.97.242A12.773,12.773,0,0,1,174.664,39.343Zm-16.921-3.61a20.21,20.21,0,0,1-.571-4.089l1-.043a19.3,19.3,0,0,0,.54,3.886ZM176.5,34.477l-.983-.183a21.583,21.583,0,0,0,.333-3.92l.681-.054.319.045A22.63,22.63,0,0,1,176.5,34.477Zm-19.351-3.864v-.089a21.487,21.487,0,0,1,.357-4.017l.983.189a20.4,20.4,0,0,0-.34,3.828Zm18.678-1.3a18.588,18.588,0,0,0-.561-3.881l.968-.254a19.716,19.716,0,0,1,.592,4.09ZM158.7,25.742l-.969-.248a13.112,13.112,0,0,1,1.629-3.845l.841.541A12.134,12.134,0,0,0,158.7,25.742ZM174.988,24.5a10.612,10.612,0,0,0-1.811-3.375l.773-.635a11.6,11.6,0,0,1,1.986,3.691Zm-14.227-3.083-.784-.622a9.13,9.13,0,0,1,3.305-2.635l.422.907A8.123,8.123,0,0,0,160.761,21.412Zm11.773-.99a7.333,7.333,0,0,0-3.257-1.829l.254-.967a8.316,8.316,0,0,1,3.7,2.075Zm-7.95-1.707-.308-.951a9.63,9.63,0,0,1,4.209-.347l-.138.991A8.607,8.607,0,0,0,164.584,18.715Z"/>
        <path class="a" d="M167.21,38.574c-1.5,0-2.5-1.031-3.048-3.062l.966-.259c.621,2.322,1.675,2.322,2.021,2.322l.064,1Zm1.224-.467-.633-.773c.408-.334.961-1.19,1.273-3.367l.99.143C169.776,36.113,169.228,37.458,168.434,38.107Zm-4.5-3.626a24.9,24.9,0,0,1-.289-4.107l.74-.03.26.011a23.946,23.946,0,0,0,.275,3.957Zm6.247-1.4-1-.092c.074-.8.111-1.681.111-2.616,0-.439-.01-.893-.032-1.35l1-.047c.022.473.032.942.032,1.4C170.3,31.339,170.262,32.251,170.185,33.083Zm-5.519-3.742-1-.033a17.589,17.589,0,0,1,.548-4.116l.962.275A16.58,16.58,0,0,0,164.666,29.341Zm4.536-1.3a10.727,10.727,0,0,0-.862-3.726l.889-.456a11.492,11.492,0,0,1,.969,4.094Zm-3.709-3.451-.911-.413a2.7,2.7,0,0,1,2.467-1.9h0a2.1,2.1,0,0,1,1.5.633l-.7.717a1.119,1.119,0,0,0-.8-.35h0C166.811,23.273,166.088,23.273,165.493,24.587Z"/>
      </g>
      <g>
        <g>
          <path class="a" d="M182.618,52.65a13.587,13.587,0,0,1-1.966-.665l-.387-.166.56-2.355.973.231-.363,1.529a12.971,12.971,0,0,0,1.433.458Z"/>
          <path class="a" d="M182.073,48.537l-.972-.231.6-2.53.548.242a12.9,12.9,0,0,0,1.811.648l-.26.965a12.849,12.849,0,0,1-1.4-.467Z"/>
          <path class="a" d="M186.749,48.025a11.224,11.224,0,0,1-1.936-.168l.173-.985a6.807,6.807,0,0,0,3.633-.189l.4.916A5.645,5.645,0,0,1,186.749,48.025Zm3.234-1.016-.637-.771a4.66,4.66,0,0,0,1.425-3.208l.993.116A5.655,5.655,0,0,1,189.983,47.009Z"/>
          <path class="a" d="M191.841,42.094l-1-.033c0-.159.008-.32.008-.486v-.141a5.084,5.084,0,0,1-.625.532l-.586-.81a3.994,3.994,0,0,0,1.172-1.322l.143-.259h.8l.1.5v1.5C191.85,41.751,191.847,41.925,191.841,42.094Z"/>
          <path class="a" d="M186.85,43.025a7.255,7.255,0,0,1-1.642-.182l.227-.973a5.588,5.588,0,0,0,3.455-.279l.416.909A5.934,5.934,0,0,1,186.85,43.025Zm-2.636-.5a7.1,7.1,0,0,1-3.144-2.609l.822-.571a6.123,6.123,0,0,0,2.7,2.255Zm-3.679-3.473a14.005,14.005,0,0,1-1.36-3.753l.977-.215a12.991,12.991,0,0,0,1.259,3.485Zm-1.546-4.727a22.39,22.39,0,0,1-.29-3.654l0-.279,1,.01,0,.269a21.517,21.517,0,0,0,.276,3.491Zm.739-4.869-1-.048a21.384,21.384,0,0,1,.535-3.911l.973.232A20.354,20.354,0,0,0,179.728,29.46Zm.752-4.629-.958-.289a13.166,13.166,0,0,1,1.679-3.625l.827.561A12.211,12.211,0,0,0,180.48,24.831Zm2.1-4.082-.766-.643a7.73,7.73,0,0,1,3.307-2.378l.338.941A6.743,6.743,0,0,0,182.579,20.749Zm7.12-1.838a4.907,4.907,0,0,0-3.385-.479l-.192-.981a5.906,5.906,0,0,1,4.085.6Z"/>
          <path class="a" d="M192.483,21.174h-.839l-.139-.272a5.165,5.165,0,0,0-1.089-1.459l.677-.736a5.794,5.794,0,0,1,.634.689l.239-1.672H194.4v1h-1.567Z"/>
          <polygon class="a" points="198.506 20.242 197.507 20.196 197.576 18.724 196.1 18.724 196.1 17.724 198.623 17.724 198.506 20.242"/>
          <path class="a" d="M186.95,53.176a17.943,17.943,0,0,1-3.244-.287l.181-.983a17.649,17.649,0,0,0,4.09.24l.059,1C187.685,53.165,187.323,53.176,186.95,53.176Zm2.171-.131L189,52.053a10.691,10.691,0,0,0,3.835-1.184l.482.876A11.687,11.687,0,0,1,189.121,53.045Zm5.134-1.893-.581-.814a8.41,8.41,0,0,0,.883-.726,7.266,7.266,0,0,0,1.618-2.289l.909.417a8.242,8.242,0,0,1-1.84,2.6A9.276,9.276,0,0,1,194.255,51.152Zm3.235-4.443-.948-.318a16.424,16.424,0,0,0,.727-4.023l1,.072A17.337,17.337,0,0,1,197.49,46.709Zm.834-5.342-1-.037c.017-.449.025-.916.025-1.405v-2.8h1v2.8Q198.35,40.677,198.324,41.367Zm.026-5.3h-1V31.839h1Zm0-5.284h-1V26.556h1Zm0-5.28-1,0c.007-1.287.042-2.636.109-4.244l1,.042C198.393,22.891,198.358,24.228,198.351,25.5Z"/>
        </g>
        <path class="a" d="M188.848,37.875a2.927,2.927,0,0,1-2.619-1.808l.882-.471a2.011,2.011,0,0,0,1.737,1.279h0a1.608,1.608,0,0,0,.737-.169l.455.89a2.592,2.592,0,0,1-1.191.279Zm2.083-1.019-.782-.623a2.98,2.98,0,0,0,.434-.788,5.64,5.64,0,0,0,.267-1.77v-.781h1v.781a6.585,6.585,0,0,1-.331,2.121A3.962,3.962,0,0,1,190.931,36.856Zm-5.11-1.738a13.431,13.431,0,0,1-.612-3.906l1-.03a12.438,12.438,0,0,0,.558,3.611Zm6.029-3.179h-1V28.121h1Zm-5.648-1.69-1-.012a16.707,16.707,0,0,1,.446-3.9l.969.249A15.663,15.663,0,0,0,186.2,30.249Zm4.648-3.082v-.043a6.024,6.024,0,0,0-.229-1.656,2.576,2.576,0,0,0-.863-1.395l.587-.81a3.554,3.554,0,0,1,1.236,1.924,7.049,7.049,0,0,1,.269,1.937Zm-3.964-1.44-.932-.36c.873-2.269,2.293-2.623,3.265-2.533l-.095,1c-.041,0-.082-.006-.125-.006C188.084,23.824,187.373,24.464,186.886,25.727Z"/>
      </g>
      <g>
        <path class="a" d="M210.9,43.575a10.769,10.769,0,0,1-1.512-.1l.14-.99a8.87,8.87,0,0,0,3.775-.272l.3.955A9.1,9.1,0,0,1,210.9,43.575Zm-2.555-.312a8.343,8.343,0,0,1-3.709-2.049l.689-.724a7.362,7.362,0,0,0,3.271,1.8Zm6.253-.475-.408-.913a7.958,7.958,0,0,0,2.975-2.3l.778.628A8.95,8.95,0,0,1,214.6,42.788Zm-10.69-2.354a11.326,11.326,0,0,1-1.975-3.7l.95-.313a10.322,10.322,0,0,0,1.8,3.376Zm14.656-1.091-.84-.543a11.734,11.734,0,0,0,1.486-3.55l.971.242A12.778,12.778,0,0,1,218.563,39.343Zm-16.921-3.611a20.172,20.172,0,0,1-.57-4.09l1-.043a19.192,19.192,0,0,0,.54,3.887ZM220.4,34.477l-.984-.183a21.494,21.494,0,0,0,.333-3.92l1-.077v.077A22.6,22.6,0,0,1,220.4,34.477Zm-19.352-3.865v-.088a21.472,21.472,0,0,1,.358-4.018l.983.188a20.4,20.4,0,0,0-.341,3.83Zm18.679-1.3a18.691,18.691,0,0,0-.561-3.881l.968-.254a19.743,19.743,0,0,1,.592,4.09ZM202.6,25.74l-.969-.248a13.1,13.1,0,0,1,1.63-3.844l.84.541A12.116,12.116,0,0,0,202.6,25.74ZM218.887,24.5a10.619,10.619,0,0,0-1.809-3.375l.772-.635a11.6,11.6,0,0,1,1.985,3.691ZM204.661,21.41l-.784-.622a9.116,9.116,0,0,1,3.3-2.634l.422.907A8.121,8.121,0,0,0,204.661,21.41Zm11.773-.987a7.322,7.322,0,0,0-3.256-1.83l.254-.967a8.32,8.32,0,0,1,3.7,2.076Zm-7.948-1.708-.309-.951a9.611,9.611,0,0,1,4.209-.347l-.138.991A8.618,8.618,0,0,0,208.486,18.715Z"/>
        <path class="a" d="M211.11,38.574c-1.5,0-2.505-1.031-3.049-3.062l.966-.259c.622,2.322,1.676,2.322,2.022,2.322l.063,1Zm1.223-.467-.633-.773c.408-.334.961-1.19,1.274-3.367l.99.143C213.676,36.113,213.127,37.458,212.333,38.107Zm-4.5-3.626a24.789,24.789,0,0,1-.289-4.107l.739-.03.26.011a24.056,24.056,0,0,0,.275,3.957Zm6.246-1.4-1-.092c.075-.8.112-1.681.111-2.616,0-.439-.01-.893-.031-1.35l1-.047c.022.473.032.942.032,1.4C214.2,31.339,214.161,32.251,214.084,33.083Zm-5.518-3.742-1-.033a17.536,17.536,0,0,1,.548-4.116l.962.275A16.526,16.526,0,0,0,208.566,29.341Zm4.536-1.3a10.724,10.724,0,0,0-.863-3.726l.89-.456a11.492,11.492,0,0,1,.969,4.094Zm-3.709-3.451-.912-.413a2.7,2.7,0,0,1,2.468-1.9,2.008,2.008,0,0,1,1.5.633l-.7.717a1.117,1.117,0,0,0-.8-.35h0C210.711,23.273,209.988,23.273,209.393,24.587Z"/>
      </g>
    </g>
    <g>
      <path class="a" d="M27.5,55.5l-.056-1H27.5a26.806,26.806,0,0,0,3.848-.277l.144.989A27.792,27.792,0,0,1,27.5,55.5Zm-1.072-.021a27.7,27.7,0,0,1-4.034-.453l.185-.983a26.8,26.8,0,0,0,3.888.437Zm6.066-.432-.181-.983a26.382,26.382,0,0,0,3.784-.99l.324.946A27.382,27.382,0,0,1,32.494,55.047ZM21.4,54.821a27.353,27.353,0,0,1-3.882-1.189l.363-.932a26.25,26.25,0,0,0,3.74,1.145Zm15.98-1.149-.36-.933a26.517,26.517,0,0,0,3.539-1.674l.493.87A27.407,27.407,0,0,1,37.379,53.672Zm-20.8-.425a27.623,27.623,0,0,1-3.594-1.885l.529-.848a26.708,26.708,0,0,0,3.462,1.815Zm25.346-1.83-.525-.851a26.8,26.8,0,0,0,3.169-2.3l.644.764A27.647,27.647,0,0,1,41.926,51.417Zm-29.791-.606A27.922,27.922,0,0,1,8.947,48.3l.675-.738a26.684,26.684,0,0,0,3.072,2.42Zm33.844-2.445-.672-.74A27.044,27.044,0,0,0,48,44.791l.773.633A27.769,27.769,0,0,1,45.979,48.366ZM8.211,47.6a27.83,27.83,0,0,1-2.677-3.053l.8-.6a26.921,26.921,0,0,0,2.58,2.942Zm41.194-2.972-.8-.606a26.623,26.623,0,0,0,2.132-3.278l.876.481A27.6,27.6,0,0,1,49.405,44.628Zm-44.469-.9a27.762,27.762,0,0,1-2.073-3.492l.9-.445a26.675,26.675,0,0,0,2,3.365Zm47.152-3.4-.893-.449a26.468,26.468,0,0,0,1.491-3.616l.951.311A27.449,27.449,0,0,1,52.088,40.328ZM2.427,39.312A27.3,27.3,0,0,1,1.034,35.5L2,35.224A26.45,26.45,0,0,0,3.338,38.9ZM53.935,35.6l-.961-.277a26.469,26.469,0,0,0,.8-3.828l.992.129A27.358,27.358,0,0,1,53.935,35.6ZM.776,34.514a27.284,27.284,0,0,1-.663-4.006l1-.09a26.482,26.482,0,0,0,.638,3.859Zm54.1-3.894-.995-.094C53.96,29.691,54,28.841,54,28c0-.464-.012-.927-.036-1.386l1-.051Q55,27.277,55,28C55,28.873,54.958,29.754,54.876,30.62ZM.039,29.5Q0,28.752,0,28c0-.855.039-1.717.118-2.562l1,.092C1.038,26.345,1,27.176,1,28q0,.726.039,1.442ZM53.9,25.638a26.607,26.607,0,0,0-.631-3.861l.973-.234a27.637,27.637,0,0,1,.654,4.007ZM1.221,24.557.23,24.428a27.521,27.521,0,0,1,.819-3.976l.962.274A26.516,26.516,0,0,0,1.221,24.557Zm51.8-3.726a26.546,26.546,0,0,0-1.334-3.68l.912-.41a27.391,27.391,0,0,1,1.385,3.82ZM2.3,19.79l-.951-.31a27.474,27.474,0,0,1,1.541-3.757l.894.447A26.459,26.459,0,0,0,2.3,19.79Zm48.97-3.526a26.565,26.565,0,0,0-1.99-3.37l.821-.57a27.569,27.569,0,0,1,2.066,3.5ZM4.233,15.305l-.878-.48a27.71,27.71,0,0,1,2.2-3.407l.8.6A26.706,26.706,0,0,0,4.233,15.305ZM48.7,12.1a26.64,26.64,0,0,0-2.574-2.948l.7-.711A27.658,27.658,0,0,1,49.5,11.5Zm-41.74-.848-.775-.632A27.761,27.761,0,0,1,8.978,7.672l.674.74A26.826,26.826,0,0,0,6.962,11.252ZM45.42,8.477A26.546,26.546,0,0,0,42.352,6.05l.562-.828A27.662,27.662,0,0,1,46.1,7.741ZM10.387,7.766,9.742,7a27.609,27.609,0,0,1,3.283-2.388l.527.849A26.794,26.794,0,0,0,10.387,7.766Zm31.146-2.25a26.529,26.529,0,0,0-3.459-1.822l.4-.917a27.544,27.544,0,0,1,3.589,1.891ZM14.4,4.962,13.9,4.093a27.477,27.477,0,0,1,3.668-1.745l.361.933A26.265,26.265,0,0,0,14.4,4.962ZM37.172,3.32a26.453,26.453,0,0,0-3.737-1.153l.223-.975a27.353,27.353,0,0,1,3.88,1.2ZM18.85,2.943,18.524,2A27.567,27.567,0,0,1,22.45.962l.183.984A26.358,26.358,0,0,0,18.85,2.943Zm13.627-.977a26.846,26.846,0,0,0-3.887-.445l.041-1a27.605,27.605,0,0,1,4.033.462ZM23.6,1.785,23.452.8A27.869,27.869,0,0,1,27.5.5h.114v1H27.5A26.845,26.845,0,0,0,23.6,1.785Z"/>
      <g>
        <path class="a" d="M19.393,48.372,18.816,46l.972-.236.367,1.509a14.612,14.612,0,0,0,1.467-.283l.24.97a15.739,15.739,0,0,1-2.032.362Z"/>
        <rect class="a" x="18.35" y="42.751" width="1" height="2.548" transform="translate(-9.875 5.705) rotate(-13.677)"/>
        <path class="a" d="M17.912,42.287l-.6-2.466.531-.089a11.2,11.2,0,0,0,1.848-.48l.33.944a12.561,12.561,0,0,1-1.486.422l.348,1.433Z"/>
        <path class="a" d="M20.948,39.834l-.4-.917.221-.1A6.681,6.681,0,0,0,23.4,36.834l.8.6a7.653,7.653,0,0,1-3.043,2.311Zm3.823-3.344-.942-.336a.737.737,0,0,0,.046-.231,3.783,3.783,0,0,0-.317-1.168l-.751-1.869.928-.373.754,1.876a4.477,4.477,0,0,1,.386,1.536A1.723,1.723,0,0,1,24.771,36.49ZM22.45,32l-1.428-3.554.928-.373,1.428,3.554Zm-1.785-4.442L19.237,24l.928-.373,1.428,3.555ZM18.88,23.112l-1.427-3.554.927-.373,1.428,3.554ZM17.1,18.669l-1.428-3.554.928-.373L18.023,18.3Z"/>
        <polygon class="a" points="15.306 14.216 14.285 11.674 17.024 11.674 17.024 12.674 15.764 12.674 16.234 13.843 15.306 14.216"/>
        <rect class="a" x="18.024" y="11.674" width="4" height="1"/>
        <polygon class="a" points="25.058 14.235 24.641 12.674 23.025 12.674 23.025 11.674 25.409 11.674 26.023 13.977 25.058 14.235"/>
        <path class="a" d="M27.823,24.692c-.112-.469-.225-.927-.332-1.342l-.757-2.837.966-.258.758,2.841c.11.424.224.887.338,1.363Zm-1.368-5.225-1.118-4.186.966-.258,1.117,4.186Z"/>
        <path class="a" d="M29.619,28.075h-.984l-.1-.379c-.131-.523-.28-1.159-.437-1.822l-.03-.132.973-.228.031.131c.008.034.016.068.025.1.014-.076.029-.152.044-.228l.981.192c-.138.708-.277,1.4-.416,1.979Z"/>
        <path class="a" d="M30.331,24.668l-.98-.2c.1-.482.191-.947.287-1.361l.573-2.815.98.2-.576,2.828C30.519,23.742,30.425,24.2,30.331,24.668ZM31.4,19.452l-.98-.2.85-4.175.98.2Z"/>
        <polygon class="a" points="32.466 14.233 31.487 14.034 31.967 11.674 34.375 11.674 34.375 12.674 32.784 12.674 32.466 14.233"/>
        <rect class="a" x="35.309" y="11.674" width="3.734" height="1"/>
        <polygon class="a" points="41.811 14.229 40.864 13.91 41.28 12.674 39.976 12.674 39.976 11.674 42.672 11.674 41.811 14.229"/>
        <path class="a" d="M22.863,47.679l-.3-.953A13.843,13.843,0,0,0,25.977,45.1l.55.835A14.857,14.857,0,0,1,22.863,47.679Zm4.5-2.337-.606-.8q.423-.322.841-.694a14.7,14.7,0,0,0,1.872-1.966l.783.622a15.573,15.573,0,0,1-2,2.094C27.96,44.864,27.66,45.112,27.358,45.342Zm3.5-3.641-.816-.579a27.122,27.122,0,0,0,1.981-3.313l.889.459A28.326,28.326,0,0,1,30.855,41.7Zm2.5-4.322-.9-.438c.511-1.046,1.047-2.245,1.593-3.564l.924.383C34.411,35.117,33.882,36.3,33.355,37.379Zm1.992-4.534-.928-.373c.447-1.111.912-2.327,1.4-3.661l.94.344C36.267,30.5,35.8,31.725,35.347,32.845ZM37.1,28.227l-.942-.337.1-.285,1.156-3.436.948.32Zm1.578-4.671-.948-.319,1.255-3.731.949.319Zm1.57-4.663-.949-.32,1.256-3.731.948.32Z"/>
      </g>
    </g>
  </g>
</svg>
