<svg xmlns="http://www.w3.org/2000/svg" width="556.9" height="80.9" viewBox="0 0 566.9 80.9">
  <style>
    .st0{fill:#4E565E;} .st1{fill-rule:evenodd;clip-rule:evenodd;fill:#4E565E;}
  </style>
  <path class="st0" d="M524.6 79.6h-25.3v-2.9c7.1-.7 8.2-1.4 8.2-8.8V26.2c-.2-9.5-1.1-18.1-7.6-20.2-4.2-1.4-8.2.6-10.5 2.4-1.6 1.2-3.1 4-4.9 4-1.9.1-4-2.1-4.2-4-.7-5.3 8.2-9.2 13.1-8.3 13 2.3 23.5 13.3 23.1 29.7v37.9c0 7.5.9 8.2 8.2 8.8v3.1h-.1zM20.3 39.8V28C14.4 30 7.7 31.5.9 32.3v3.1c4.9 1.2 5.6 1.8 5.6 7.8v24.9c0 6.7-.7 7.4-6.5 7.9v3.5h28.4V76c-7.6-.6-8.2-1-8.2-7.9V45.7c1.8-4.3 3.6-5 5.6-5 1.7 0 2.9.8 4.6 2.3.8.7 1.8.9 3.3.3 2.6-1 5.4-4.2 5.4-8.2 0-3.8-2.8-7-6.8-7-4.4 0-8.3 4.8-11.9 11.7h-.1z"/>
  <path class="st1" d="M97.9 75.8l-2.7-.2c-3.4-.3-4-4.1-4-9.7V28.7c-2.5.3-5.7.8-9.4 1.2-3.6.3-7.5.7-10.6.8V34l3.1.7c2.7.6 3.2 1.5 3.2 6.5v28.1c-2.5 2.4-4.3 3.1-7.1 3.1-3.6 0-7.1-2.5-7.1-9.9V45.9c0-6.6.1-12.5.3-17.2-2.7.3-6 .8-9.5 1.2-3.5.3-7.1.7-10.3.8V34l2.4.6c2.7.7 3.3 1.2 3.3 6v24.8c0 9.3 4.3 15.2 13.4 15.2 3.6 0 6.7-.8 9.7-2.8 2.3-1.5 3.4-2.6 5-4.2v5.1l.9.8c3-.1 16.1-.1 19.6-.1v-3.6h-.2z"/>
  <path class="st0" d="M156.2 79.6v-3.5c-5.3-.8-5.9-1-5.9-8.2V46.4c0-11.7-4.9-18.2-14.4-18.2-5.7 0-10.6 3.6-14.2 7.1V1.1c-6.7 1.7-13.9 3.2-19.9 3.8v3.3c5.8.7 6.1.7 6.1 7.4v52.3c0 7.1-.7 7.6-6.8 8.2v3.5h25.4v-3.5c-4.2-.7-4.8-1.1-4.8-7.8V39.6c2.3-2.4 4.8-3.2 7.4-3.2 4.2 0 7.4 2.8 7.4 11.1v20.7c0 6.5-.5 7-5.2 7.8v3.5h24.9v.1zM244.8 79.6v-3.5c-5.4-.8-5.9-1.1-5.9-8V45.5c0-10.4-4.4-17.3-13.8-17.3-3.2 0-6.2 1.6-9 3.5-2.7 1.8-4.9 3.4-7.1 5.1-1.8-4.8-6-8.6-12-8.6-3.6 0-6.3 1.6-9.9 3.9-2.2 1.5-3.7 2.7-5.7 4.2V28c-6 1.8-13 3.4-19.2 4.2v2.9c5.2 1.1 5.3 1.6 5.3 8.3v24.5c0 7-.5 7.5-6.8 8.2v3.5h25.5v-3.5c-4.2-.7-4.9-1.1-4.9-7.8v-28c2.6-2.3 5-3.4 7.7-3.4 4.2 0 7.3 2.8 7.3 10.2v21.2c0 6.8-.6 7.1-5.3 7.8v3.5h24.4v-3.5c-4.6-.7-5.2-1.1-5.2-7.8V44.7c0-1.2-.1-2.6-.2-4.3 3.3-2.9 5.4-3.4 7.9-3.4 3.7 0 7.1 2.3 7.1 10.3V68c0 6.9-.7 7.5-5.2 8v3.5h25v.1z"/>
  <path class="st1" d="M285.4 66.3c-3.6 3.2-7 4.6-11.7 4.6-7.5 0-13.9-6.5-14.3-18.6 10.4-.5 23.8-1.5 25.4-1.8 2.6-.5 3.1-1.7 3.1-4.2.1-9.2-7.1-18.2-17.3-18.2h-.1c-6.1 0-12 3.4-16.3 7.9-3.9 4-7.9 11.2-7.9 20.7 0 12.8 8 24.1 22.3 24.1 4.6 0 12.8-2.5 18.9-11.8l-2.1-2.7zm-16.7-33.9c4 0 6.2 6.1 6.2 11.8 0 2-.6 2.6-2.4 2.6-4.2.2-8 .3-12.5.3.6-8.6 4.5-14.7 8.5-14.7h.2z"/>
  <path class="st0" d="M325.5 42.5c-.2-1.7-1.5-9.7-2.4-12.3-2.6-1.1-5.7-2.2-10.3-2-11.8 0-18.2 7.4-18.2 16 0 9.1 8.2 13.4 13.7 16.4 6 3.2 7.9 6.1 7.9 9.7 0 3.5-2.4 6.5-5.9 6.5-6.3 0-11.1-7.4-13.7-14.5l-3.3.7c.1 4.2 1 12 1.7 14.2 2.2 1.7 7.7 3.9 13.7 3.9 9.1 0 19.2-5.3 19.2-16.5 0-8.7-6.2-12.8-14.7-17-5.1-2.5-7.6-5.1-7.6-8.7 0-3.3 2.5-6.5 5.8-6.5 4.5 0 7.8 4 10.9 11.6l3.2-1.5zM419.7 79.6v-2.9c-6.5-.7-7.4-1.1-7.4-8.7V46c0-11.1-5.6-17.3-14.4-17.3-3.2 0-6.1 1.4-8.5 2.9-2.8 1.7-6.1 3.8-9.4 6.3-2.3-5.9-7.1-9.3-12.6-9.3-3.6 0-6.4 1.2-9.3 3.1-3.4 2.2-5.9 4.2-8.3 5.8v-9.2c-5 2.3-10.8 3.7-15.7 4.6v2.6c6.6 1 6.9 1.6 6.9 8.8v23.5c0 7.4-1 8-8.5 8.7v2.9h23.9v-2.9c-5.6-.7-6.5-1.4-6.5-8.7V41.3c3.4-2.8 7.8-5.9 12.3-5.9 6.9 0 9.9 4.6 9.9 13v19.5c0 7.5-1 8-8 8.7v2.9h24.2v-2.9c-6.2-.7-7.3-1.4-7.3-8.5V46c0-2.2-.1-3.4-.3-4.8 4.3-3.6 8.6-5.9 12.7-5.9 7.1 0 10 5.1 10 13.1v18.9c0 8-1.2 8.5-7.9 9.2v2.9h24.2v.2z"/>
  <path class="st1" d="M461.5 67.6c-4.1 3.8-8.4 5.7-12.9 5.7-7.9 0-16.8-6.3-16.9-21.8 13.5-.5 27.6-1.6 29.6-1.9 2-.5 2.6-1.4 2.6-3.6 0-8.8-7.6-17.2-17-17.2h-.1c-5.8 0-11.9 3.1-16.5 8.3-4.6 5.1-7.5 12-7.5 19.8 0 12.8 8.2 24.1 22.1 24.1 3.5 0 11.3-2 18.5-11l-1.9-2.4zm-17.3-34.7c6.2 0 10.1 5.4 10 11.3 0 1.6-.7 2.3-2.7 2.3-6.6.2-12.8.3-19.2.3 1.7-9.2 6.7-13.9 11.8-13.9h.1z"/>
  <path class="st0" d="M494.2 79.6v-2.9c-7.3-.7-8-1.4-8-9.1V28.5c-5 2-10.3 3.5-16.1 4.4v2.7c6.8 1 7.1 1.6 7.1 8.5v23.5c0 7.7-.8 8.4-7.9 9.1v2.9h24.9z"/>
  <path class="st1" d="M564.5 67.6c-4.1 3.8-8.4 5.7-12.9 5.7-7.9 0-16.8-6.3-16.9-21.8 13.5-.5 27.6-1.6 29.6-1.9 2-.5 2.6-1.4 2.6-3.6 0-8.8-7.6-17.2-17-17.2h-.1c-5.8 0-11.9 3.1-16.5 8.3-4.6 5.1-7.5 12-7.5 19.8 0 12.8 8.2 24.1 22.1 24.1 3.5 0 11.3-2 18.5-11l-1.9-2.4zm-17.3-34.7c6.2 0 10.1 5.4 10 11.3 0 1.6-.7 2.3-2.7 2.3-6.6.2-12.8.3-19.1.3 1.7-9.2 6.7-13.9 11.8-13.9z"/>
</svg>
