<svg width="998" height="500" viewBox="0 0 998 500" fill="none" xmlns="http://www.w3.org/2000/svg">
<g clip-path="url(#clip0_864_3587)">
<path d="M952.591 256.557L973.524 281.531L937.322 311.877L905.863 304.625L886.151 265.772L891.876 243.503L952.591 256.557Z" fill="#06566A" fill-opacity="0.1"/>
<path d="M691.328 177.386L750.03 118.684L736.125 104.779L695.925 104.788L649.354 151.359L675.384 177.389L691.328 177.386Z" fill="#ECFF00" fill-opacity="0.4"/>
<path d="M653.002 166.523L643.528 156.21L643.528 121.433L669.79 93.731L697.012 93.731L700.97 97.4486L700.97 116.997L653.002 166.523Z" fill="#06566A" fill-opacity="0.1"/>
<g opacity="0.7">
<path d="M919.014 77.0498L923.003 78.6489L949.545 67.2985L956.901 48.9506L953.914 41.9659L918.99 56.9006L914.832 67.2712L919.014 77.0498Z" fill="#06708A"/>
<path d="M910.119 74.4099L888.181 65.6147L879.46 44.0622L888.161 39.6802L897.136 43.2782L915.148 72.2593L910.119 74.4099Z" fill="#06708A"/>
<path d="M928.325 84.1397L904.592 74.6249L864.28 92.0292L842.692 145.876L849.502 161.801L895.372 180.191L911.297 173.381L938.003 106.77L928.325 84.1397Z" fill="#ECFF00"/>
<circle cx="874.997" cy="163.457" r="1.07432" transform="rotate(21.8465 874.997 163.457)" fill="white"/>
<circle cx="891.339" cy="133.666" r="0.859457" transform="rotate(21.8465 891.339 133.666)" fill="white"/>
<circle cx="880.658" cy="118.735" r="1.28919" transform="rotate(21.8465 880.658 118.735)" fill="white"/>
<circle cx="883.584" cy="151.853" r="0.859457" transform="rotate(21.8465 883.584 151.853)" fill="white"/>
<circle cx="879.526" cy="137.726" r="0.859457" transform="rotate(21.8465 879.526 137.726)" fill="white"/>
<circle cx="886.378" cy="150.659" r="0.859457" transform="rotate(21.8465 886.378 150.659)" fill="white"/>
<path d="M892.581 76.2912L863.525 88.7169L840.737 145.556L850.137 167.148L884.075 187.005L902.634 179.399L935.13 107.007L926.925 88.2083L892.581 76.2912Z" stroke="#065669" stroke-opacity="0.4" stroke-width="2"/>
<circle cx="872.977" cy="144.823" r="1.28919" transform="rotate(21.8465 872.977 144.823)" fill="white"/>
<circle cx="865.029" cy="154.831" r="1.07432" transform="rotate(21.8465 865.029 154.831)" fill="white"/>
<circle cx="885.588" cy="141.082" r="1.28919" transform="rotate(21.8465 885.588 141.082)" fill="white"/>
<circle cx="888.543" cy="137.174" r="1.28919" transform="rotate(21.8465 888.543 137.174)" fill="white"/>
<circle cx="885.674" cy="132.783" r="1.71891" transform="rotate(21.8465 885.674 132.783)" fill="white"/>
</g>
<g opacity="0.7">
<path d="M775.419 466.739L797.413 462.353L794.611 478.482L783.035 480.79L777.545 477.403L775.419 466.739Z" fill="#B4CCD2"/>
<path d="M775.419 466.739L778.948 466.035L780.812 475.384L785.158 480.367L783.035 480.79L777.545 477.403L775.419 466.739Z" fill="#9BBBC3"/>
<path d="M822.522 457.269L842.143 453.356L845.146 468.414L832.598 470.916L828.408 467.749L822.522 457.269Z" fill="#B4CCD2"/>
<path d="M822.522 457.269L827.692 456.238L831.83 467.067L835.189 470.399L832.597 470.916L828.407 467.749L822.522 457.269Z" fill="#9BBBC3"/>
<path d="M756.891 413.66L832.454 398.591L847.841 404.61L856.318 447.115L851.846 454.03L768.266 470.698L756.891 413.66Z" fill="#387888"/>
<path d="M754.155 411.833L829.718 396.764L845.105 402.783L853.581 445.288L849.109 452.204L765.529 468.871L754.155 411.833Z" fill="#518997"/>
<path d="M754.155 411.833L830.042 396.7L812.059 401.794L761.267 413.548L769.919 456.932L766.79 460.604L764.869 465.559L754.155 411.833Z" fill="#387888"/>
<path d="M821.019 411.071L752.916 424.652L759.289 456.613L759.559 457.966L762.294 459.789L764.313 459.387L836.444 445.002L830.689 416.141L821.019 411.071Z" fill="#82AAB5"/>
<path d="M752.916 424.652L820.791 411.117L828.316 416.14L833.708 443.176L761.61 457.553L759.211 456.222L752.916 424.652Z" fill="#6A9AA6"/>
<path d="M762.28 404.993L775.969 402.263L776.97 407.283L763.281 410.013L762.28 404.993Z" fill="#B4CCD2"/>
<path d="M762.28 404.993L775.969 402.263L764.125 405.967L764.868 409.696L763.281 410.013L762.28 404.993Z" fill="#9BBBC3"/>
<path d="M759.548 396.049L777.572 392.455L779.392 401.581L758.858 405.675L757.584 399.287L759.548 396.049Z" fill="#9BBBC3"/>
<path d="M759.548 396.049L777.572 392.455L760.456 397.758L759.517 400.181L758.858 405.675L757.584 399.287L759.548 396.049Z" fill="#82AAB5"/>
<path d="M780.362 430.604L810.972 424.5L817.827 428.877L818.929 434.4L782.565 441.652L780.362 430.604Z" fill="#518997"/>
<path d="M779.19 429.821L809.8 423.717L816.655 428.093L817.757 433.617L781.393 440.869L779.19 429.821Z" fill="#1F6779"/>
<path d="M792.053 431.384L810.521 427.702L810.421 431.785L793.419 435.176L792.053 431.384Z" fill="#ECFF00"/>
<path d="M792.053 431.384L810.521 427.702L810.421 431.785L793.419 435.176L792.053 431.384Z" fill="#06566A" fill-opacity="0.3"/>
<path d="M786.777 432.437L804.267 428.949L804.167 433.032L788.142 436.228L786.777 432.437Z" fill="#ECFF00"/>
<path d="M771.443 429.379L766.953 430.275L765.392 432.636L766.284 437.109L767.222 437.735L773.666 436.45L772.381 430.005L771.443 429.379Z" fill="#518997"/>
<path d="M766.953 430.275L771.443 429.379L772.728 435.824L766.284 437.109L765.392 432.636L766.953 430.275Z" fill="#1F6779"/>
<path d="M773.279 438.586L766.835 439.872L768.12 446.316L769.058 446.942L773.648 446.026L775.152 443.899L774.217 439.212L773.279 438.586Z" fill="#518997"/>
<path d="M766.835 439.872L773.279 438.586L774.214 443.273L772.71 445.4L768.12 446.316L766.835 439.872Z" fill="#1F6779"/>
<path d="M816.93 380.474L811.042 377.691L808.058 389.468L811.962 390.066L810.17 398.336L817.191 386.099L812.824 386.625L816.93 380.474Z" fill="#ECFF00"/>
<path d="M788.139 382.702L782.786 386.41L791.493 394.883L793.962 391.801L800.229 397.488L793.141 385.288L791.414 389.334L788.139 382.702Z" fill="#ECFF00"/>
</g>
<path d="M54.5404 468.027L51 462.652L54.5404 443.489L73.6584 429L127 432.973V456.342L106.702 472L54.5404 468.027Z" fill="#06566A" fill-opacity="0.1"/>
<path d="M31 398.954V369H74.9167L93 392.684L83.8409 431.694L66.4621 444L31 398.954Z" fill="#ECFF00" fill-opacity="0.4"/>
<g opacity="0.7">
<path d="M43.1617 156.489L138.88 182.136L140.593 183.874L141.656 216.651L40.9252 189.66L39.9958 161.013L41.5453 157.718L43.1617 156.489Z" fill="#518997"/>
<path d="M44.1165 156.744L138.88 182.136L140.593 183.874L141.656 216.65L45.2218 190.811L44.1165 156.744Z" fill="#1F6779"/>
<path fill-rule="evenodd" clip-rule="evenodd" d="M51.246 165.925L51.9104 192.603L139.747 216.138L138.795 187.23L53.7938 164.454L51.246 165.925Z" fill="#82AAB5"/>
<path d="M85.0559 174.992L46.5052 174.992L46.5052 213.543L85.0559 213.543L85.0559 174.992Z" fill="white"/>
<path d="M75.6654 181.911L55.8959 181.911L55.8959 206.623L75.6654 206.623L75.6654 181.911Z" fill="#06566A" fill-opacity="0.25"/>
<path fill-rule="evenodd" clip-rule="evenodd" d="M60.8011 187.2C61.5997 187.2 62.2467 186.569 62.2469 185.792C62.2471 185.014 61.5999 184.383 60.8012 184.383C60.003 184.383 59.3555 185.014 59.3554 185.792C59.3557 186.57 60.0028 187.2 60.8011 187.2ZM67.0275 186.574L72.0424 193.774L65.624 193.774L62.0131 193.774L59.3554 193.774L62.4899 189.392L63.7945 191.216L67.0275 186.574Z" fill="#06566A"/>
<path d="M73.1944 196.245L58.3672 196.245L58.3672 198.222L73.1944 198.222L73.1944 196.245Z" fill="#06566A"/>
<path d="M73.1951 199.21L58.3679 199.21L58.3679 201.187L73.1951 201.187L73.1951 199.21Z" fill="#06566A"/>
<path d="M69.2404 202.175L58.3672 202.175L58.3672 204.152L69.2404 204.152L69.2404 202.175Z" fill="#06566A"/>
<path fill-rule="evenodd" clip-rule="evenodd" d="M46.0112 174.498L85.5503 174.498L85.5503 214.037L46.0112 214.037L46.0112 174.498ZM46.9997 175.487L46.9997 213.049L84.5619 213.049L84.5619 175.487L46.9997 175.487Z" fill="#06566A"/>
<path d="M124.31 185.907L87.0734 175.929L77.0957 213.167L114.333 223.144L124.31 185.907Z" fill="white"/>
<path d="M99.7663 183.935L94.9923 182.656L94.6086 184.088L99.3825 185.367L99.7663 183.935Z" fill="#06566A"/>
<path d="M105.496 185.471L100.722 184.192L100.338 185.624L105.112 186.903L105.496 185.471Z" fill="#06566A"/>
<path d="M108.675 188.881L94.3527 185.043L93.5852 187.908L107.907 191.745L108.675 188.881Z" fill="#06566A"/>
<path d="M112.041 195.412L92.9453 190.296L89.1078 204.618L108.204 209.734L112.041 195.412Z" fill="#06566A"/>
<path d="M107.564 212.121L88.4684 207.004L88.0207 208.675L107.117 213.792L107.564 212.121Z" fill="#06566A" fill-opacity="0.25"/>
<path d="M106.861 214.746L87.7648 209.63L87.3171 211.301L106.413 216.417L106.861 214.746Z" fill="#06566A" fill-opacity="0.25"/>
<path fill-rule="evenodd" clip-rule="evenodd" d="M86.7235 175.324L124.915 185.558L114.682 223.75L76.49 213.516L86.7235 175.324ZM87.4225 176.535L77.7007 212.817L113.983 222.539L123.705 186.257L87.4225 176.535Z" fill="#06566A"/>
<path d="M152.869 202.982L119.483 183.706L100.207 217.092L133.593 236.367L152.869 202.982Z" fill="white"/>
<path d="M143.086 211.03L117.405 196.203L109.991 209.044L135.672 223.871L143.086 211.03Z" fill="#06566A"/>
<path fill-rule="evenodd" clip-rule="evenodd" d="M119.302 183.03L153.544 202.8L133.774 237.042L99.5326 217.272L119.302 183.03ZM119.664 184.381L100.883 216.91L133.413 235.691L152.194 203.162L119.664 184.381Z" fill="#06566A"/>
<path d="M45.8524 196.096L145.151 222.703L136.005 256.837L129.044 260.856L40.0092 237C37.373 236.293 35.8079 233.583 36.5144 230.947L45.8524 196.096Z" fill="#387888"/>
<path opacity="0.1" d="M45.8524 196.096L56.8326 199.039L145.151 222.703L144 227L55.6813 203.335L48.8435 210.713L36.8105 229.841L39.0967 221.309L45.8524 196.096Z" fill="black"/>
<path d="M45.2217 190.811L146.171 217.86L147.956 219.874L146.805 224.17L44.4028 196.732L43.9425 195.585L45.2217 190.811Z" fill="#518997"/>
<path d="M45.2217 190.811L146.171 217.86L147.956 219.874L46.0782 193.343L44.4028 196.732L43.9425 195.585L45.2217 190.811Z" fill="#387888"/>
<path d="M77.9408 198.555L82.2374 199.706L83.5713 202.366L80.949 212.153L74.7428 210.49L77.9408 198.555Z" fill="#CDDDE1"/>
<path d="M77.9408 198.555L82.2374 199.706L78.3028 201.978L75.9363 210.809L74.7428 210.49L77.9408 198.555Z" fill="#B4CCD2"/>
<path d="M109.926 207.125L114.223 208.276L115.557 210.936L112.934 220.723L106.728 219.06L109.926 207.125Z" fill="#CDDDE1"/>
<path d="M109.926 207.125L114.223 208.276L110.288 210.548L107.922 219.38L106.728 219.06L109.926 207.125Z" fill="#B4CCD2"/>
</g>
<g opacity="0.7">
<path d="M499.724 103.992L365.605 71.2823L359.798 82.5145L360.766 91.1234L509.873 127.488L513.605 112.187L499.724 103.992Z" fill="#9BBBC3"/>
<path d="M494.076 117.756L487.673 106.218M366.425 74.332L372.294 88.0555L366.425 74.332ZM389.077 94.8206L383.823 78.575L389.077 94.8206ZM400.687 85.0038L407.089 96.5414L400.687 85.0038ZM424.486 100.784L418.617 87.0608L424.486 100.784ZM435.481 93.4896L441.351 107.213L435.481 93.4896ZM458.666 111.792L453.412 95.5467L458.666 111.792ZM470.276 101.975L476.063 116.035L470.276 101.975Z" stroke="#82AAB5" stroke-width="5"/>
<path d="M363.747 90.4254L510.705 126.266L511.46 133.398L506.162 139.053L360.549 103.541L359.166 96.7905L363.747 90.4254Z" fill="#387888"/>
<path d="M368.919 99.1686L369.739 95.8057L372.766 96.5438L374.804 100.604L371.289 102.597L368.919 99.1686Z" fill="#9BBBC3"/>
<path d="M432.309 114.629L433.129 111.266L436.156 112.004L438.194 116.064L434.68 118.057L432.309 114.629Z" fill="#9BBBC3"/>
<path d="M395.986 105.058L394.653 106.87L392.14 107.682L390.437 103.705L393.616 101.629L395.986 105.058Z" fill="#9BBBC3"/>
<path d="M480.395 125.643L479.062 127.456L476.548 128.268L474.846 124.29L478.024 122.215L480.395 125.643Z" fill="#9BBBC3"/>
<path d="M411.455 108.83L411.804 111.053L414.626 112.632L417.004 110.183L414.384 107.05L411.455 108.83Z" fill="#9BBBC3"/>
<path d="M453.828 119.164L454.176 121.387L456.998 122.966L459.376 120.517L456.756 117.384L453.828 119.164Z" fill="#9BBBC3"/>
<path d="M494.843 79.998L464.295 75.573L458.773 102.057L487.994 109.54L494.843 79.998Z" fill="#ECFF00"/>
<path d="M494.843 79.998L464.295 75.573L458.773 102.057L466.059 79.9536L494.843 79.998Z" fill="#06566A" fill-opacity="0.2"/>
<path d="M495.534 81.8915L462.429 75.1426L464.578 67.781L495.963 73.8583L495.534 81.8915Z" fill="#ECFF00"/>
<path d="M495.534 81.8915L462.429 75.1426L464.578 67.781L495.963 73.8583L495.534 81.8915Z" fill="#06566A" fill-opacity="0.3"/>
<path d="M462.429 75.1425L464.578 67.7808L470.624 68.9515L467.738 69.51L464.686 72.5282L465.051 75.7817L462.429 75.1425Z" fill="#06566A" fill-opacity="0.3"/>
<path d="M420.486 63.8943L416.591 62.9441L414.866 70.4585L418.659 71.3836L418.523 66.6021L420.486 63.8943Z" fill="#06566A" fill-opacity="0.3"/>
<path d="M446.958 74.7341L416.411 70.3092L410.725 97.4659L440.688 104.38L446.958 74.7341Z" fill="#ECFF00"/>
<path d="M419.887 68.1317L416.411 70.3092L410.725 97.4659L417.132 80.9091L417.192 73.2455L437.766 75.5173L419.887 68.1317Z" fill="#06566A" fill-opacity="0.2"/>
<path d="M449.57 70.2794L416.586 62.9643L414.861 70.4787L447.364 77.9554L449.57 70.2794Z" fill="#ECFF00"/>
<path d="M449.57 70.2794L416.586 62.9643L414.861 70.4787L447.364 77.9554L449.57 70.2794Z" fill="#06566A" fill-opacity="0.3"/>
<path d="M402.962 59.3713L371.906 54.1097L366.384 80.594L395.351 87.6585L402.962 59.3713Z" fill="#ECFF00"/>
<path d="M379.855 56.0485L371.906 54.1099L366.384 80.5941L369.214 81.2844L372.709 58.0551L378.466 56.999L379.855 56.0485Z" fill="#06566A" fill-opacity="0.2"/>
<path d="M369.96 53.9951L403.671 61.8603L405.27 55.3027L403.835 53.8838L372.56 46.2563L369.96 53.9951Z" fill="#ECFF00"/>
<path d="M369.96 53.9951L403.671 61.8603L405.27 55.3027L403.835 53.8838L372.56 46.2563L369.96 53.9951Z" fill="#06566A" fill-opacity="0.3"/>
<path d="M369.929 54.0285L371.021 54.295L373.948 48.2277L403.803 53.9172L372.529 46.2898L369.929 54.0285Z" fill="#06566A" fill-opacity="0.3"/>
</g>
<g opacity="0.7">
<path d="M456.322 365.081L513.351 400.648L526.766 433.739L526.428 434.2L526.997 435.604L499.55 473.011L452.352 474.284L417.378 441.513L417.459 439.941L417.147 439.648L417.55 431.83L433.109 425.523L438.548 408.239L428.01 395.357L414.767 389.754L414.536 387.889L422.029 374.901L456.322 365.081Z" fill="#387888"/>
<path d="M513.351 400.648L456.322 365.081L422.029 374.901L414.536 387.889L427.779 393.492L438.908 407.097L433.109 425.523L417.55 431.83L417.147 439.648L452.121 472.42L499.319 471.147L526.766 433.739L513.351 400.648Z" fill="#518997"/>
<path opacity="0.5" d="M513.351 400.648L456.322 365.081L422.029 374.901L414.536 387.889L427.779 393.492L438.908 407.097L433.109 425.523L417.55 431.83L417.147 439.648L433.536 442.197L449.033 425.967L442.519 395.021L460.017 377.344L513.351 400.648Z" fill="#387888"/>
<path d="M457.297 388.863L458.742 397.463L449.976 401.016L446.245 391.812L453.471 387.607L457.297 388.863Z" fill="#ECFF00"/>
<path d="M477.351 386.814L468.658 387.513L467.353 396.881L477.19 398.252L479.503 390.218L477.351 386.814Z" fill="#ECFF00"/>
<path d="M477.351 386.814L468.658 387.513L467.353 396.881L477.19 398.252L479.503 390.218L477.351 386.814Z" fill="#06566A" fill-opacity="0.3"/>
<path d="M497.762 404.213L491.619 410.403L483.62 405.355L488.921 396.956L496.551 400.373L497.762 404.213Z" fill="#ECFF00"/>
<path d="M497.762 404.213L491.619 410.403L483.62 405.355L488.921 396.956L496.551 400.373L497.762 404.213Z" fill="#06566A" fill-opacity="0.5"/>
<path d="M499.271 419.57L507.241 423.11L505.368 432.381L495.633 430.415L496.113 422.068L499.271 419.57Z" fill="#ECFF00"/>
<path d="M499.271 419.57L507.241 423.11L505.368 432.381L495.633 430.415L496.113 422.068L499.271 419.57Z" fill="#06566A" fill-opacity="0.6"/>
<path d="M485.911 448.207L493.533 443.969L499.813 451.042L492.387 457.636L486.007 452.233L485.911 448.207Z" fill="#ECFF00"/>
<path d="M485.911 448.207L493.533 443.969L499.813 451.042L492.387 457.636L486.007 452.233L485.911 448.207Z" fill="#06566A" fill-opacity="0.7"/>
<path d="M442.218 413.353L434.009 425.213L456.1 449.739L467.499 438.09L460.516 427.376L452.38 423.296L449.611 416.706L442.218 413.353Z" fill="#ECFF00"/>
<path d="M442.556 421.932L435.765 428.872M450.439 425.28L444.36 430.005L441.962 434.935M456.404 432.571L451.796 437.28L446.919 439.786M460.628 437.675L452.641 447.325" stroke="#06566A" stroke-opacity="0.2" stroke-width="2"/>
<path d="M416.539 455.326L431.139 444.335L436.297 449.381L417.896 465.239L412.248 459.712L416.539 455.326Z" fill="#82AAB5"/>
<path d="M421.356 458.858L434.561 448.03L436.296 449.383L417.895 465.24L415.878 463.266L418.716 462.246L421.356 458.858Z" fill="#6A9AA6"/>
<path d="M446.366 459.234L436.297 449.382L431.14 444.335L423.476 433.499L433.013 423.752L459.781 449.945L446.366 459.234Z" fill="#B4CCD2"/>
<path d="M446.366 459.233L436.297 449.381L431.14 444.334L423.476 433.498L433.013 423.751L434.313 424.765L427.245 433.832L446.366 459.233Z" fill="#06566A" fill-opacity="0.1"/>
<path d="M469.638 431.955L444.962 477.791L447.388 479.682L474.288 435.579L469.638 431.955Z" fill="#B4CCD2"/>
<path d="M474.288 435.579L470.567 437.643L447.592 477.601L444.962 477.791L447.388 479.682L474.288 435.579Z" fill="#9BBBC3"/>
<path d="M468.936 431.729L475.346 435.526L473.792 438.551L471.805 438.201L468.174 436.091L467.156 434.577L468.936 431.729Z" fill="white"/>
<path d="M473.3 435.009L475.345 435.526L473.792 438.551L471.805 438.201L472.386 437.455L472.64 435.856L473.3 435.009Z" fill="#E6EEF0"/>
<path d="M470.342 427.668L469.485 432.716L474.288 435.579L477.453 433.21L476.637 428.617L479.38 422.841L477.373 422.596L470.342 427.668Z" fill="#ECFF00"/>
</g>
<path d="M217.624 54.9034L224.347 59.9L229.552 84.4597L214.399 109.891L150.536 127.368L139.175 99.2192L155.131 71.8879L217.624 54.9034Z" fill="#06566A" fill-opacity="0.1"/>
<path d="M378.531 270.911L386.302 282.2H399.298L385.9 262.914L398.226 249.608H385.297L373.976 261.839V234.488H363.124V282.2H373.976V275.816L378.531 270.911Z" fill="#04323E"/>
<path d="M408.787 244.501C412.27 244.501 415.151 241.88 415.151 238.386C415.151 234.824 412.27 232.203 408.787 232.203C405.236 232.203 402.423 234.824 402.423 238.386C402.423 241.88 405.236 244.501 408.787 244.501ZM414.28 249.608H403.428V282.2H414.28V249.608Z" fill="#04323E"/>
<path d="M437.952 273.733C433.33 273.733 430.516 270.306 430.516 265.871C430.516 261.436 433.33 258.076 437.952 258.076C441.302 258.076 443.78 260.024 444.316 262.981H454.565C453.828 254.581 446.929 248.869 437.952 248.869C427.703 248.869 420.2 255.992 420.2 265.871C420.2 275.816 427.703 282.94 437.952 282.94C446.929 282.94 453.828 277.228 454.565 268.828H444.316C443.78 271.784 441.302 273.733 437.952 273.733Z" fill="#04323E"/>
<path d="M475.744 270.911L483.514 282.2H496.51L483.112 262.914L495.438 249.608H482.51L471.188 261.839V234.488H460.336V282.2H471.188V275.816L475.744 270.911Z" fill="#04323E"/>
<path d="M497.246 270.978C497.916 279.646 504.815 283.208 513.323 283.208C521.764 283.208 528.53 279.714 528.53 272.187C528.53 266.408 524.51 263.451 518.414 262.309L512.318 261.301C509.773 260.83 508.969 259.822 508.969 258.747C508.969 257.47 510.242 256.395 513.055 256.395C516.07 256.395 518.347 257.538 518.548 260.024H528.195C527.726 251.422 519.888 248.734 512.988 248.734C504.347 248.734 498.519 252.766 498.519 259.621C498.519 265.333 502.404 268.491 508.031 269.432L514.596 270.574C516.74 270.91 517.744 271.784 517.744 272.859C517.744 274.27 516.003 275.144 513.122 275.144C509.706 275.144 507.361 273.867 506.892 271.045L497.246 270.978Z" fill="#04323E"/>
<path d="M559.244 272.389C556.832 272.859 555.024 273.195 553.483 273.195C550.268 273.195 548.392 271.582 548.392 268.29V258.949H559.445V249.608H548.392V238.52H537.54V249.608H531.176V258.949H537.54V268.626C537.54 277.429 542.765 283.208 550.602 283.208C553.818 283.208 556.23 282.939 560.45 281.595L559.244 272.389Z" fill="#04323E"/>
<path d="M599.244 249.608H588.391V251.356C585.98 249.81 583.032 248.869 579.482 248.869C570.706 248.869 563.337 256.127 563.337 265.871C563.337 275.548 570.706 282.872 579.482 282.872C583.032 282.872 585.98 281.932 588.391 280.386V282.2H599.244V249.608ZM581.625 273.935C577.204 273.935 573.989 270.373 573.989 265.871C573.989 261.368 577.204 257.74 581.625 257.74C584.037 257.74 586.382 258.479 588.391 260.831V270.911C586.382 273.263 584.037 273.935 581.625 273.935Z" fill="#04323E"/>
<path d="M628.653 249.07C623.83 249.07 620.346 250.616 617.466 253.102V249.608H606.614V282.2H617.466V263.586C620.011 261.032 623.361 259.621 628.653 259.419V249.07Z" fill="#04323E"/>
<path d="M659.4 272.389C656.988 272.859 655.179 273.195 653.638 273.195C650.423 273.195 648.547 271.582 648.547 268.29V258.949H659.601V249.608H648.547V238.52H637.695V249.608H631.331V258.949H637.695V268.626C637.695 277.429 642.92 283.208 650.758 283.208C653.973 283.208 656.385 282.939 660.605 281.595L659.4 272.389Z" fill="#04323E"/>
<path d="M666.348 236.504V282.2H684.703C698.972 282.2 709.288 272.792 709.288 259.218C709.288 245.845 698.972 236.504 684.703 236.504H666.348ZM677.67 271.986V246.718H684.703C692.072 246.718 697.766 252.162 697.766 259.218C697.766 266.475 692.072 271.986 684.703 271.986H677.67Z" fill="#04323E"/>
<path d="M732.987 235.496C722.269 235.496 714.9 241.275 714.9 250.414C714.9 257.672 719.12 261.906 728.097 263.854L735.6 265.534C739.485 266.274 740.423 267.886 740.423 269.432C740.423 271.918 738.212 273.464 733.992 273.464C728.633 273.464 725.149 271.045 724.412 267.013H713.091C714.163 278.302 723.408 283.141 733.657 283.141C745.045 283.141 752.548 277.429 752.548 268.29C752.548 260.427 747.122 257.067 738.815 255.253L732.451 253.774C729.035 253.035 727.226 251.96 727.226 249.474C727.226 246.517 729.839 244.904 733.724 244.904C738.346 244.904 740.49 247.256 741.093 250.683H752.481C751.342 238.386 740.356 235.496 732.987 235.496Z" fill="#04323E"/>
<path d="M245 215C245 211.134 248.124 208 251.978 208H321.758C325.612 208 328.736 211.134 328.736 215V285C328.736 288.866 325.612 292 321.758 292H251.978C248.124 292 245 288.866 245 285V215Z" fill="#06566A"/>
<path fill-rule="evenodd" clip-rule="evenodd" d="M271.228 218.5H263.317H260.701V221.781H263.317V276.328L268.59 281.631H277.709V225.019L271.228 218.5Z" fill="#ECFF00"/>
<path fill-rule="evenodd" clip-rule="evenodd" d="M292.887 250.525H274.569L305.601 281.655L314.76 272.467L292.887 250.525Z" fill="#ECFF00"/>
<path fill-rule="evenodd" clip-rule="evenodd" d="M277.789 259.219H292.201L318.531 232.806H296.257L273.858 255.275L277.789 259.219Z" fill="#06566A"/>
<path fill-rule="evenodd" clip-rule="evenodd" d="M272.607 255.381H289.616L310.681 234.25H293.672L272.607 255.381Z" fill="#ECFF00"/>
<path d="M310.681 234.25H300.214V237.531H310.681V234.25Z" fill="#ECFF00"/>
<path fill-rule="evenodd" clip-rule="evenodd" d="M301.391 281.398L312.017 270.738L314.238 272.965L303.612 283.625L301.391 281.398Z" fill="#ECFF00"/>
</g>
<defs>
<clipPath id="clip0_864_3587">
<rect width="998" height="500" fill="white"/>
</clipPath>
</defs>
</svg>
