<svg width="998" height="500" viewBox="0 0 998 500" fill="none" xmlns="http://www.w3.org/2000/svg">
<g clip-path="url(#clip0_864_3277)">
<path d="M971.804 282.989L992.738 307.963L956.535 338.308L925.076 331.057L905.364 292.204L911.09 269.935L971.804 282.989Z" fill="#06566A" fill-opacity="0.1"/>
<path d="M839.328 110.386L898.03 51.6838L884.125 37.7785L843.925 37.7881L797.354 84.3594L823.384 110.389L839.328 110.386Z" fill="#ECFF00" fill-opacity="0.4"/>
<path d="M801.002 99.523L791.528 89.2098L791.528 54.4328L817.79 26.731L845.012 26.731L848.97 30.4486L848.97 49.9971L801.002 99.523Z" fill="#06566A" fill-opacity="0.1"/>
<g opacity="0.7">
<path d="M922.309 201.794L926.298 203.393L952.84 192.042L960.196 173.695L957.209 166.71L922.285 181.645L918.128 192.015L922.309 201.794Z" fill="#06708A"/>
<path d="M913.414 199.154L891.476 190.359L882.755 168.806L891.457 164.424L900.431 168.022L918.443 197.003L913.414 199.154Z" fill="#06708A"/>
<path d="M931.62 208.884L907.887 199.369L867.575 216.773L845.987 270.62L852.798 286.545L898.667 304.935L914.592 298.125L941.298 231.514L931.62 208.884Z" fill="#ECFF00"/>
<circle cx="878.292" cy="288.202" r="1.07432" transform="rotate(21.8465 878.292 288.202)" fill="white"/>
<circle cx="894.634" cy="258.41" r="0.859457" transform="rotate(21.8465 894.634 258.41)" fill="white"/>
<circle cx="883.953" cy="243.479" r="1.28919" transform="rotate(21.8465 883.953 243.479)" fill="white"/>
<circle cx="886.88" cy="276.597" r="0.859457" transform="rotate(21.8465 886.88 276.597)" fill="white"/>
<circle cx="882.821" cy="262.47" r="0.859457" transform="rotate(21.8465 882.821 262.47)" fill="white"/>
<circle cx="889.673" cy="275.403" r="0.859457" transform="rotate(21.8465 889.673 275.403)" fill="white"/>
<path d="M895.876 201.035L866.82 213.461L844.033 270.299L853.432 291.892L887.37 311.749L905.93 304.143L938.425 231.751L930.22 212.952L895.876 201.035Z" stroke="#065669" stroke-opacity="0.4" stroke-width="2"/>
<circle cx="876.272" cy="269.567" r="1.28919" transform="rotate(21.8465 876.272 269.567)" fill="white"/>
<circle cx="868.324" cy="279.575" r="1.07432" transform="rotate(21.8465 868.324 279.575)" fill="white"/>
<circle cx="888.883" cy="265.826" r="1.28919" transform="rotate(21.8465 888.883 265.826)" fill="white"/>
<circle cx="891.839" cy="261.918" r="1.28919" transform="rotate(21.8465 891.839 261.918)" fill="white"/>
<circle cx="888.969" cy="257.527" r="1.71891" transform="rotate(21.8465 888.969 257.527)" fill="white"/>
</g>
<g opacity="0.7">
<path d="M775.419 466.739L797.413 462.353L794.611 478.482L783.035 480.79L777.545 477.403L775.419 466.739Z" fill="#B4CCD2"/>
<path d="M775.419 466.739L778.948 466.035L780.812 475.384L785.158 480.367L783.035 480.79L777.545 477.403L775.419 466.739Z" fill="#9BBBC3"/>
<path d="M822.522 457.269L842.143 453.356L845.146 468.414L832.598 470.916L828.408 467.749L822.522 457.269Z" fill="#B4CCD2"/>
<path d="M822.522 457.269L827.692 456.238L831.83 467.067L835.189 470.399L832.597 470.916L828.407 467.749L822.522 457.269Z" fill="#9BBBC3"/>
<path d="M756.891 413.66L832.455 398.591L847.841 404.61L856.318 447.115L851.846 454.03L768.266 470.698L756.891 413.66Z" fill="#387888"/>
<path d="M754.155 411.833L829.718 396.764L845.105 402.783L853.581 445.288L849.109 452.204L765.529 468.871L754.155 411.833Z" fill="#518997"/>
<path d="M754.155 411.833L830.042 396.7L812.059 401.794L761.267 413.548L769.919 456.932L766.79 460.604L764.869 465.559L754.155 411.833Z" fill="#387888"/>
<path d="M821.019 411.071L752.916 424.652L759.289 456.613L759.559 457.966L762.294 459.789L764.313 459.387L836.444 445.002L830.689 416.141L821.019 411.071Z" fill="#82AAB5"/>
<path d="M752.916 424.652L820.791 411.117L828.316 416.14L833.708 443.176L761.61 457.553L759.211 456.222L752.916 424.652Z" fill="#6A9AA6"/>
<path d="M762.28 404.993L775.969 402.263L776.97 407.283L763.281 410.013L762.28 404.993Z" fill="#B4CCD2"/>
<path d="M762.28 404.993L775.969 402.263L764.125 405.967L764.868 409.696L763.281 410.013L762.28 404.993Z" fill="#9BBBC3"/>
<path d="M759.548 396.049L777.572 392.455L779.392 401.581L758.858 405.675L757.584 399.287L759.548 396.049Z" fill="#9BBBC3"/>
<path d="M759.548 396.049L777.572 392.455L760.456 397.758L759.517 400.181L758.858 405.675L757.584 399.287L759.548 396.049Z" fill="#82AAB5"/>
<path d="M780.362 430.604L810.972 424.5L817.827 428.877L818.929 434.4L782.565 441.652L780.362 430.604Z" fill="#518997"/>
<path d="M779.19 429.821L809.8 423.717L816.655 428.093L817.757 433.617L781.393 440.869L779.19 429.821Z" fill="#1F6779"/>
<path d="M792.053 431.384L810.521 427.702L810.421 431.785L793.419 435.176L792.053 431.384Z" fill="#ECFF00"/>
<path d="M792.053 431.384L810.521 427.702L810.421 431.785L793.419 435.176L792.053 431.384Z" fill="#06566A" fill-opacity="0.3"/>
<path d="M786.777 432.437L804.267 428.949L804.167 433.032L788.142 436.228L786.777 432.437Z" fill="#ECFF00"/>
<path d="M771.443 429.379L766.953 430.275L765.392 432.636L766.284 437.109L767.222 437.735L773.666 436.45L772.381 430.005L771.443 429.379Z" fill="#518997"/>
<path d="M766.953 430.275L771.443 429.379L772.728 435.824L766.284 437.109L765.392 432.636L766.953 430.275Z" fill="#1F6779"/>
<path d="M773.279 438.586L766.835 439.872L768.12 446.316L769.058 446.942L773.648 446.026L775.152 443.899L774.217 439.212L773.279 438.586Z" fill="#518997"/>
<path d="M766.835 439.872L773.279 438.586L774.214 443.273L772.71 445.4L768.12 446.316L766.835 439.872Z" fill="#1F6779"/>
<path d="M816.93 380.474L811.042 377.691L808.058 389.468L811.962 390.066L810.17 398.336L817.191 386.099L812.824 386.625L816.93 380.474Z" fill="#ECFF00"/>
<path d="M788.139 382.702L782.786 386.41L791.493 394.883L793.962 391.801L800.229 397.488L793.141 385.288L791.414 389.334L788.139 382.702Z" fill="#ECFF00"/>
</g>
<path d="M54.5404 468.027L51 462.652L54.5404 443.489L73.6584 429L127 432.973V456.342L106.702 472L54.5404 468.027Z" fill="#06566A" fill-opacity="0.1"/>
<path d="M31 398.954V369H74.9167L93 392.684L83.8409 431.694L66.4621 444L31 398.954Z" fill="#ECFF00" fill-opacity="0.4"/>
<g opacity="0.7">
<path d="M17.1616 184.489L112.88 210.136L114.593 211.874L115.656 244.651L14.9252 217.66L13.9958 189.013L15.5452 185.718L17.1616 184.489Z" fill="#518997"/>
<path d="M18.1164 184.744L112.88 210.136L114.593 211.874L115.656 244.65L19.2218 218.811L18.1164 184.744Z" fill="#1F6779"/>
<path fill-rule="evenodd" clip-rule="evenodd" d="M25.246 193.925L25.9104 220.603L113.747 244.138L112.795 215.23L27.7938 192.454L25.246 193.925Z" fill="#82AAB5"/>
<path d="M59.0559 202.992L20.5053 202.992L20.5053 241.543L59.0559 241.543L59.0559 202.992Z" fill="white"/>
<path d="M49.6654 209.911L29.8959 209.911L29.8959 234.623L49.6654 234.623L49.6654 209.911Z" fill="#06566A" fill-opacity="0.25"/>
<path fill-rule="evenodd" clip-rule="evenodd" d="M34.801 215.2C35.5997 215.2 36.2467 214.569 36.2468 213.792C36.2471 213.014 35.5999 212.383 34.8012 212.383C34.003 212.383 33.3555 213.014 33.3554 213.792C33.3557 214.57 34.0028 215.2 34.801 215.2ZM41.0275 214.574L46.0424 221.774L39.6239 221.774L36.0131 221.774L33.3554 221.774L36.4898 217.392L37.7945 219.216L41.0275 214.574Z" fill="#06566A"/>
<path d="M47.1944 224.245L32.3672 224.245L32.3672 226.222L47.1944 226.222L47.1944 224.245Z" fill="#06566A"/>
<path d="M47.1951 227.209L32.3679 227.209L32.3679 229.186L47.1951 229.186L47.1951 227.209Z" fill="#06566A"/>
<path d="M43.2404 230.175L32.3671 230.175L32.3671 232.152L43.2404 232.152L43.2404 230.175Z" fill="#06566A"/>
<path fill-rule="evenodd" clip-rule="evenodd" d="M20.0112 202.498L59.5503 202.498L59.5503 242.037L20.0112 242.037L20.0112 202.498ZM20.9997 203.487L20.9997 241.049L58.5618 241.049L58.5618 203.487L20.9997 203.487Z" fill="#06566A"/>
<path d="M98.3104 213.907L61.0733 203.929L51.0957 241.167L88.3327 251.144L98.3104 213.907Z" fill="white"/>
<path d="M73.7663 211.935L68.9923 210.656L68.6086 212.088L73.3826 213.367L73.7663 211.935Z" fill="#06566A"/>
<path d="M79.4955 213.471L74.7216 212.192L74.3378 213.624L79.1118 214.903L79.4955 213.471Z" fill="#06566A"/>
<path d="M82.6747 216.881L68.3527 213.043L67.5852 215.908L81.9071 219.745L82.6747 216.881Z" fill="#06566A"/>
<path d="M86.0413 223.412L66.9454 218.296L63.1078 232.618L82.2037 237.734L86.0413 223.412Z" fill="#06566A"/>
<path d="M81.5643 240.121L62.4684 235.004L62.0207 236.675L81.1166 241.792L81.5643 240.121Z" fill="#06566A" fill-opacity="0.25"/>
<path d="M80.8607 242.747L61.7647 237.63L61.317 239.301L80.413 244.418L80.8607 242.747Z" fill="#06566A" fill-opacity="0.25"/>
<path fill-rule="evenodd" clip-rule="evenodd" d="M60.7235 203.324L98.9154 213.558L88.6819 251.75L50.49 241.516L60.7235 203.324ZM61.4225 204.535L51.7007 240.817L87.9829 250.539L97.7047 214.257L61.4225 204.535Z" fill="#06566A"/>
<path d="M126.869 230.982L93.4828 211.706L74.2075 245.092L107.593 264.367L126.869 230.982Z" fill="white"/>
<path d="M117.086 239.03L91.4047 224.203L83.9911 237.043L109.673 251.871L117.086 239.03Z" fill="#06566A"/>
<path fill-rule="evenodd" clip-rule="evenodd" d="M93.3021 211.03L127.544 230.8L107.774 265.042L73.5326 245.272L93.3021 211.03ZM93.6639 212.381L74.8829 244.91L107.413 263.691L126.194 231.162L93.6639 212.381Z" fill="#06566A"/>
<path d="M19.8524 224.096L119.151 250.703L110.005 284.837L103.044 288.856L14.0092 264.999C11.373 264.293 9.8079 261.583 10.5144 258.946L19.8524 224.096Z" fill="#387888"/>
<path opacity="0.1" d="M19.8524 224.096L30.8326 227.038L119.151 250.703L118 255L29.6813 231.335L22.8435 238.713L10.8105 257.841L13.0967 249.309L19.8524 224.096Z" fill="black"/>
<path d="M19.2217 218.811L120.171 245.86L121.956 247.874L120.805 252.17L18.4027 224.732L17.9425 223.585L19.2217 218.811Z" fill="#518997"/>
<path d="M19.2217 218.811L120.171 245.86L121.956 247.874L20.0782 221.343L18.4027 224.732L17.9425 223.585L19.2217 218.811Z" fill="#387888"/>
<path d="M51.9408 226.555L56.2374 227.706L57.5714 230.366L54.949 240.153L48.7429 238.49L51.9408 226.555Z" fill="#CDDDE1"/>
<path d="M51.9408 226.555L56.2374 227.706L52.3029 229.978L49.9364 238.809L48.7429 238.49L51.9408 226.555Z" fill="#B4CCD2"/>
<path d="M83.9262 235.125L88.2228 236.276L89.5568 238.936L86.9344 248.723L80.7283 247.06L83.9262 235.125Z" fill="#CDDDE1"/>
<path d="M83.9262 235.125L88.2228 236.276L84.2882 238.548L81.9218 247.38L80.7283 247.06L83.9262 235.125Z" fill="#B4CCD2"/>
</g>
<g opacity="0.7">
<path d="M274.724 68.9918L140.605 36.2823L134.798 47.5145L135.766 56.1234L284.873 92.4882L288.605 77.1872L274.724 68.9918Z" fill="#9BBBC3"/>
<path d="M269.076 82.756L262.673 71.2184M141.425 39.332L147.294 53.0555L141.425 39.332ZM164.077 59.8206L158.823 43.575L164.077 59.8206ZM175.687 50.0038L182.089 61.5414L175.687 50.0038ZM199.486 65.7843L193.617 52.0608L199.486 65.7843ZM210.481 58.4896L216.351 72.2131L210.481 58.4896ZM233.666 76.7923L228.412 60.5467L233.666 76.7923ZM245.276 66.9755L251.063 81.0352L245.276 66.9755Z" stroke="#82AAB5" stroke-width="5"/>
<path d="M138.747 55.4254L285.705 91.266L286.46 98.3979L281.162 104.053L135.549 68.5408L134.166 61.7905L138.747 55.4254Z" fill="#387888"/>
<path d="M143.919 64.1686L144.739 60.8057L147.766 61.5438L149.804 65.6039L146.289 67.5969L143.919 64.1686Z" fill="#9BBBC3"/>
<path d="M207.309 79.6288L208.129 76.2659L211.156 77.004L213.194 81.0641L209.68 83.0572L207.309 79.6288Z" fill="#9BBBC3"/>
<path d="M170.986 70.0578L169.653 71.8704L167.139 72.6824L165.437 68.7046L168.616 66.6293L170.986 70.0578Z" fill="#9BBBC3"/>
<path d="M255.395 90.6433L254.062 92.4559L251.548 93.2679L249.846 89.29L253.024 87.2147L255.395 90.6433Z" fill="#9BBBC3"/>
<path d="M186.455 73.83L186.804 76.0527L189.626 77.6316L192.004 75.1833L189.384 72.05L186.455 73.83Z" fill="#9BBBC3"/>
<path d="M228.828 84.164L229.176 86.3867L231.998 87.9656L234.376 85.5173L231.756 82.384L228.828 84.164Z" fill="#9BBBC3"/>
<path d="M269.843 44.998L239.295 40.573L233.773 67.0573L262.994 74.5401L269.843 44.998Z" fill="#ECFF00"/>
<path d="M269.843 44.998L239.295 40.573L233.773 67.0573L241.059 44.9536L269.843 44.998Z" fill="#06566A" fill-opacity="0.2"/>
<path d="M270.534 46.8915L237.43 40.1426L239.578 32.781L270.963 38.8583L270.534 46.8915Z" fill="#ECFF00"/>
<path d="M270.534 46.8915L237.43 40.1426L239.578 32.781L270.963 38.8583L270.534 46.8915Z" fill="#06566A" fill-opacity="0.3"/>
<path d="M237.429 40.1425L239.578 32.7808L245.624 33.9515L242.738 34.51L239.687 37.5282L240.051 40.7817L237.429 40.1425Z" fill="#06566A" fill-opacity="0.3"/>
<path d="M195.484 28.9038L191.589 27.9536L189.863 35.468L193.657 36.3931L193.521 31.6116L195.484 28.9038Z" fill="#06566A" fill-opacity="0.3"/>
<path d="M221.958 39.7341L191.411 35.3092L185.725 62.4659L215.688 69.3803L221.958 39.7341Z" fill="#ECFF00"/>
<path d="M194.887 33.1317L191.411 35.3092L185.725 62.4659L192.132 45.9091L192.192 38.2455L212.766 40.5173L194.887 33.1317Z" fill="#06566A" fill-opacity="0.2"/>
<path d="M224.57 35.2794L191.586 27.9643L189.861 35.4787L222.364 42.9554L224.57 35.2794Z" fill="#ECFF00"/>
<path d="M224.57 35.2794L191.586 27.9643L189.861 35.4787L222.364 42.9554L224.57 35.2794Z" fill="#06566A" fill-opacity="0.3"/>
<path d="M177.962 24.3713L146.906 19.1097L141.384 45.594L170.351 52.6585L177.962 24.3713Z" fill="#ECFF00"/>
<path d="M154.855 21.0485L146.906 19.1099L141.384 45.5941L144.214 46.2844L147.709 23.0551L153.465 21.999L154.855 21.0485Z" fill="#06566A" fill-opacity="0.2"/>
<path d="M144.96 18.9951L178.671 26.8603L180.27 20.3027L178.835 18.8838L147.56 11.2563L144.96 18.9951Z" fill="#ECFF00"/>
<path d="M144.96 18.9951L178.671 26.8603L180.27 20.3027L178.835 18.8838L147.56 11.2563L144.96 18.9951Z" fill="#06566A" fill-opacity="0.3"/>
<path d="M144.928 19.0285L146.021 19.295L148.948 13.2277L178.803 18.9172L147.528 11.2898L144.928 19.0285Z" fill="#06566A" fill-opacity="0.3"/>
</g>
<g opacity="0.7">
<path d="M142.322 358.081L199.351 393.648L212.766 426.739L212.428 427.2L212.997 428.604L185.55 466.011L138.352 467.284L103.378 434.513L103.459 432.941L103.147 432.648L103.55 424.83L119.109 418.523L124.548 401.239L114.01 388.357L100.767 382.754L100.536 380.889L108.029 367.901L142.322 358.081Z" fill="#387888"/>
<path d="M199.351 393.648L142.322 358.081L108.029 367.901L100.536 380.889L113.779 386.492L124.908 400.097L119.109 418.523L103.55 424.83L103.147 432.648L138.121 465.42L185.319 464.147L212.766 426.739L199.351 393.648Z" fill="#518997"/>
<path opacity="0.5" d="M199.351 393.648L142.322 358.081L108.029 367.901L100.536 380.889L113.779 386.492L124.908 400.097L119.109 418.523L103.55 424.83L103.147 432.648L119.536 435.197L135.033 418.967L128.519 388.021L146.017 370.344L199.351 393.648Z" fill="#387888"/>
<path d="M143.297 381.863L144.742 390.463L135.976 394.016L132.245 384.812L139.471 380.607L143.297 381.863Z" fill="#ECFF00"/>
<path d="M163.351 379.814L154.659 380.513L153.353 389.881L163.19 391.252L165.503 383.218L163.351 379.814Z" fill="#ECFF00"/>
<path d="M163.351 379.814L154.659 380.513L153.353 389.881L163.19 391.252L165.503 383.218L163.351 379.814Z" fill="#06566A" fill-opacity="0.3"/>
<path d="M183.762 397.213L177.619 403.403L169.62 398.355L174.921 389.956L182.551 393.373L183.762 397.213Z" fill="#ECFF00"/>
<path d="M183.762 397.213L177.619 403.403L169.62 398.355L174.921 389.956L182.551 393.373L183.762 397.213Z" fill="#06566A" fill-opacity="0.5"/>
<path d="M185.271 412.57L193.241 416.11L191.368 425.381L181.633 423.415L182.113 415.068L185.271 412.57Z" fill="#ECFF00"/>
<path d="M185.271 412.57L193.241 416.11L191.368 425.381L181.633 423.415L182.113 415.068L185.271 412.57Z" fill="#06566A" fill-opacity="0.6"/>
<path d="M171.911 441.207L179.533 436.969L185.813 444.042L178.387 450.636L172.007 445.233L171.911 441.207Z" fill="#ECFF00"/>
<path d="M171.911 441.207L179.533 436.969L185.813 444.042L178.387 450.636L172.007 445.233L171.911 441.207Z" fill="#06566A" fill-opacity="0.7"/>
<path d="M128.217 406.353L120.009 418.213L142.1 442.739L153.499 431.09L146.516 420.376L138.38 416.296L135.61 409.706L128.217 406.353Z" fill="#ECFF00"/>
<path d="M128.556 414.932L121.765 421.872M136.439 418.28L130.36 423.005L127.962 427.935M142.404 425.571L137.796 430.28L132.919 432.786M146.628 430.675L138.641 440.325" stroke="#06566A" stroke-opacity="0.2" stroke-width="2"/>
<path d="M102.539 448.326L117.139 437.335L122.296 442.381L103.896 458.239L98.2476 452.712L102.539 448.326Z" fill="#82AAB5"/>
<path d="M107.356 451.858L120.561 441.03L122.296 442.383L103.895 458.24L101.878 456.266L104.715 455.246L107.356 451.858Z" fill="#6A9AA6"/>
<path d="M132.366 452.234L122.297 442.382L117.139 437.335L109.476 426.499L119.013 416.752L145.781 442.945L132.366 452.234Z" fill="#B4CCD2"/>
<path d="M132.366 452.233L122.297 442.381L117.14 437.334L109.476 426.498L119.013 416.751L120.313 417.765L113.245 426.832L132.366 452.233Z" fill="#06566A" fill-opacity="0.1"/>
<path d="M155.638 424.955L130.962 470.791L133.388 472.682L160.288 428.579L155.638 424.955Z" fill="#B4CCD2"/>
<path d="M160.288 428.579L156.567 430.643L133.592 470.601L130.962 470.791L133.388 472.682L160.288 428.579Z" fill="#9BBBC3"/>
<path d="M154.936 424.729L161.346 428.526L159.792 431.551L157.805 431.201L154.174 429.091L153.156 427.577L154.936 424.729Z" fill="white"/>
<path d="M159.3 428.009L161.345 428.526L159.792 431.551L157.805 431.201L158.386 430.455L158.64 428.856L159.3 428.009Z" fill="#E6EEF0"/>
<path d="M156.342 420.668L155.485 425.716L160.288 428.579L163.453 426.21L162.637 421.617L165.38 415.841L163.373 415.596L156.342 420.668Z" fill="#ECFF00"/>
</g>
<path d="M152.761 110.103L159.485 115.099L164.69 139.659L149.537 165.09L85.6735 182.567L74.313 154.418L90.2684 127.087L152.761 110.103Z" fill="#06566A" fill-opacity="0.1"/>
</g>
<defs>
<clipPath id="clip0_864_3277">
<rect width="998" height="500" fill="white"/>
</clipPath>
</defs>
</svg>
