<svg xmlns="http://www.w3.org/2000/svg" width="24" height="24" viewBox="0 0 24 24" data-token-name="bath"><title>bath</title><path d="M20.7,12H5.4V6.6a1.2,1.2,0,0,1,2.213-.642A2.547,2.547,0,0,0,7.87,9.072a.449.449,0,0,0,.018.616l.425.424a.449.449,0,0,0,.636,0l3.563-3.563a.449.449,0,0,0,0-.636l-.424-.424a.45.45,0,0,0-.616-.019,2.546,2.546,0,0,0-2.406-.576A3,3,0,0,0,3.6,6.6V12H3.3a.9.9,0,0,0-.9.9v.6a.9.9,0,0,0,.9.9h.3v1.2a3.592,3.592,0,0,0,1.2,2.683V19.5a.9.9,0,0,0,.9.9h.6a.9.9,0,0,0,.9-.9v-.3h9.6v.3a.9.9,0,0,0,.9.9h.6a.9.9,0,0,0,.9-.9V18.282A3.592,3.592,0,0,0,20.4,15.6V14.4h.3a.9.9,0,0,0,.9-.9v-.6A.9.9,0,0,0,20.7,12Z"/></svg>
