<svg xmlns="http://www.w3.org/2000/svg" width="24" height="24" viewBox="0 0 24 24" data-token-name="icon-contact"><title>icon-contact</title><path d="M3.6 12.8c1.4 2.8 3.8 5.1 6.6 6.6l2.2-2.2c.3-.3.7-.4 1-.2 1.1.4 2.3.6 3.6.6.5 0 1 .5 1 1V22c0 .5-.5 1-1 1C7.6 23 0 15.4 0 6c0-.6.4-1 1-1h3.5c.6 0 1 .4 1 1 0 1.2.2 2.4.6 3.6.1.4 0 .7-.2 1-.1 0-2.3 2.2-2.3 2.2zM13 5l3.5 1.8L20 5v1.2L16.5 8 13 6.2V5zm9.5-4c.8 0 1.5.7 1.5 1.5v9c0 .8-.7 1.5-1.5 1.5H12l-3 3V2.5c0-.8.7-1.5 1.5-1.5h12zM21 10V4h-9v6h9z" /></svg>
