<svg xmlns="http://www.w3.org/2000/svg" width="24" height="24" viewBox="0 0 24 24" data-token-name="cradle"><title>cradle</title><path d="M16.2,14.38l1.062,3.067a19.87,19.87,0,0,0,3.815-2.123A.9.9,0,0,1,22.117,16.8,17.563,17.563,0,0,1,11.98,20.348,17.382,17.382,0,0,1,1.88,16.8a.9.9,0,1,1,1.041-1.469,19.564,19.564,0,0,0,3.808,2.13L7.794,14.38m1.949,0L8.43,18.053a12.909,12.909,0,0,0,7.136-.009L14.258,14.38Zm-1.949,0H3.938a.4.4,0,0,1-.4-.4v-9.3a.906.906,0,1,1,1.8,0V6.112H18.723V4.694a.908.908,0,1,1,1.8,0V13.98a.4.4,0,0,1-.4.4H16.2m2.418-6.738h-1a.1.1,0,0,0-.1.1v5.027a.1.1,0,0,0,.1.1h1a.1.1,0,0,0,.1-.1V7.742A.1.1,0,0,0,18.623,7.642Zm-3.047,0h-1a.1.1,0,0,0-.1.1v5.027a.1.1,0,0,0,.1.1h1a.1.1,0,0,0,.1-.1V7.742A.1.1,0,0,0,15.576,7.642Zm-3.047,0h-1a.1.1,0,0,0-.1.1v5.027a.1.1,0,0,0,.1.1h1a.1.1,0,0,0,.1-.1V7.742A.1.1,0,0,0,12.529,7.642Zm-3.047,0h-1a.1.1,0,0,0-.1.1v5.027a.1.1,0,0,0,.1.1h1a.1.1,0,0,0,.1-.1V7.742A.1.1,0,0,0,9.482,7.642Zm-3.048,0h-1a.1.1,0,0,0-.1.1v5.027a.1.1,0,0,0,.1.1h1a.1.1,0,0,0,.1-.1V7.742A.1.1,0,0,0,6.434,7.642Z"/></svg>
