<svg xmlns="http://www.w3.org/2000/svg" width="24" height="24" viewBox="0 0 24 24" data-token-name="desk"><title>desk</title><path d="M21.994,12.306v1.14a.3.3,0,0,1-.27.33h-1.86v9.071a.3.3,0,0,1-.332.27H18.4a.311.311,0,0,1-.333-.274V13.776H2.276a.3.3,0,0,1-.27-.33v-1.14a.3.3,0,0,1,.27-.33H21.724A.3.3,0,0,1,21.994,12.306ZM13.548,10.52V4.927a.314.314,0,0,1,.347-.27H15a.314.314,0,0,1,.346.27V10.52a.314.314,0,0,1-.346.27H13.9A.314.314,0,0,1,13.548,10.52Zm3,0v-4.3a.314.314,0,0,1,.347-.27H18a.314.314,0,0,1,.347.27v4.3a.314.314,0,0,1-.347.27H16.9A.314.314,0,0,1,16.548,10.516Zm3.016,0V5.406a.314.314,0,0,1,.346-.269h1.108a.314.314,0,0,1,.346.269V10.52a.314.314,0,0,1-.346.27H19.91A.314.314,0,0,1,19.564,10.52ZM10,15.8v6.376A.823.823,0,0,1,9.173,23H4.82A.824.824,0,0,1,4,22.177V15.8a.824.824,0,0,1,.824-.824H9.173A.826.826,0,0,1,10,15.8Zm-1.9,4.013c0-.174-.1-.313-.217-.313H6.116c-.12,0-.217.139-.217.313v.574c0,.174.1.313.217.313H7.873c.12,0,.218-.139.218-.313h0Zm0-2.652c0-.174-.1-.313-.217-.313H6.116c-.12,0-.217.139-.217.313v.574c0,.174.1.313.217.313H7.873c.12,0,.218-.139.218-.313h0ZM11.533,7.107a.792.792,0,0,1-.795.794H7.7V8.99H8.816a.6.6,0,0,1,.6.6v.6a.6.6,0,0,1-.6.6H4.726a.6.6,0,0,1-.6-.6v-.6a.6.6,0,0,1,.6-.6H5.9V7.9H2.8a.79.79,0,0,1-.795-.79l0-5.434A.79.79,0,0,1,2.8.883h7.935a.79.79,0,0,1,.794.794Zm-1.8-4.423H3.808V6.1H9.733Z"/></svg>
