<svg xmlns="http://www.w3.org/2000/svg" width="24" height="24" viewBox="0 0 24 24" data-token-name="icon-fireplace"><title>icon-fireplace</title><path d="M1.2,21.6H4.8V16.8a7.2,7.2,0,0,1,14.4,0v4.8h3.6V7.2H1.2Zm11.634-7.514A14.6,14.6,0,0,0,10.92,12c-1.893,1.71-3.239,3.937-3.239,5.279a4.319,4.319,0,1,0,8.638,0,7.506,7.506,0,0,0-2.4-4.319,10.856,10.856,0,0,0-1.084,1.125Zm.581,5.133A2.41,2.41,0,0,1,12,19.679a2.3,2.3,0,0,1-2.4-2.4c0-.738.447-1.391,1.335-2.5.128.153,1.811,2.4,1.811,2.4L13.822,15.9c.075.131.146.258.206.382a2.349,2.349,0,0,1-.611,2.94ZM23.4,2.4H.6A.6.6,0,0,0,0,3V5.4A.6.6,0,0,0,.6,6H23.4a.6.6,0,0,0,.6-.6V3A.6.6,0,0,0,23.4,2.4Z"/></svg>
