<svg xmlns="http://www.w3.org/2000/svg" width="24" height="24" viewBox="0 0 24 24" data-token-name="icon-furnished"><title>icon-furnished</title><path d="M6,10.8v2.4H18V10.8a2.4,2.4,0,0,1,2.4-2.4h1.2A3.6,3.6,0,0,0,18,4.8H6A3.6,3.6,0,0,0,2.4,8.4H3.6A2.4,2.4,0,0,1,6,10.8ZM21.6,9.6H20.4a1.2,1.2,0,0,0-1.2,1.2v3.6H4.8V10.8A1.2,1.2,0,0,0,3.6,9.6H2.4a2.392,2.392,0,0,0-1.2,4.466V18.6a.6.6,0,0,0,.6.6H4.2a.6.6,0,0,0,.6-.6V18H19.2v.6a.6.6,0,0,0,.6.6h2.4a.6.6,0,0,0,.6-.6V14.066A2.392,2.392,0,0,0,21.6,9.6Z"/></svg>
