<svg xmlns="http://www.w3.org/2000/svg" width="24" height="24" viewBox="0 0 24 24" data-token-name="hairdryer"><title>hairdryer</title><path d="M16.266,6.417s-2.351-.989-3.8-1.515A19.319,19.319,0,0,0,6.782,3.5,5.7,5.7,0,0,0,4.614,14.466L7.2,19.511a1.821,1.821,0,0,0,1.13.936,1.707,1.707,0,0,0,.429.056,1.676,1.676,0,0,0,.912-.274l1.36-.883a2.008,2.008,0,0,0,.639-2.588l-1.439-2.81,6.012-1.93A8.25,8.25,0,0,0,16.266,6.417ZM6.782,10.684A1.488,1.488,0,1,1,8.269,9.2,1.49,1.49,0,0,1,6.782,10.684ZM17.506,6.627a8.8,8.8,0,0,1,0,5.134l3.379,1.905.323-.323A5.877,5.877,0,0,0,21.2,5.048l-.323-.323Z"/></svg>
