<svg xmlns="http://www.w3.org/2000/svg" width="24" height="24" viewBox="0 0 24 24" data-token-name="icon-infant-chair"><title>icon-infant-chair</title><path d="M7.8,4.8A2.993,2.993,0,0,1,9.3,2.216V9.6h1.8V1.8h1.8V9.6h1.8V2.216A2.991,2.991,0,0,1,16.2,4.8V9.6H18V4.8A4.8,4.8,0,0,0,13.2,0H10.8A4.8,4.8,0,0,0,6,4.8V9.6H7.8ZM19.9,11.621a1.2,1.2,0,0,0-1.14-.821H5.161a1.2,1.2,0,0,0-1.14.821L2.614,14.09a1,1,0,0,0,.868,1.5H6.011L3.629,22.839a.6.6,0,0,0,.383.757l1.14.374a.6.6,0,0,0,.757-.383l.925-2.813h10.25l.921,2.813a.6.6,0,0,0,.757.383L19.9,23.6a.6.6,0,0,0,.383-.757l-2.378-7.254h2.611a1,1,0,0,0,.856-1.517ZM7.622,18.374l.915-2.789h6.844l.915,2.789Z"/></svg>
