<svg xmlns="http://www.w3.org/2000/svg" width="24" height="24" viewBox="0 0 24 24" data-token-name="icon-info"><title>icon-info</title><path d="M12,2.4 C6.69843871,2.4 2.4,6.6999871 2.4,12 C2.4,17.3031097 6.69843871,21.6 12,21.6 C17.3015613,21.6 21.6,17.3031097 21.6,12 C21.6,6.6999871 17.3015613,2.4 12,2.4 Z M12,19.7419355 C7.72134194,19.7419355 4.25806452,16.2800903 4.25806452,12 C4.25806452,7.72277419 7.72149677,4.25806452 12,4.25806452 C16.277071,4.25806452 19.7419355,7.72145806 19.7419355,12 C19.7419355,16.2785806 16.2800903,19.7419355 12,19.7419355 Z M12,6.65806452 C12.8979097,6.65806452 13.6258065,7.38596129 13.6258065,8.28387097 C13.6258065,9.18178065 12.8979097,9.90967742 12,9.90967742 C11.1020903,9.90967742 10.3741935,9.18178065 10.3741935,8.28387097 C10.3741935,7.38596129 11.1020903,6.65806452 12,6.65806452 Z M14.1677419,16.4903226 C14.1677419,16.7468516 13.9597548,16.9548387 13.7032258,16.9548387 L10.2967742,16.9548387 C10.0402452,16.9548387 9.83225806,16.7468516 9.83225806,16.4903226 L9.83225806,15.5612903 C9.83225806,15.3047613 10.0402452,15.0967742 10.2967742,15.0967742 L10.7612903,15.0967742 L10.7612903,12.6193548 L10.2967742,12.6193548 C10.0402452,12.6193548 9.83225806,12.4113677 9.83225806,12.1548387 L9.83225806,11.2258065 C9.83225806,10.9692774 10.0402452,10.7612903 10.2967742,10.7612903 L12.7741935,10.7612903 C13.0307226,10.7612903 13.2387097,10.9692774 13.2387097,11.2258065 L13.2387097,15.0967742 L13.7032258,15.0967742 C13.9597548,15.0967742 14.1677419,15.3047613 14.1677419,15.5612903 L14.1677419,16.4903226 Z" id="Shape" fill="#000000"></path></svg>
