<svg xmlns="http://www.w3.org/2000/svg" width="24" height="24" viewBox="0 0 24 24" data-token-name="logout"><title>logout</title><path d="M16.2,9c-0.5,0-1,0-1.5,0c0-1.8,0-3.7,0-5.5c-3.3,0-6.6,0-9.9,0c0.1,0,0.1,0.1,0.1,0.1c1.1,0.6,2.2,1.3,3.3,1.9 C8.9,5.8,9.1,6.4,9.1,7c0,1.1,0,2.3,0,3.4c0,2.7,0,5.3,0,8c0,0.1,0,0.1,0,0.2c1.9,0,3.7,0,5.6,0c0-1.4,0-2.8,0-4.2c0.5,0,1,0,1.6,0 c0,0.1,0,0.1,0,0.1c0,1.6,0,3.2,0,4.8c0,0.6-0.2,0.8-0.8,0.9c-0.1,0-0.3,0-0.5,0c-1.9,0-3.8,0-5.7,0c0,0-0.1,0-0.2,0 c0,0.1,0,0.1,0,0.2c0,0.8,0,1.6,0,2.5c0,0.2,0,0.5-0.1,0.7c-0.1,0.4-0.4,0.5-0.8,0.4c-0.2,0-0.4-0.1-0.5-0.2 c-2-1.2-4.1-2.3-6.1-3.5c-0.4-0.3-0.7-0.7-0.7-1.2c0-5.4,0-10.8,0-16.2c0-0.4,0.1-0.7,0.5-0.9c0.2-0.1,0.4-0.1,0.6-0.1 c4.1,0,8.2,0,12.3,0c0.3,0,0.6,0,1,0c0.1,0,0.2,0,0.3,0c0.5,0.1,0.7,0.3,0.7,0.8c0,0.5,0,1,0,1.4c0,1.6,0,3.2,0,4.8 C16.2,8.9,16.2,8.9,16.2,9z" /><path d="M17.8,12.8c-0.1,0-0.1,0-0.2,0c-1.2,0-2.3,0-3.5,0c-0.3,0-0.6,0-0.9-0.2c-0.4-0.2-0.6-0.5-0.6-0.9c0-0.5,0.3-0.9,0.7-1 c0.2-0.1,0.4-0.1,0.7-0.1c1.2,0,2.4,0,3.7,0c0.1,0,0.1,0,0.2,0c0-0.1,0-0.1,0-0.2c0-0.5,0-1.1,0-1.6c0-0.2,0-0.3,0.1-0.5 C18,8.1,18.2,8,18.4,8.1c0.2,0.1,0.3,0.1,0.5,0.2c1.3,0.9,2.6,1.9,3.9,2.8c0,0,0.1,0,0.1,0.1c0.3,0.3,0.3,0.6,0,0.8 c-0.6,0.4-1.1,0.8-1.7,1.3c-0.8,0.6-1.6,1.1-2.3,1.7c-0.1,0.1-0.3,0.2-0.4,0.2c-0.2,0.1-0.4,0-0.5-0.2c0-0.1-0.1-0.3-0.1-0.4 c0-0.5,0-1.1,0-1.6C17.8,12.9,17.8,12.8,17.8,12.8z" /></svg>
