<svg xmlns="http://www.w3.org/2000/svg" width="24" height="24" viewBox="0 0 24 24" data-token-name="icon-move"><title>icon-move</title><path d="M15.2085342,17.7315566 L12.7512705,20.1888203 C12.3363311,20.6037598 11.6636025,20.6037598 11.2486631,20.1888203 L8.79139941,17.7315566 C8.48018652,17.4203437 8.48018652,16.9157891 8.79139941,16.6046094 L9.15132129,16.2446875 C9.46861035,15.9273984 9.98515137,15.9345371 10.2935752,16.2604258 L11.0702959,17.1254004 L11.0702959,12.9296875 L6.87458301,12.9296875 L7.73955762,13.706375 C8.06544629,14.0147988 8.07258496,14.5313398 7.7552959,14.8486289 L7.39537402,15.2085508 C7.08416113,15.5197637 6.57960645,15.5197637 6.26842676,15.2085508 L3.81119629,12.7512871 C3.39625684,12.3363477 3.39625684,11.6636191 3.81119629,11.2486797 L6.26845996,8.79141602 C6.57967285,8.48020312 7.08422754,8.48020312 7.39540723,8.79141602 L7.7553291,9.15133789 C8.07261816,9.46862695 8.06547949,9.98520117 7.73959082,10.2935918 L6.87458301,11.0703125 L11.0702959,11.0703125 L11.0702959,6.87459961 L10.2936084,7.73957422 C9.98518457,8.06546289 9.46864355,8.07260156 9.15135449,7.7553125 L8.79143262,7.39539062 C8.48021973,7.08417773 8.48021973,6.57962305 8.79143262,6.26844336 L11.2486963,3.81117969 C11.6636357,3.39624023 12.3363643,3.39624023 12.7513037,3.81117969 L15.2085674,6.26844336 C15.5197803,6.57965625 15.5197803,7.08421094 15.2085674,7.39539062 L14.8486455,7.7553125 C14.5313564,8.07260156 14.0148154,8.06546289 13.7063916,7.73957422 L12.9296709,6.87459961 L12.9296709,11.0703125 L17.1253838,11.0703125 L16.2604092,10.293625 C15.9345205,9.98520117 15.9273818,9.46866016 16.2446709,9.15137109 L16.6045928,8.79144922 C16.9158057,8.48023633 17.4203604,8.48023633 17.73154,8.79144922 L20.1888037,11.2487129 C20.6037432,11.6636523 20.6037432,12.3363809 20.1888037,12.7513203 L17.73154,15.208584 C17.4203271,15.5197969 16.9157725,15.5197969 16.6045928,15.208584 L16.2446709,14.8486621 C15.9273818,14.531373 15.9345205,14.014832 16.2604092,13.7064082 L17.1253838,12.9296875 L12.9296709,12.9296875 L12.9296709,17.1254004 L13.7063584,16.2604258 C14.0147822,15.9345371 14.5313232,15.9273984 14.8486123,16.2446875 L15.2085342,16.6046094 C15.5197471,16.9157891 15.5197471,17.4203437 15.2085342,17.7315566 Z" id="Path" fill="#000000"></path></svg>
