<svg xmlns="http://www.w3.org/2000/svg" width="24" height="24" viewBox="0 0 24 24" data-token-name="share"><title>share</title><path d="M23.718,9.055l-5.4,5.1A.9.9,0,0,1,16.8,13.5V10.8c-5.421.036-7.708,1.317-6.178,6.425a.6.6,0,0,1-.938.65A7.219,7.219,0,0,1,6.9,12.5c0-5.4,4.41-6.468,9.9-6.5V3.3a.9.9,0,0,1,1.518-.655l5.4,5.1A.9.9,0,0,1,23.718,9.055ZM16.8,16.617V19.2H4.8V7.2H6.712a.448.448,0,0,0,.324-.139A7.288,7.288,0,0,1,8.949,5.65.45.45,0,0,0,8.741,4.8H4.2A1.8,1.8,0,0,0,2.4,6.6V19.8a1.8,1.8,0,0,0,1.8,1.8H17.4a1.8,1.8,0,0,0,1.8-1.8v-3.33a.451.451,0,0,0-.6-.424,2.684,2.684,0,0,1-1.282.127.451.451,0,0,0-.517.445Z"/></svg>
