<svg xmlns="http://www.w3.org/2000/svg" width="24" height="24" viewBox="0 0 24 24" data-token-name="upload"><title>upload</title><path d="M13.5,16.8h-3a.9.9,0,0,1-.9-.9V9.6H6.31a.75.75,0,0,1-.53-1.28l5.71-5.71a.72.72,0,0,1,1,0l5.71,5.71a.75.75,0,0,1-.53,1.28H14.4v6.3A.9.9,0,0,1,13.5,16.8Zm8.1-.3v4.2a.9.9,0,0,1-.9.9H3.3a.9.9,0,0,1-.9-.9V16.5a.9.9,0,0,1,.9-.9H8.4v.3A2.1,2.1,0,0,0,10.5,18h3a2.1,2.1,0,0,0,2.1-2.1v-.3h5.1A.9.9,0,0,1,21.6,16.5ZM17,19.8a.75.75,0,1,0-.75.75A.76.76,0,0,0,17,19.8Zm2.4,0a.75.75,0,1,0-.75.75A.76.76,0,0,0,19.35,19.8Z"/></svg>
