<svg xmlns="http://www.w3.org/2000/svg" width="24" height="24" viewBox="0 0 24 24" data-token-name="icon-utensils"><title>icon-utensils</title><path d="M3.22,2.725l8.969,8.327L14,9.444a3.132,3.132,0,0,1,.6-4.064c.818-.814,3.555-2.753,3.7-2.858.6-.442,1.41.432.93.983L16.193,7.022c-.048.056.113.225.177.172L20,4.24c.566-.461,1.421.382.956.956L18,8.829c-.048.06.117.225.173.173l3.517-3.045c.551-.476,1.425.326.982.934a45.87,45.87,0,0,1-2.857,3.7,3.137,3.137,0,0,1-4.068.607c-1,1.129-.544.611-1.537,1.736l5.8,5.384a1.2,1.2,0,0,1,.03,1.729l-1.2,1.2a1.2,1.2,0,0,1-1.725-.027C16.4,20.37,9.6,12.35,9.3,12c-6,0-8.1-3.378-8.1-8.395A1.2,1.2,0,0,1,3.22,2.725Zm.735,17.322,1.2,1.2A1.2,1.2,0,0,0,6.9,21.2l4.406-4.976-2.122-2.5L4.008,18.3A1.2,1.2,0,0,0,3.955,20.047Z"/></svg>
