<svg xmlns="http://www.w3.org/2000/svg" width="24" height="24" viewBox="0 0 24 24" data-token-name="washer"><title>washer</title><path d="M18,2.4H6A2.4,2.4,0,0,0,3.6,4.8V20.4a1.2,1.2,0,0,0,1.2,1.2H19.2a1.2,1.2,0,0,0,1.2-1.2V4.8A2.4,2.4,0,0,0,18,2.4ZM10.5,4.8a.9.9,0,1,1-.9.9A.9.9,0,0,1,10.5,4.8ZM6,5.7a.9.9,0,1,1,.9.9A.9.9,0,0,1,6,5.7Zm6,13.5a5.4,5.4,0,1,1,5.4-5.4A5.4,5.4,0,0,1,12,19.2Zm1.382-6.136a1.921,1.921,0,0,1-2.716.048l-.048-.048a1.942,1.942,0,0,1-2.746.037h0a4.111,4.111,0,0,0-.07.7,4.2,4.2,0,0,0,8.4,0,4.123,4.123,0,0,0-.07-.7,1.942,1.942,0,0,1-2.746-.037h0Z"/></svg>
