<svg xmlns="http://www.w3.org/2000/svg" width="219.7" height="54" viewBox="0 0 219.7 54" style="fill:#fff"><path d="M74.1 17.2l2.4 12.7c.2 1.4.4 2.8.6 4.1h.1c.2-1.2.4-2.7.6-4l2-12.8h6.4l-5 18.9c-1.2 4.6-2.8 9.3-5.5 12.5-2.1 2.4-4.6 3.6-5.6 3.9l-2-5.7c1.2-.4 2.2-1.2 3.3-2 .9-.9 1.6-1.9 2-2.9.2-.5.4-.7.4-1 0-.3-.1-.6-.2-.9L67 17.2h7.1zM105.8 29.4c0 10.2-5.7 12.7-9.4 12.7-5.9 0-9.4-4.6-9.4-12.6 0-8.8 4.6-12.7 9.5-12.7 5.8 0 9.3 4.9 9.3 12.6zm-12.2 0c0 4.2.6 7.7 3 7.7 2.1 0 2.7-4.1 2.7-7.7 0-3.3-.6-7.6-2.8-7.6-2.4 0-2.9 4.2-2.9 7.6zM127.4 34.2c0 2.6.1 5.2.2 7.5h-5.7l-.4-2.6h-.1c-1.1 1.6-3.1 3-5.7 3-4.6 0-6.6-3.5-6.6-10.1V17.2h6.6v14.1c0 3.2.6 5.3 2.5 5.3 1.1 0 1.8-.9 2.1-1.7.2-.5.4-1.2.4-2.1V17.2h6.6v17zM132 24.6c0-2.5-.1-5.1-.2-7.4h5.7l.4 3.5h.1c1.1-2.6 3.1-4 4.9-4 .7 0 1 0 1.4.1v6.5c-.4-.1-.9-.1-1.4-.1-1.4 0-3.2 1-4 3.5-.1.5-.2 1.4-.2 2.5v12.4H132v-17zM146.7 7.1h6.6v34.6h-6.6V7.1zM175.8 29.4c0 10.2-5.7 12.7-9.4 12.7-5.9 0-9.4-4.6-9.4-12.6 0-8.8 4.6-12.7 9.5-12.7 5.8 0 9.3 4.9 9.3 12.6zm-12.2 0c0 4.2.6 7.7 3 7.7 2.1 0 2.7-4.1 2.7-7.7 0-3.3-.6-7.6-2.8-7.6-2.4 0-2.9 4.2-2.9 7.6zM197.3 38.9c0 5.2-.9 8.2-3 10.1-1.8 1.7-4.4 2.7-8 2.7-2.3 0-4.4-.4-6.1-1.2l1.2-5c1.2.5 2.8 1 4.7 1 3.3 0 4.6-2.2 4.6-6V39h-.1c-.9 1.5-2.6 2.5-4.4 2.5-5.5 0-7.7-6-7.7-11.9 0-8.2 3.7-12.9 8.3-12.9 2 0 3.6 1 4.5 2.9h.1l.4-2.5h5.7c-.1 2.2-.2 4.8-.2 7.8v14zm-6.5-12.8c0-.7-.1-1.3-.2-1.8-.3-1-1-2-2.1-2-2.4 0-3.3 3.2-3.3 7.2 0 4.5 1.3 6.9 3.1 6.9.9 0 1.7-.5 2.2-1.8.2-.6.3-1.3.3-2v-6.5zM219.7 29.4c0 10.2-5.7 12.7-9.4 12.7-5.9 0-9.4-4.6-9.4-12.6 0-8.8 4.6-12.7 9.5-12.7 5.8 0 9.3 4.9 9.3 12.6zm-12.2 0c0 4.2.6 7.7 3 7.7 2.1 0 2.7-4.1 2.7-7.7 0-3.3-.6-7.6-2.8-7.6-2.4 0-2.9 4.2-2.9 7.6zM27 0C12.1 0 0 12.1 0 27s12.1 27 27 27 27-12.1 27-27S41.9 0 27 0zm9.2 26.8c-3.7 10.4-6.1 14.1-8.8 16.5-2.8 2.5-5.9 3.4-8.2 3.6l-1.9-7.6c.9-.1 1.9-.5 3-1 1.2-.4 2.4-1.4 2.9-2.2.3-.4.5-.8.5-1.1 0-.3-.1-.7-.4-1.4l-9-22.4h10l3 11.1c.4 1.4.8 3.1 1.1 4.4h.2c.3-1.2.6-3.1.9-4.4l2.2-11.1h9.6l-5.1 15.6z"/></svg>
